#bild199_26719_969.obj

v -36.80505 -9.616399 5.042303
v -36.80505 -9.616399 -5.037599
v -17.62512 -8.616838 5.042303
v -17.62512 -8.616838 -5.037599
v 3.334208 -7.524662 -5.037599
v 3.334208 -7.524662 -15.11761
v 19.34245 -6.690486 -5.037599
v 19.34245 -6.690486 -15.11761
v 19.34245 -6.690486 -5.037599
v 19.34245 -6.690486 -15.11761
v 18.58231 9.298557 -5.037599
v 18.58231 9.298557 -15.11761
v 19.34245 -6.690486 5.042303
v 19.34245 -6.690486 -5.037599
v 34.97292 -5.875915 5.042303
v 34.97292 -5.875915 -5.037599
v 3.334208 -7.524662 5.042303
v 3.334208 -7.524662 -5.037599
v 19.34245 -6.690486 5.042303
v 19.34245 -6.690486 -5.037599
v 19.34245 -6.690486 12.60236
v 19.34245 -6.690486 5.042303
v 34.97292 -5.875915 12.60236
v 34.97292 -5.875915 5.042303
v 2.467004 8.403204 -15.11761
v 3.334208 -7.524662 -15.11761
v 3.334208 -7.524662 -5.037599
v 2.467004 8.403204 -5.037599
v 2.467004 8.403204 5.042303
v 3.334208 -7.524662 5.042303
v -17.62512 -8.616838 5.042303
v -17.62512 -8.616838 -5.037599
v -19.01441 7.209503 5.042303
v -19.01441 7.209503 -5.037599
v -59.91359 4.936926 -5.037599
v -59.40202 -10.76029 -5.037599
v -59.40202 -10.76029 5.042303
v -59.91359 4.936926 5.042303
v -59.40202 -10.76029 12.60236
v -59.91359 4.936926 12.60236
v -59.91359 4.936926 25.20232
v -59.40202 -10.76029 25.20232
v 50.35238 -5.0744 25.20232
v 50.35238 -5.0744 12.60236
v 50.69617 11.08294 25.20232
v 50.69617 11.08294 12.60236
v 34.97292 -5.875915 25.20232
v 34.97292 -5.875915 12.60236
v 50.35238 -5.0744 25.20232
v 50.35238 -5.0744 12.60236
v -59.40202 -10.76029 -5.037599
v -36.80505 -9.616399 -5.037599
v -36.80505 -9.616399 5.042303
v -59.40202 -10.76029 5.042303
v -59.40202 -10.76029 12.60236
v -36.80505 -9.616399 12.60236
v 3.334208 -7.524662 5.042303
v 19.34245 -6.690486 5.042303
v 19.34245 -6.690486 12.60236
v 3.334208 -7.524662 12.60236
v -17.62512 -8.616838 12.60236
v -17.62512 -8.616838 5.042303
v 3.334208 -7.524662 5.042303
v -59.40202 -10.76029 25.20232
v -36.80505 -9.616399 25.20232
v 34.97292 -5.875915 12.60236
v 34.97292 -5.875915 25.20232
v 19.34245 -6.690486 25.20232
v 3.334208 -7.524662 25.20232
v -17.62512 -8.616838 25.20232
v 34.97292 -5.875915 -5.037599
v 34.36152 10.17522 -5.037599
v 34.36152 10.17522 5.042303
v 34.97292 -5.875915 5.042303
v 34.97292 -5.875915 12.60236
v 34.36152 10.17522 12.60236
v 50.69617 11.08294 25.20232
v 50.69617 11.08294 12.60236
v 34.36152 10.17522 25.20232
v 34.36152 10.17522 12.60236
v 18.58231 9.298557 -15.11761
v 2.467004 8.403204 -15.11761
v 2.467004 8.403204 -5.037599
v 18.58231 9.298557 -5.037599
v 2.467004 8.403204 5.042303
v 18.58231 9.298557 5.042303
v 18.58231 9.298557 12.60236
v 2.467004 8.403204 12.60236
v -19.01441 7.209503 5.042303
v -19.01441 7.209503 12.60236
v 18.58231 9.298557 25.20232
v 2.467004 8.403204 25.20232
v -19.01441 7.209503 25.20232
v 34.36152 10.17522 -5.037599
v 18.58231 9.298557 -5.037599
v 18.58231 9.298557 5.042303
v 34.36152 10.17522 5.042303
v 18.58231 9.298557 12.60236
v 34.36152 10.17522 12.60236
v 34.36152 10.17522 25.20232
v 18.58231 9.298557 25.20232
v -19.01441 7.209503 -5.037599
v -59.91359 4.936926 -5.037599
v -59.91359 4.936926 5.042303
v -19.01441 7.209503 5.042303
v -59.91359 4.936926 12.60236
v -19.01441 7.209503 12.60236
v -19.01441 7.209503 25.20232
v -59.91359 4.936926 25.20232

vn -0.07879639 0 -0.996582
vn -0.07879639 0 -0.996582
vn -0.07824707 0.2104492 -0.9741211
vn -0.07879639 0 -0.996582
vn -0.07879639 0 -0.996582
vn -0.07879639 0 -0.996582
vn -0.07867432 0.1159668 -0.9897461
vn -0.07879639 0 -0.996582
vn -0.7397461 0.6704102 0.0557251
vn -0.996582 0 0.07849121
vn -0.7319336 0.6787109 0.05551147
vn -0.996582 0 0.07849121
vn -0.07879639 0 -0.996582
vn -0.07867432 0.1159668 -0.9897461
vn -0.07879639 0 -0.996582
vn -0.07824707 0.2104492 -0.9741211
vn -0.07879639 0 -0.996582
vn -0.07879639 0 -0.996582
vn -0.07879639 0 -0.996582
vn -0.07867432 0.1159668 -0.9897461
vn -0.07879639 0 -0.996582
vn -0.07879639 0 -0.996582
vn -0.07867432 0.1159668 -0.9897461
vn -0.07879639 0 -0.996582
vn 0.996582 0 -0.07879639
vn 0.996582 0 -0.07879639
vn 0.996582 0 -0.07879639
vn 0.996582 0 -0.07879639
vn 0.996582 0 -0.07879639
vn 0.996582 0 -0.07879639
vn -0.9926758 0 0.1173096
vn -0.9575195 0.2653809 0.1088257
vn -0.9926758 0 0.1173096
vn -0.9575195 0.2653809 0.1088257
vn 0.9667969 0.2489014 -0.05450439
vn 0.9667969 0.2489014 -0.05450439
vn 0.9975586 0 -0.06317139
vn 0.9975586 0 -0.06317139
vn 0.9975586 0 -0.06317139
vn 0.9975586 0 -0.06317139
vn 0.9975586 0 -0.06317139
vn 0.9975586 0 -0.06317139
vn -0.9995117 0.007881165 0.00806427
vn -0.9760742 0.2156982 0.007415771
vn -0.9995117 0.007881165 0.00806427
vn -0.9760742 0.2156982 0.007415771
vn -0.07879639 0 -0.996582
vn -0.07867432 0.1159668 -0.9897461
vn -0.07879639 0 -0.996582
vn -0.07824707 0.2104492 -0.9741211
vn -0.07879639 0 -0.996582
vn -0.07879639 0 -0.996582
vn -0.07879639 0 -0.996582
vn -0.07879639 0 -0.996582
vn -0.07879639 0 -0.996582
vn -0.07879639 0 -0.996582
vn -0.07879639 0 -0.996582
vn -0.07879639 0 -0.996582
vn -0.07879639 0 -0.996582
vn -0.07879639 0 -0.996582
vn -0.07879639 0 -0.996582
vn -0.07824707 0.2104492 -0.9741211
vn -0.07647705 0.4033203 -0.9116211
vn -0.07879639 0 -0.996582
vn -0.07879639 0 -0.996582
vn -0.07867432 0.1159668 -0.9897461
vn -0.07879639 0 -0.996582
vn -0.07879639 0 -0.996582
vn -0.07879639 0 -0.996582
vn -0.07879639 0 -0.996582
vn -0.9746094 0.2137451 0.06225586
vn -0.9746094 0.2137451 0.06225586
vn -0.9975586 0 0.06286621
vn -0.9975586 0 0.06286621
vn -0.7397461 0.6704102 0.04788208
vn -0.7319336 0.6791992 0.04766846
vn 0.08630371 0 0.9960938
vn 0.07794189 0.2119141 0.9741211
vn 0.08630371 0 0.9960938
vn 0.07794189 0.2119141 0.9741211
vn 0.08630371 0 0.9960938
vn 0.08630371 0 0.9960938
vn 0.08630371 0 0.9960938
vn 0.08630371 0 0.9960938
vn 0.07794189 0.2119141 0.9741211
vn 0.08630371 0 0.9960938
vn 0.08630371 0 0.9960938
vn 0.08630371 0 0.9960938
vn 0.07617188 0.4040527 0.9111328
vn 0.08630371 0 0.9960938
vn 0.08630371 0 0.9960938
vn 0.08630371 0 0.9960938
vn 0.08630371 0 0.9960938
vn 0.07794189 0.2119141 0.9741211
vn 0.07794189 0.2119141 0.9741211
vn 0.08630371 0 0.9960938
vn 0.08630371 0 0.9960938
vn 0.08630371 0 0.9960938
vn 0.08630371 0 0.9960938
vn 0.08630371 0 0.9960938
vn 0.08630371 0 0.9960938
vn 0.07769775 0.2452393 0.9663086
vn 0.07769775 0.2452393 0.9663086
vn 0.08630371 0 0.9960938
vn 0.08630371 0 0.9960938
vn 0.08630371 0 0.9960938
vn 0.08630371 0 0.9960938
vn 0.08630371 0 0.9960938
vn 0.08630371 0 0.9960938

vt 1.856445 0.7480469
vt 1.856445 0.9863281
vt 1.386719 0.7480469
vt 1.386719 0.9863281
vt 2.628906 0.9863281
vt 2.628906 1.224609
vt 2.236328 0.9863281
vt 2.236328 1.224609
vt 2.308594 0.9863281
vt 2.308594 1.224609
vt 1.918945 0.9863281
vt 1.918945 1.224609
vt 2.732422 0.7480469
vt 2.732422 0.9863281
vt 2.351563 0.7480469
vt 2.351563 0.9863281
vt 0.7905273 0.7480469
vt 0.7905273 0.9863281
vt 0.3991699 0.7480469
vt 0.3991699 0.9863281
vt 3.548828 0.5688477
vt 3.548828 0.7480469
vt 3.167969 0.5688477
vt 3.167969 0.7480469
vt 1.392578 1.224609
vt 1.003906 1.224609
vt 1.003906 0.9863281
vt 1.392578 0.9863281
vt 1.392578 0.7480469
vt 1.003906 0.7480469
vt 1.386719 0.7480469
vt 1.386719 0.9863281
vt 0.9995117 0.7480469
vt 0.9995117 0.9863281
vt 8.004904E-05 0.9863281
vt -0.3837891 0.9863281
vt -0.3837891 0.7480469
vt 8.004904E-05 0.7480469
vt -0.3837891 0.5688477
vt 8.004904E-05 0.5688477
vt 9.191036E-05 0.2709961
vt -0.3837891 0.2709961
vt 2.654297 0.2709961
vt 2.654297 0.5688477
vt 2.183594 0.2709961
vt 2.183594 0.5688477
vt 3.326172 0.2709961
vt 3.326172 0.5688477
vt 2.951172 0.2709961
vt 2.951172 0.5688477
vt -0.3837891 0.9863281
vt -0.9257813 0.9863281
vt -0.9257813 0.7480469
vt -0.3837891 0.7480469
vt -0.3837891 0.5688477
vt -0.9257813 0.5688477
vt -1.90625 0.7480469
vt -2.296875 0.7480469
vt -2.296875 0.5688477
vt -1.90625 0.5688477
vt -1.394531 0.5688477
vt -1.394531 0.7480469
vt -1.90625 0.7480469
vt -0.3837891 0.2709961
vt -0.9257813 0.2709961
vt -2.679688 0.5688477
vt -2.679688 0.2709961
vt -2.296875 0.2709961
vt -1.90625 0.2709961
vt -1.394531 0.2709961
vt 2.619141 0.9863281
vt 2.226563 0.9863281
vt 2.226563 0.7480469
vt 2.619141 0.7480469
vt 2.619141 0.5688477
vt 2.226563 0.5688477
vt 2.005859 0.2641602
vt 2.005859 0.5405273
vt 2.351563 0.2641602
vt 2.351563 0.5405273
vt 0.6518555 1.224609
vt 0.2020264 1.224609
vt 0.2020264 0.9863281
vt 0.6518555 0.9863281
vt 0.2020264 0.7480469
vt 0.6518555 0.7480469
vt 0.6518555 0.5688477
vt 0.2020264 0.5688477
vt -0.3974609 0.7480469
vt -0.3974609 0.5688477
vt 0.6518555 0.2709961
vt 0.2020264 0.2709961
vt -0.3974609 0.2709961
vt 2.1875 0.9863281
vt 1.802734 0.9863281
vt 1.802734 0.7480469
vt 2.1875 0.7480469
vt 1.802734 0.5688477
vt 2.1875 0.5688477
vt 2.1875 0.2709961
vt 1.802734 0.2709961
vt 0.9995117 0.9863281
vt 8.004904E-05 0.9863281
vt 8.004904E-05 0.7480469
vt 0.9995117 0.7480469
vt 8.004904E-05 0.5688477
vt 0.9995117 0.5688477
vt 0.9995117 0.2709961
vt 9.191036E-05 0.2709961

g bild199_26719_969
usemtl bild199_26719_969
usemap bild199_26719_969
f 1/1/1 3/3/3 2/2/2
f 2/2/2 3/3/3 4/4/4
f 5/5/5 7/7/7 6/6/6
f 6/6/6 7/7/7 8/8/8
f 9/9/9 11/11/11 10/10/10
f 10/10/10 11/11/11 12/12/12
f 13/13/13 15/15/15 14/14/14
f 14/14/14 15/15/15 16/16/16
f 17/17/17 19/19/19 18/18/18
f 18/18/18 19/19/19 20/20/20
f 21/21/21 23/23/23 22/22/22
f 22/22/22 23/23/23 24/24/24
f 25/25/25 27/27/27 26/26/26
f 28/28/28 27/27/27 25/25/25
f 29/29/29 30/30/30 28/28/28
f 28/28/28 30/30/30 27/27/27
f 31/31/31 33/33/33 32/32/32
f 32/32/32 33/33/33 34/34/34
f 35/35/35 37/37/37 36/36/36
f 38/38/38 37/37/37 35/35/35
f 38/38/38 39/39/39 37/37/37
f 40/40/40 39/39/39 38/38/38
f 41/41/41 42/42/42 40/40/40
f 40/40/40 42/42/42 39/39/39
f 43/43/43 45/45/45 44/44/44
f 44/44/44 45/45/45 46/46/46
f 47/47/47 49/49/49 48/48/48
f 48/48/48 49/49/49 50/50/50
f 51/51/51 53/53/53 52/52/52
f 54/54/54 53/53/53 51/51/51
f 55/55/55 56/56/56 54/54/54
f 54/54/54 56/56/56 53/53/53
f 57/57/57 59/59/59 58/58/58
f 60/60/60 59/59/59 57/57/57
f 56/56/56 61/61/61 53/53/53
f 53/53/53 61/61/61 62/62/62
f 62/62/62 60/60/60 63/63/63
f 61/61/61 60/60/60 62/62/62
f 64/64/64 65/65/65 55/55/55
f 55/55/55 65/65/65 56/56/56
f 59/59/59 67/67/67 66/66/66
f 68/68/68 67/67/67 59/59/59
f 60/60/60 68/68/68 59/59/59
f 69/69/69 68/68/68 60/60/60
f 65/65/65 70/70/70 56/56/56
f 56/56/56 70/70/70 61/61/61
f 70/70/70 69/69/69 61/61/61
f 61/61/61 69/69/69 60/60/60
f 71/71/71 73/73/73 72/72/72
f 74/74/74 73/73/73 71/71/71
f 75/75/75 76/76/76 74/74/74
f 74/74/74 76/76/76 73/73/73
f 77/77/77 79/79/79 78/78/78
f 78/78/78 79/79/79 80/80/80
f 81/81/81 83/83/83 82/82/82
f 84/84/84 83/83/83 81/81/81
f 84/84/84 85/85/85 83/83/83
f 86/86/86 85/85/85 84/84/84
f 87/87/87 88/88/88 86/86/86
f 86/86/86 88/88/88 85/85/85
f 85/85/85 90/90/90 89/89/89
f 88/88/88 90/90/90 85/85/85
f 91/91/91 92/92/92 87/87/87
f 87/87/87 92/92/92 88/88/88
f 92/92/92 93/93/93 88/88/88
f 88/88/88 93/93/93 90/90/90
f 94/94/94 96/96/96 95/95/95
f 97/97/97 96/96/96 94/94/94
f 97/97/97 98/98/98 96/96/96
f 99/99/99 98/98/98 97/97/97
f 100/100/100 101/101/101 99/99/99
f 99/99/99 101/101/101 98/98/98
f 102/102/102 104/104/104 103/103/103
f 105/105/105 104/104/104 102/102/102
f 105/105/105 106/106/106 104/104/104
f 107/107/107 106/106/106 105/105/105
f 108/108/108 109/109/109 107/107/107
f 107/107/107 109/109/109 106/106/106
