#Box027_(1)_699_24.obj

v 1.347059 2.797713 -2.235307
v 1.347059 -2.991954 -2.235307
v 1.356147 -2.991954 -2.199347
v 1.356147 2.797713 -2.199347
v 1.347059 2.797713 -3.666222
v 1.347059 -2.991954 -3.666224
v 1.356147 -2.991954 -3.630264
v 1.356147 2.797713 -3.630264
v -1.360513 2.797713 -2.235307
v -1.360513 -2.991954 -2.235307
v -1.351425 -2.991954 -2.199349
v -1.351425 2.797713 -2.199349
v -1.360513 2.797713 -3.666224
v -1.360513 -2.991954 -3.666224
v -1.351425 -2.991954 -3.630264
v -1.351425 2.797713 -3.630264

vn 0.4997559 0 -0.8657227
vn 0.4997559 0 -0.8657227
vn 0.4997559 0 -0.8657227
vn 0.4997559 0 -0.8657227
vn 0.4997559 0 -0.8657227
vn 0.4997559 0 -0.8657227
vn 0.4997559 0 -0.8657227
vn 0.4997559 0 -0.8657227
vn 0.5 0 -0.8657227
vn 0.5 0 -0.8657227
vn 0.5 0 -0.8657227
vn 0.5 0 -0.8657227
vn 0.4997559 0 -0.8657227
vn 0.4997559 0 -0.8657227
vn 0.4997559 0 -0.8657227
vn 0.4997559 0 -0.8657227

vt 0.5639648 0.4592285
vt 0.503418 0.4592285
vt 0.503418 0.4594727
vt 0.5639648 0.4594727
vt 0.5639648 0.4443359
vt 0.503418 0.4443359
vt 0.503418 0.4445801
vt 0.5639648 0.4445801
vt 0.5639648 0.4592285
vt 0.503418 0.4592285
vt 0.503418 0.4594727
vt 0.5639648 0.4594727
vt 0.5639648 0.4443359
vt 0.503418 0.4443359
vt 0.503418 0.4445801
vt 0.5639648 0.4445801

g Box027_(1)_699_24
usemtl Box027_(1)_699_24
usemap Box027_(1)_699_24
f 1/1/1 3/3/3 2/2/2
f 1/1/1 4/4/4 3/3/3
f 5/5/5 7/7/7 6/6/6
f 5/5/5 8/8/8 7/7/7
f 9/9/9 11/11/11 10/10/10
f 9/9/9 12/12/12 11/11/11
f 13/13/13 15/15/15 14/14/14
f 13/13/13 16/16/16 15/15/15
