#Box027_642_33.obj

v 1.340406 2.79771 -2.178585
v 1.340406 -2.99196 -2.178586
v 1.331319 -2.99196 -2.214546
v 1.331319 2.79771 -2.214545
v 1.340406 2.79771 -3.609503
v 1.340406 -2.99196 -3.609503
v 1.331319 -2.99196 -3.645461
v 1.331319 2.79771 -3.645462
v -1.367166 2.79771 -2.178587
v -1.367166 -2.99196 -2.178586
v -1.376254 -2.99196 -2.214545
v -1.376253 2.79771 -2.214546
v -1.367166 2.79771 -3.609503
v -1.367166 -2.99196 -3.609503
v -1.376254 -2.99196 -3.645463
v -1.376254 2.79771 -3.645463

vn -0.4997559 0 0.8657227
vn -0.4997559 0 0.8657227
vn -0.4997559 0 0.8657227
vn -0.4997559 0 0.8657227
vn -0.4997559 0 0.8657227
vn -0.4997559 0 0.8657227
vn -0.4997559 0 0.8657227
vn -0.4997559 0 0.8657227
vn -0.4997559 0 0.8657227
vn -0.4997559 0 0.8657227
vn -0.4997559 0 0.8657227
vn -0.4997559 0 0.8657227
vn -0.4997559 0 0.8657227
vn -0.4997559 0 0.8657227
vn -0.4997559 0 0.8657227
vn -0.4997559 0 0.8657227

vt 0.4355469 0.4597168
vt 0.4960938 0.4597168
vt 0.4960938 0.4592285
vt 0.4355469 0.4592285
vt 0.4355469 0.4448242
vt 0.4960938 0.4448242
vt 0.4960938 0.4445801
vt 0.4355469 0.4445801
vt 0.4355469 0.4597168
vt 0.4960938 0.4597168
vt 0.4960938 0.4592285
vt 0.4355469 0.4592285
vt 0.4355469 0.4448242
vt 0.4960938 0.4448242
vt 0.4960938 0.4445801
vt 0.4355469 0.4445801

g Box027_642_33
usemtl Box027_642_33
usemap Box027_642_33
f 1/1/1 3/3/3 2/2/2
f 1/1/1 4/4/4 3/3/3
f 5/5/5 7/7/7 6/6/6
f 5/5/5 8/8/8 7/7/7
f 9/9/9 11/11/11 10/10/10
f 9/9/9 12/12/12 11/11/11
f 13/13/13 15/15/15 14/14/14
f 13/13/13 16/16/16 15/15/15
