#Box013_632_96.obj

v -0.2999998 -0.3000001 1.444344E-17
v -0.2999998 -0.2999992 6.290909
v 0.3 -0.2999992 6.290909
v 0.3 -0.3000001 1.444344E-17
v 0.3 -0.3000001 1.444344E-17
v 0.3 -0.2999992 6.290909
v 0.3 0.300001 6.290909
v 0.3 0.3000001 -1.444344E-17
v 0.3 0.3000001 -1.444344E-17
v 0.3 0.300001 6.290909
v -0.2999998 0.300001 6.290909
v -0.2999998 0.3000001 -1.444344E-17
v -0.2999998 0.3000001 -1.444344E-17
v -0.2999998 0.300001 6.290909
v -0.2999998 -0.2999992 6.290909
v -0.2999998 -0.3000001 1.444344E-17

vn 0 5.960464E-08 1
vn 0 5.960464E-08 1
vn 0 5.960464E-08 1
vn 0 5.960464E-08 1
vn 1 0 0
vn 1 0 0
vn 1 0 0
vn 1 0 0
vn 0 -5.960464E-08 -1
vn 0 -5.960464E-08 -1
vn 0 -5.960464E-08 -1
vn 0 -5.960464E-08 -1
vn -1 0 0
vn -1 0 0
vn -1 0 0
vn -1 0 0

vt 0.4257813 -0.3735352
vt 0.4257813 1.375977
vt 0.5737305 1.375977
vt 0.5737305 -0.3735352
vt 0.4257813 -0.3735352
vt 0.4257813 1.375977
vt 0.5737305 1.375977
vt 0.5737305 -0.3735352
vt 0.4257813 -0.3735352
vt 0.4257813 1.375977
vt 0.5737305 1.375977
vt 0.5737305 -0.3735352
vt 0.4257813 -0.3735352
vt 0.4257813 1.375977
vt 0.5737305 1.375977
vt 0.5737305 -0.3735352

g Box013_632_96
usemtl Box013_632_96
usemap Box013_632_96
f 1/1/1 3/3/3 2/2/2
f 1/1/1 4/4/4 3/3/3
f 5/5/5 7/7/7 6/6/6
f 5/5/5 8/8/8 7/7/7
f 9/9/9 11/11/11 10/10/10
f 9/9/9 12/12/12 11/11/11
f 13/13/13 15/15/15 14/14/14
f 13/13/13 16/16/16 15/15/15
