#Box027_642_31.obj

v 1.34706 2.79771 -2.235307
v 1.34706 -2.99196 -2.235307
v 1.356147 -2.99196 -2.199347
v 1.356147 2.79771 -2.199347
v 1.34706 2.79771 -3.666223
v 1.34706 -2.99196 -3.666223
v 1.356147 -2.99196 -3.630263
v 1.356147 2.79771 -3.630263
v -1.360513 2.79771 -2.235307
v -1.360513 -2.99196 -2.235307
v -1.351425 -2.99196 -2.199348
v -1.351425 2.79771 -2.199348
v -1.360513 2.79771 -3.666223
v -1.360513 -2.99196 -3.666223
v -1.351425 -2.99196 -3.630265
v -1.351425 2.79771 -3.630264

vn 0.4997559 0 -0.8657227
vn 0.4997559 0 -0.8657227
vn 0.4997559 0 -0.8657227
vn 0.4997559 0 -0.8657227
vn 0.4997559 0 -0.8657227
vn 0.4997559 0 -0.8657227
vn 0.4997559 0 -0.8657227
vn 0.4997559 0 -0.8657227
vn 0.5 0 -0.8657227
vn 0.5 0 -0.8657227
vn 0.5 0 -0.8657227
vn 0.5 0 -0.8657227
vn 0.4997559 0 -0.8657227
vn 0.4997559 0 -0.8657227
vn 0.4997559 0 -0.8657227
vn 0.4997559 0 -0.8657227

vt 0.5639648 0.4592285
vt 0.503418 0.4592285
vt 0.503418 0.4594727
vt 0.5639648 0.4594727
vt 0.5639648 0.4443359
vt 0.503418 0.4443359
vt 0.503418 0.4445801
vt 0.5639648 0.4445801
vt 0.5639648 0.4592285
vt 0.503418 0.4592285
vt 0.503418 0.4594727
vt 0.5639648 0.4594727
vt 0.5639648 0.4443359
vt 0.503418 0.4443359
vt 0.503418 0.4445801
vt 0.5639648 0.4445801

g Box027_642_31
usemtl Box027_642_31
usemap Box027_642_31
f 1/1/1 3/3/3 2/2/2
f 1/1/1 4/4/4 3/3/3
f 5/5/5 7/7/7 6/6/6
f 5/5/5 8/8/8 7/7/7
f 9/9/9 11/11/11 10/10/10
f 9/9/9 12/12/12 11/11/11
f 13/13/13 15/15/15 14/14/14
f 13/13/13 16/16/16 15/15/15
