#Box159_711_1.obj

v -0.04600221 -0.1349917 0.1181309
v -0.06858248 0.1231057 0.1181518
v 0.06729004 0.1349936 0.1181479
v 0.08987337 -0.1231051 0.118127
v -0.04600384 -0.1349922 1.705353E-05
v -0.04600221 -0.1349917 0.1181309
v 0.08987337 -0.1231051 0.118127
v 0.08987239 -0.1231041 1.311342E-05
v 0.08987239 -0.1231041 1.311342E-05
v 0.08987337 -0.1231051 0.118127
v 0.06729004 0.1349936 0.1181479
v 0.06729212 0.1349933 -7.246384E-05
v 0.06729212 0.1349933 -7.246384E-05
v 0.06729004 0.1349936 0.1181479
v -0.06858248 0.1231057 0.1181518
v -0.06858411 0.1231052 -6.852373E-05
v -0.06858411 0.1231052 -6.852373E-05
v -0.06858248 0.1231057 0.1181518
v -0.04600221 -0.1349917 0.1181309
v -0.04600384 -0.1349922 1.705353E-05
v -0.06819861 0.1432702 0.1181452
v -0.06819771 0.4023536 0.1181658
v 0.06819773 0.402354 0.1181658
v 0.06819616 0.1432691 0.1181452
v -0.06819653 0.1432699 -7.520971E-05
v -0.06819861 0.1432702 0.1181452
v 0.06819616 0.1432691 0.1181452
v 0.06819519 0.1432701 -7.520815E-05
v 0.06819519 0.1432701 -7.520815E-05
v 0.06819616 0.1432691 0.1181452
v 0.06819773 0.402354 0.1181658
v 0.0681961 0.4023534 -5.460723E-05
v 0.0681961 0.4023534 -5.460723E-05
v 0.06819773 0.402354 0.1181658
v -0.06819771 0.4023536 0.1181658
v -0.06819869 0.4023546 -5.460923E-05
v -0.06819869 0.4023546 -5.460923E-05
v -0.06819771 0.4023536 0.1181658
v -0.06819861 0.1432702 0.1181452
v -0.06819653 0.1432699 -7.520971E-05
v -0.06243445 0.1157471 0.2361616
v -0.0624366 0.3748318 0.2361822
v 0.07395884 0.3748322 0.2361822
v 0.07395793 0.1157488 0.2361616
v -0.06243542 0.1157481 0.1179413
v -0.06243445 0.1157471 0.2361616
v 0.07395793 0.1157488 0.2361616
v 0.07395936 0.115747 0.1179413
v 0.07395936 0.115747 0.1179413
v 0.07395793 0.1157488 0.2361616
v 0.07395884 0.3748322 0.2361822
v 0.07396027 0.3748303 0.1179619
v 0.07396027 0.3748303 0.1179619
v 0.07395884 0.3748322 0.2361822
v -0.0624366 0.3748318 0.2361822
v -0.06243451 0.3748315 0.1179619
v -0.06243451 0.3748315 0.1179619
v -0.0624366 0.3748318 0.2361822
v -0.06243445 0.1157471 0.2361616
v -0.06243542 0.1157481 0.1179413
v -0.06819663 -0.1888469 0.2361561
v -0.06819879 0.0702378 0.2361767
v 0.068196 0.07023665 0.2361767
v 0.06819509 -0.1888467 0.2361561
v -0.06819826 -0.1888474 0.1179358
v -0.06819663 -0.1888469 0.2361561
v 0.06819509 -0.1888467 0.2361561
v 0.06819718 -0.188847 0.1179358
v 0.06819718 -0.188847 0.1179358
v 0.06819509 -0.1888467 0.2361561
v 0.068196 0.07023665 0.2361767
v 0.06819502 0.07023766 0.1179564
v 0.06819502 0.07023766 0.1179564
v 0.068196 0.07023665 0.2361767
v -0.06819879 0.0702378 0.2361767
v -0.0681967 0.0702375 0.1179564
v -0.0681967 0.0702375 0.1179564
v -0.06819879 0.0702378 0.2361767
v -0.06819663 -0.1888469 0.2361561
v -0.06819826 -0.1888474 0.1179358
v -0.06819675 -0.4023533 0.1181131
v -0.06819825 -0.1432671 0.1181336
v 0.06819654 -0.1432682 0.1181337
v 0.06819563 -0.4023516 0.1181131
v -0.06819773 -0.4023523 -8.033572E-07
v -0.06819675 -0.4023533 0.1181131
v 0.06819563 -0.4023516 0.1181131
v 0.06819771 -0.4023519 -8.018703E-07
v 0.06819771 -0.4023519 -8.018703E-07
v 0.06819563 -0.4023516 0.1181131
v 0.06819654 -0.1432682 0.1181337
v 0.06819555 -0.1432672 1.979862E-05
v 0.06819555 -0.1432672 1.979862E-05
v 0.06819654 -0.1432682 0.1181337
v -0.06819825 -0.1432671 0.1181336
v -0.06819682 -0.1432689 1.979756E-05
v -0.06819682 -0.1432689 1.979756E-05
v -0.06819825 -0.1432671 0.1181336
v -0.06819675 -0.4023533 0.1181131
v -0.06819773 -0.4023523 -8.033572E-07
v -0.1190015 -1.096849 0.2010976
v -0.1190024 -0.6447558 0.2011607
v 0.1189997 -0.644755 0.2011607
v 0.119 -1.09685 0.2010976
v -0.1190012 -1.096849 -0.005095772
v -0.1190015 -1.096849 0.2010976
v 0.119 -1.09685 0.2010976
v 0.1190003 -1.09685 -0.005095769
v 0.1190003 -1.09685 -0.005095769
v 0.119 -1.09685 0.2010976
v 0.1189997 -0.644755 0.2011607
v 0.1189999 -0.6447548 -0.005139165
v 0.1189999 -0.6447548 -0.005139165
v 0.1189997 -0.644755 0.2011607
v -0.1190024 -0.6447558 0.2011607
v -0.1190022 -0.6447556 -0.005139167
v -0.1190022 -0.6447556 -0.005139167
v -0.1190024 -0.6447558 0.2011607
v -0.1190015 -1.096849 0.2010976
v -0.1190012 -1.096849 -0.005095772
v -0.06819733 -1.590602 0.1181875
v -0.06819883 -1.331516 0.1182081
v 0.06819595 -1.331517 0.1182081
v 0.06819569 -1.590599 0.1181875
v -0.06819831 -1.590601 -3.283661E-05
v -0.06819733 -1.590602 0.1181875
v 0.06819569 -1.590599 0.1181875
v 0.06819648 -1.590602 -3.283462E-05
v 0.06819648 -1.590602 -3.283462E-05
v 0.06819569 -1.590599 0.1181875
v 0.06819595 -1.331517 0.1182081
v 0.06819497 -1.331516 -1.223464E-05
v 0.06819497 -1.331516 -1.223464E-05
v 0.06819595 -1.331517 0.1182081
v -0.06819883 -1.331516 0.1182081
v -0.06819674 -1.331516 -1.223621E-05
v -0.06819674 -1.331516 -1.223621E-05
v -0.06819883 -1.331516 0.1182081
v -0.06819733 -1.590602 0.1181875
v -0.06819831 -1.590601 -3.283661E-05
v -0.03209982 -2.022545 0.1181177
v -0.03209798 -1.865016 0.118172
v 0.1042937 -1.865016 0.118172
v 0.104295 -2.022546 0.1181177
v -0.03209773 -2.022545 3.877942E-06
v -0.03209982 -2.022545 0.1181177
v 0.104295 -2.022546 0.1181177
v 0.104294 -2.022545 3.879504E-06
v 0.104294 -2.022545 3.879504E-06
v 0.104295 -2.022546 0.1181177
v 0.1042937 -1.865016 0.118172
v 0.1042958 -1.865016 -4.835213E-05
v 0.1042958 -1.865016 -4.835213E-05
v 0.1042937 -1.865016 0.118172
v -0.03209798 -1.865016 0.118172
v -0.03209896 -1.865015 -4.835413E-05
v -0.03209896 -1.865015 -4.835413E-05
v -0.03209798 -1.865016 0.118172
v -0.03209982 -2.022545 0.1181177
v -0.03209773 -2.022545 3.877942E-06
v -0.03103033 -1.865015 0.1159354
v -0.03103217 -2.022544 0.1159876
v -0.005040035 -2.022545 0.1632758
v -0.005041257 -1.865015 0.1632235
v 0.02862459 -1.865016 0.1980506
v 0.02862582 -2.022546 0.1981029
v 0.02862582 -2.022546 0.1981029
v 0.04761981 -2.022545 0.1935232
v 0.04761859 -1.865015 0.1935774
v 0.02862459 -1.865016 0.1980506
v -0.006179361 -2.022545 0.1640213
v -0.03225933 -2.022546 0.1166267
v -0.03225749 -1.865017 0.1166809
v -0.006177521 -1.865016 0.1640756
v 0.02817271 -1.865015 0.1996482
v 0.02817393 -2.022545 0.1995939
v 0.04794374 -1.865016 0.194962
v 0.04794496 -2.022546 0.1949077
v 0.02817393 -2.022545 0.1995939
v 0.02817271 -1.865015 0.1996482
v -0.005041257 -1.865015 0.1632235
v -0.006177521 -1.865016 0.1640756
v -0.03225749 -1.865017 0.1166809
v -0.03103033 -1.865015 0.1159354
v 0.02862459 -1.865016 0.1980506
v 0.02817271 -1.865015 0.1996482
v 0.04761859 -1.865015 0.1935774
v 0.04794374 -1.865016 0.194962
v -0.03103217 -2.022544 0.1159876
v -0.03225933 -2.022546 0.1166267
v -0.006179361 -2.022545 0.1640213
v -0.005040035 -2.022545 0.1632758
v 0.02817393 -2.022545 0.1995939
v 0.02862582 -2.022546 0.1981029
v 0.04794496 -2.022546 0.1949077
v 0.04761981 -2.022545 0.1935232
v 0.04761981 -2.022545 0.1935232
v 0.04794496 -2.022546 0.1949077
v 0.04794374 -1.865016 0.194962
v 0.04761859 -1.865015 0.1935774
v -0.03210099 -2.2929 0.1182074
v -0.03209785 -2.135368 0.1181551
v 0.1042939 -2.135368 0.1181551
v 0.1042951 -2.292898 0.1182074
v -0.03209891 -2.292901 -1.29854E-05
v -0.03210099 -2.2929 0.1182074
v 0.1042951 -2.292898 0.1182074
v 0.1042959 -2.292902 -1.29834E-05
v 0.1042959 -2.292902 -1.29834E-05
v 0.1042951 -2.292898 0.1182074
v 0.1042939 -2.135368 0.1181551
v 0.104296 -2.135369 -6.521648E-05
v 0.104296 -2.135369 -6.521648E-05
v 0.1042939 -2.135368 0.1181551
v -0.03209785 -2.135368 0.1181551
v -0.03209883 -2.135367 -6.521848E-05
v -0.03209883 -2.135367 -6.521848E-05
v -0.03209785 -2.135368 0.1181551
v -0.03210099 -2.2929 0.1182074
v -0.03209891 -2.292901 -1.29854E-05

vn 0.0001298189 0.9999999 0.0003050566
vn 0.0001298189 0.9999999 0.0003050566
vn 0.0001298189 0.9999999 0.0003050566
vn 0.0001298189 0.9999999 0.0003050566
vn 0.4702418 -0.0003302608 0.8825376
vn 0.4702418 -0.0003302608 0.8825376
vn 0.4702418 -0.0003302608 0.8825376
vn 0.4702418 -0.0003302608 0.8825376
vn 0.8825375 2.887913E-05 -0.470242
vn 0.8825375 2.887913E-05 -0.470242
vn 0.8825375 2.887913E-05 -0.470242
vn 0.8825375 2.887913E-05 -0.470242
vn -0.4702418 0.0003302608 -0.8825376
vn -0.4702418 0.0003302608 -0.8825376
vn -0.4702418 0.0003302608 -0.8825376
vn -0.4702418 0.0003302608 -0.8825376
vn -0.8825376 -2.887912E-05 0.4702419
vn -0.8825376 -2.887912E-05 0.4702419
vn -0.8825376 -2.887912E-05 0.4702419
vn -0.8825376 -2.887912E-05 0.4702419
vn 0.0001298189 0.9999999 0.0003050566
vn 0.0001298189 0.9999999 0.0003050566
vn 0.0001298189 0.9999999 0.0003050566
vn 0.0001298189 0.9999999 0.0003050566
vn 0.3915343 -0.0003315211 0.9201635
vn 0.3915343 -0.0003315211 0.9201635
vn 0.3915343 -0.0003315211 0.9201635
vn 0.3915343 -0.0003315211 0.9201635
vn 0.9201635 -1.490116E-08 -0.3915343
vn 0.9201635 -1.490116E-08 -0.3915343
vn 0.9201635 -1.490116E-08 -0.3915343
vn 0.9201635 -1.490116E-08 -0.3915343
vn -0.3915343 0.0003315211 -0.9201635
vn -0.3915343 0.0003315211 -0.9201635
vn -0.3915343 0.0003315211 -0.9201635
vn -0.3915343 0.0003315211 -0.9201635
vn -0.9201635 1.490116E-08 0.3915343
vn -0.9201635 1.490116E-08 0.3915343
vn -0.9201635 1.490116E-08 0.3915343
vn -0.9201635 1.490116E-08 0.3915343
vn 0.0001298189 0.9999999 0.0003050566
vn 0.0001298189 0.9999999 0.0003050566
vn 0.0001298189 0.9999999 0.0003050566
vn 0.0001298189 0.9999999 0.0003050566
vn 0.3915343 -0.0003315211 0.9201635
vn 0.3915343 -0.0003315211 0.9201635
vn 0.3915343 -0.0003315211 0.9201635
vn 0.3915343 -0.0003315211 0.9201635
vn 0.9201635 -1.490116E-08 -0.3915343
vn 0.9201635 -1.490116E-08 -0.3915343
vn 0.9201635 -1.490116E-08 -0.3915343
vn 0.9201635 -1.490116E-08 -0.3915343
vn -0.3915343 0.0003315211 -0.9201635
vn -0.3915343 0.0003315211 -0.9201635
vn -0.3915343 0.0003315211 -0.9201635
vn -0.3915343 0.0003315211 -0.9201635
vn -0.9201635 1.490116E-08 0.3915343
vn -0.9201635 1.490116E-08 0.3915343
vn -0.9201635 1.490116E-08 0.3915343
vn -0.9201635 1.490116E-08 0.3915343
vn 0.0001298189 0.9999999 0.0003050566
vn 0.0001298189 0.9999999 0.0003050566
vn 0.0001298189 0.9999999 0.0003050566
vn 0.0001298189 0.9999999 0.0003050566
vn 0.3915343 -0.0003315211 0.9201635
vn 0.3915343 -0.0003315211 0.9201635
vn 0.3915343 -0.0003315211 0.9201635
vn 0.3915343 -0.0003315211 0.9201635
vn 0.9201635 -1.490116E-08 -0.3915343
vn 0.9201635 -1.490116E-08 -0.3915343
vn 0.9201635 -1.490116E-08 -0.3915343
vn 0.9201635 -1.490116E-08 -0.3915343
vn -0.3915343 0.0003315211 -0.9201635
vn -0.3915343 0.0003315211 -0.9201635
vn -0.3915343 0.0003315211 -0.9201635
vn -0.3915343 0.0003315211 -0.9201635
vn -0.9201635 1.490116E-08 0.3915343
vn -0.9201635 1.490116E-08 0.3915343
vn -0.9201635 1.490116E-08 0.3915343
vn -0.9201635 1.490116E-08 0.3915343
vn 0.0001298189 0.9999999 0.0003050566
vn 0.0001298189 0.9999999 0.0003050566
vn 0.0001298189 0.9999999 0.0003050566
vn 0.0001298189 0.9999999 0.0003050566
vn 0.3915343 -0.0003315211 0.9201635
vn 0.3915343 -0.0003315211 0.9201635
vn 0.3915343 -0.0003315211 0.9201635
vn 0.3915343 -0.0003315211 0.9201635
vn 0.9201635 -1.490116E-08 -0.3915343
vn 0.9201635 -1.490116E-08 -0.3915343
vn 0.9201635 -1.490116E-08 -0.3915343
vn 0.9201635 -1.490116E-08 -0.3915343
vn -0.3915343 0.0003315211 -0.9201635
vn -0.3915343 0.0003315211 -0.9201635
vn -0.3915343 0.0003315211 -0.9201635
vn -0.3915343 0.0003315211 -0.9201635
vn -0.9201635 1.490116E-08 0.3915343
vn -0.9201635 1.490116E-08 0.3915343
vn -0.9201635 1.490116E-08 0.3915343
vn -0.9201635 1.490116E-08 0.3915343
vn 0.0001298189 0.9999999 0.0003050566
vn 0.0001298189 0.9999999 0.0003050566
vn 0.0001298189 0.9999999 0.0003050566
vn 0.0001298189 0.9999999 0.0003050566
vn 0.3915343 -0.0003315211 0.9201635
vn 0.3915343 -0.0003315211 0.9201635
vn 0.3915343 -0.0003315211 0.9201635
vn 0.3915343 -0.0003315211 0.9201635
vn 0.9201635 -1.490116E-08 -0.3915343
vn 0.9201635 -1.490116E-08 -0.3915343
vn 0.9201635 -1.490116E-08 -0.3915343
vn 0.9201635 -1.490116E-08 -0.3915343
vn -0.3915343 0.0003315211 -0.9201635
vn -0.3915343 0.0003315211 -0.9201635
vn -0.3915343 0.0003315211 -0.9201635
vn -0.3915343 0.0003315211 -0.9201635
vn -0.9201635 1.490116E-08 0.3915343
vn -0.9201635 1.490116E-08 0.3915343
vn -0.9201635 1.490116E-08 0.3915343
vn -0.9201635 1.490116E-08 0.3915343
vn 0.0001298189 0.9999999 0.0003050566
vn 0.0001298189 0.9999999 0.0003050566
vn 0.0001298189 0.9999999 0.0003050566
vn 0.0001298189 0.9999999 0.0003050566
vn 0.3915343 -0.0003315211 0.9201635
vn 0.3915343 -0.0003315211 0.9201635
vn 0.3915343 -0.0003315211 0.9201635
vn 0.3915343 -0.0003315211 0.9201635
vn 0.9201635 -1.490116E-08 -0.3915343
vn 0.9201635 -1.490116E-08 -0.3915343
vn 0.9201635 -1.490116E-08 -0.3915343
vn 0.9201635 -1.490116E-08 -0.3915343
vn -0.3915343 0.0003315211 -0.9201635
vn -0.3915343 0.0003315211 -0.9201635
vn -0.3915343 0.0003315211 -0.9201635
vn -0.3915343 0.0003315211 -0.9201635
vn -0.9201635 1.490116E-08 0.3915343
vn -0.9201635 1.490116E-08 0.3915343
vn -0.9201635 1.490116E-08 0.3915343
vn -0.9201635 1.490116E-08 0.3915343
vn 0.0001298189 0.9999999 0.0003050566
vn 0.0001298189 0.9999999 0.0003050566
vn 0.0001298189 0.9999999 0.0003050566
vn 0.0001298189 0.9999999 0.0003050566
vn 0.3915343 -0.0003315211 0.9201635
vn 0.3915343 -0.0003315211 0.9201635
vn 0.3915343 -0.0003315211 0.9201635
vn 0.3915343 -0.0003315211 0.9201635
vn 0.9201635 -1.490116E-08 -0.3915343
vn 0.9201635 -1.490116E-08 -0.3915343
vn 0.9201635 -1.490116E-08 -0.3915343
vn 0.9201635 -1.490116E-08 -0.3915343
vn -0.3915343 0.0003315211 -0.9201635
vn -0.3915343 0.0003315211 -0.9201635
vn -0.3915343 0.0003315211 -0.9201635
vn -0.3915343 0.0003315211 -0.9201635
vn -0.9201635 1.490116E-08 0.3915343
vn -0.9201635 1.490116E-08 0.3915343
vn -0.9201635 1.490116E-08 0.3915343
vn -0.9201635 1.490116E-08 0.3915343
vn 0.8062217 -0.4818746 -0.3432251
vn 0.8062217 -0.4818746 -0.3432251
vn 0.7405356 -0.5934501 -0.3153156
vn 0.7405356 -0.5934501 -0.3153156
vn 0.6618584 -0.6946151 -0.2818744
vn 0.6618584 -0.6946151 -0.2818744
vn -0.2133739 -0.9727753 0.09044123
vn -0.2133739 -0.9727753 0.09044123
vn -0.2133739 -0.9727753 0.09044123
vn -0.2133739 -0.9727753 0.09044123
vn -0.7405357 0.5934501 0.3153156
vn -0.8062218 0.4818743 0.3432252
vn -0.8062218 0.4818743 0.3432252
vn -0.7405357 0.5934501 0.3153156
vn -0.6618584 0.6946151 0.2818744
vn -0.6618584 0.6946151 0.2818744
vn 0.2133736 0.9727755 -0.09044107
vn 0.2133736 0.9727755 -0.09044107
vn 0.2133736 0.9727755 -0.09044107
vn 0.2133736 0.9727755 -0.09044107
vn -0.3915343 0.0003315211 -0.9201635
vn -0.3915343 0.0003315211 -0.9201635
vn -0.3915343 0.0003315211 -0.9201635
vn -0.3915343 0.0003315211 -0.9201635
vn -0.3915343 0.0003315211 -0.9201635
vn -0.3915343 0.0003315211 -0.9201635
vn -0.3915343 0.0003315211 -0.9201635
vn -0.3915343 0.0003315211 -0.9201635
vn 0.3915343 -0.0003315211 0.9201635
vn 0.3915343 -0.0003315211 0.9201635
vn 0.3915343 -0.0003315211 0.9201635
vn 0.3915343 -0.0003315211 0.9201635
vn 0.3915343 -0.0003315211 0.9201635
vn 0.3915343 -0.0003315211 0.9201635
vn 0.3915343 -0.0003315211 0.9201635
vn 0.3915343 -0.0003315211 0.9201635
vn 0.8950824 -0.2317498 -0.3809457
vn 0.8950824 -0.2317498 -0.3809457
vn 0.8950824 -0.2317498 -0.3809457
vn 0.8950824 -0.2317498 -0.3809457
vn 0.0001298189 0.9999999 0.0003050566
vn 0.0001298189 0.9999999 0.0003050566
vn 0.0001298189 0.9999999 0.0003050566
vn 0.0001298189 0.9999999 0.0003050566
vn 0.3915343 -0.0003315211 0.9201635
vn 0.3915343 -0.0003315211 0.9201635
vn 0.3915343 -0.0003315211 0.9201635
vn 0.3915343 -0.0003315211 0.9201635
vn 0.9201635 -1.490116E-08 -0.3915343
vn 0.9201635 -1.490116E-08 -0.3915343
vn 0.9201635 -1.490116E-08 -0.3915343
vn 0.9201635 -1.490116E-08 -0.3915343
vn -0.3915343 0.0003315211 -0.9201635
vn -0.3915343 0.0003315211 -0.9201635
vn -0.3915343 0.0003315211 -0.9201635
vn -0.3915343 0.0003315211 -0.9201635
vn -0.9201635 1.490116E-08 0.3915343
vn -0.9201635 1.490116E-08 0.3915343
vn -0.9201635 1.490116E-08 0.3915343
vn -0.9201635 1.490116E-08 0.3915343

vt 0.2744551 0.9965576
vt 0.7284741 0.9965577
vt 0.7284743 0.736495
vt 0.2744552 0.736495
vt 0.272052 0.7315817
vt 0.272052 0.9965931
vt 0.7320969 0.9965931
vt 0.7320969 0.7315817
vt 0.272052 0.7315817
vt 0.272052 0.9965931
vt 0.7320969 0.9965931
vt 0.7320969 0.7315817
vt 0.272052 0.7315817
vt 0.272052 0.9965931
vt 0.7320969 0.9965931
vt 0.7320969 0.7315817
vt 0.272052 0.7315817
vt 0.272052 0.9965931
vt 0.7320969 0.9965931
vt 0.7320969 0.7315817
vt 0.2744551 0.9965576
vt 0.7284741 0.9965577
vt 0.7284743 0.736495
vt 0.2744552 0.736495
vt 0.272052 0.7315817
vt 0.272052 0.9965931
vt 0.7320969 0.9965931
vt 0.7320969 0.7315817
vt 0.272052 0.7315817
vt 0.272052 0.9965931
vt 0.7320969 0.9965931
vt 0.7320969 0.7315817
vt 0.272052 0.7315817
vt 0.272052 0.9965931
vt 0.7320969 0.9965931
vt 0.7320969 0.7315817
vt 0.272052 0.7315817
vt 0.272052 0.9965931
vt 0.7320969 0.9965931
vt 0.7320969 0.7315817
vt 0.2744551 0.9965576
vt 0.7284741 0.9965577
vt 0.7284743 0.736495
vt 0.2744552 0.736495
vt 0.272052 0.7315817
vt 0.272052 0.9965931
vt 0.7320969 0.9965931
vt 0.7320969 0.7315817
vt 0.272052 0.7315817
vt 0.272052 0.9965931
vt 0.7320969 0.9965931
vt 0.7320969 0.7315817
vt 0.272052 0.7315817
vt 0.272052 0.9965931
vt 0.7320969 0.9965931
vt 0.7320969 0.7315817
vt 0.272052 0.7315817
vt 0.272052 0.9965931
vt 0.7320969 0.9965931
vt 0.7320969 0.7315817
vt 0.2744551 0.9965576
vt 0.7284741 0.9965577
vt 0.7284743 0.736495
vt 0.2744552 0.736495
vt 0.272052 0.7315817
vt 0.272052 0.9965931
vt 0.7320969 0.9965931
vt 0.7320969 0.7315817
vt 0.272052 0.7315817
vt 0.272052 0.9965931
vt 0.7320969 0.9965931
vt 0.7320969 0.7315817
vt 0.272052 0.7315817
vt 0.272052 0.9965931
vt 0.7320969 0.9965931
vt 0.7320969 0.7315817
vt 0.272052 0.7315817
vt 0.272052 0.9965931
vt 0.7320969 0.9965931
vt 0.7320969 0.7315817
vt 0.2744551 0.9965576
vt 0.7284741 0.9965577
vt 0.7284743 0.736495
vt 0.2744552 0.736495
vt 0.272052 0.7315817
vt 0.272052 0.9965931
vt 0.7320969 0.9965931
vt 0.7320969 0.7315817
vt 0.272052 0.7315817
vt 0.272052 0.9965931
vt 0.7320969 0.9965931
vt 0.7320969 0.7315817
vt 0.272052 0.7315817
vt 0.272052 0.9965931
vt 0.7320969 0.9965931
vt 0.7320969 0.7315817
vt 0.272052 0.7315817
vt 0.272052 0.9965931
vt 0.7320969 0.9965931
vt 0.7320969 0.7315817
vt 0.9839258 0.5124164
vt 0.9839258 0.008037224
vt 0.6242143 0.008037142
vt 0.6242142 0.5124163
vt 0.6228747 0.5191139
vt 0.9933024 0.519114
vt 0.9933024 0.01205579
vt 0.6228747 0.01205571
vt 0.6228747 0.5191139
vt 0.9933024 0.519114
vt 0.9933024 0.01205579
vt 0.6228747 0.01205571
vt 0.6228747 0.5191139
vt 0.9933024 0.519114
vt 0.9933024 0.01205579
vt 0.6228747 0.01205571
vt 0.6228747 0.5191139
vt 0.9933024 0.519114
vt 0.9933024 0.01205579
vt 0.6228747 0.01205571
vt 0.2744551 0.9965576
vt 0.7284741 0.9965577
vt 0.7284743 0.736495
vt 0.2744552 0.736495
vt 0.272052 0.7315817
vt 0.272052 0.9965931
vt 0.7320969 0.9965931
vt 0.7320969 0.7315817
vt 0.272052 0.7315817
vt 0.272052 0.9965931
vt 0.7320969 0.9965931
vt 0.7320969 0.7315817
vt 0.272052 0.7315817
vt 0.272052 0.9965931
vt 0.7320969 0.9965931
vt 0.7320969 0.7315817
vt 0.272052 0.7315817
vt 0.272052 0.9965931
vt 0.7320969 0.9965931
vt 0.7320969 0.7315817
vt 0.002231017 0.7321999
vt 0.002231017 0.996276
vt 0.2743946 0.996276
vt 0.2743946 0.7321999
vt 0.03183265 0.4640754
vt 0.03183265 0.7266642
vt 0.4623517 0.7266642
vt 0.4623517 0.4640754
vt 0.2720892 0.7641938
vt 0.2720892 0.9934698
vt 0.7295852 0.9934698
vt 0.7295852 0.7641938
vt 0.03183265 0.4640754
vt 0.03183265 0.7266642
vt 0.4623517 0.7266642
vt 0.4623517 0.4640754
vt 0.03183265 0.4640754
vt 0.03183265 0.7266642
vt 0.4623517 0.7266642
vt 0.4623517 0.4640754
vt 0.4623517 0.4640754
vt 0.03183265 0.4640754
vt 0.03183265 0.5953698
vt 0.4623517 0.5953698
vt 0.4623517 0.7266642
vt 0.03183265 0.7266642
vt 0.03183265 0.7266642
vt 0.03183265 0.7266642
vt 0.4623517 0.7266642
vt 0.4623517 0.7266642
vt 0.03183265 0.5953698
vt 0.03183265 0.4640754
vt 0.4623517 0.4640754
vt 0.4623517 0.5953698
vt 0.4623517 0.7266642
vt 0.03183265 0.7266642
vt 0.4623517 0.7266642
vt 0.03183265 0.7266642
vt 0.03183265 0.7266642
vt 0.4623517 0.7266642
vt 0.4623517 0.5953698
vt 0.4623517 0.5953698
vt 0.4623517 0.4640754
vt 0.4623517 0.4640754
vt 0.4623517 0.7266642
vt 0.4623517 0.7266642
vt 0.4623517 0.7266642
vt 0.4623517 0.7266642
vt 0.03183265 0.4640754
vt 0.03183265 0.4640754
vt 0.03183265 0.5953698
vt 0.03183265 0.5953698
vt 0.03183265 0.7266642
vt 0.03183265 0.7266642
vt 0.03183265 0.7266642
vt 0.03183265 0.7266642
vt 0.03183265 0.7266642
vt 0.03183265 0.7266642
vt 0.4623517 0.7266642
vt 0.4623517 0.7266642
vt 0.4855008 1.002759
vt 0.7276276 1.002759
vt 0.7276276 0.730595
vt 0.4855008 0.7305949
vt 0.03183265 0.4640754
vt 0.03183265 0.7266642
vt 0.4623517 0.7266642
vt 0.4623517 0.4640754
vt 0.2720892 0.7641938
vt 0.2720892 0.9934698
vt 0.7295852 0.9934698
vt 0.7295852 0.7641938
vt 0.03183265 0.4640754
vt 0.03183265 0.7266642
vt 0.4623517 0.7266642
vt 0.4623517 0.4640754
vt 0.03183265 0.4640754
vt 0.03183265 0.7266642
vt 0.4623517 0.7266642
vt 0.4623517 0.4640754

g Box159_711_1
usemtl Box159_711_1
usemap Box159_711_1
f 1/1/1 3/3/3 2/2/2
f 1/1/1 4/4/4 3/3/3
f 5/5/5 7/7/7 6/6/6
f 5/5/5 8/8/8 7/7/7
f 9/9/9 11/11/11 10/10/10
f 9/9/9 12/12/12 11/11/11
f 13/13/13 15/15/15 14/14/14
f 13/13/13 16/16/16 15/15/15
f 17/17/17 19/19/19 18/18/18
f 17/17/17 20/20/20 19/19/19
f 21/21/21 23/23/23 22/22/22
f 21/21/21 24/24/24 23/23/23
f 25/25/25 27/27/27 26/26/26
f 25/25/25 28/28/28 27/27/27
f 29/29/29 31/31/31 30/30/30
f 29/29/29 32/32/32 31/31/31
f 33/33/33 35/35/35 34/34/34
f 33/33/33 36/36/36 35/35/35
f 37/37/37 39/39/39 38/38/38
f 37/37/37 40/40/40 39/39/39
f 41/41/41 43/43/43 42/42/42
f 41/41/41 44/44/44 43/43/43
f 45/45/45 47/47/47 46/46/46
f 45/45/45 48/48/48 47/47/47
f 49/49/49 51/51/51 50/50/50
f 49/49/49 52/52/52 51/51/51
f 53/53/53 55/55/55 54/54/54
f 53/53/53 56/56/56 55/55/55
f 57/57/57 59/59/59 58/58/58
f 57/57/57 60/60/60 59/59/59
f 61/61/61 63/63/63 62/62/62
f 61/61/61 64/64/64 63/63/63
f 65/65/65 67/67/67 66/66/66
f 65/65/65 68/68/68 67/67/67
f 69/69/69 71/71/71 70/70/70
f 69/69/69 72/72/72 71/71/71
f 73/73/73 75/75/75 74/74/74
f 73/73/73 76/76/76 75/75/75
f 77/77/77 79/79/79 78/78/78
f 77/77/77 80/80/80 79/79/79
f 81/81/81 83/83/83 82/82/82
f 81/81/81 84/84/84 83/83/83
f 85/85/85 87/87/87 86/86/86
f 85/85/85 88/88/88 87/87/87
f 89/89/89 91/91/91 90/90/90
f 89/89/89 92/92/92 91/91/91
f 93/93/93 95/95/95 94/94/94
f 93/93/93 96/96/96 95/95/95
f 97/97/97 99/99/99 98/98/98
f 97/97/97 100/100/100 99/99/99
f 101/101/101 103/103/103 102/102/102
f 101/101/101 104/104/104 103/103/103
f 105/105/105 107/107/107 106/106/106
f 105/105/105 108/108/108 107/107/107
f 109/109/109 111/111/111 110/110/110
f 109/109/109 112/112/112 111/111/111
f 113/113/113 115/115/115 114/114/114
f 113/113/113 116/116/116 115/115/115
f 117/117/117 119/119/119 118/118/118
f 117/117/117 120/120/120 119/119/119
f 121/121/121 123/123/123 122/122/122
f 121/121/121 124/124/124 123/123/123
f 125/125/125 127/127/127 126/126/126
f 125/125/125 128/128/128 127/127/127
f 129/129/129 131/131/131 130/130/130
f 129/129/129 132/132/132 131/131/131
f 133/133/133 135/135/135 134/134/134
f 133/133/133 136/136/136 135/135/135
f 137/137/137 139/139/139 138/138/138
f 137/137/137 140/140/140 139/139/139
f 141/141/141 143/143/143 142/142/142
f 141/141/141 144/144/144 143/143/143
f 145/145/145 147/147/147 146/146/146
f 145/145/145 148/148/148 147/147/147
f 149/149/149 151/151/151 150/150/150
f 149/149/149 152/152/152 151/151/151
f 153/153/153 155/155/155 154/154/154
f 153/153/153 156/156/156 155/155/155
f 157/157/157 159/159/159 158/158/158
f 157/157/157 160/160/160 159/159/159
f 161/161/161 163/163/163 162/162/162
f 161/161/161 164/164/164 163/163/163
f 165/165/165 163/163/163 164/164/164
f 165/165/165 166/166/166 163/163/163
f 167/167/167 169/169/169 168/168/168
f 167/167/167 170/170/170 169/169/169
f 171/171/171 173/173/173 172/172/172
f 171/171/171 174/174/174 173/173/173
f 171/171/171 175/175/175 174/174/174
f 171/171/171 176/176/176 175/175/175
f 177/177/177 179/179/179 178/178/178
f 177/177/177 180/180/180 179/179/179
f 181/181/181 183/183/183 182/182/182
f 181/181/181 184/184/184 183/183/183
f 185/185/185 181/181/181 182/182/182
f 185/185/185 182/182/182 186/186/186
f 187/187/187 185/185/185 186/186/186
f 187/187/187 186/186/186 188/188/188
f 189/189/189 191/191/191 190/190/190
f 189/189/189 192/192/192 191/191/191
f 192/192/192 193/193/193 191/191/191
f 192/192/192 194/194/194 193/193/193
f 194/194/194 195/195/195 193/193/193
f 194/194/194 196/196/196 195/195/195
f 197/197/197 199/199/199 198/198/198
f 197/197/197 200/200/200 199/199/199
f 201/201/201 203/203/203 202/202/202
f 201/201/201 204/204/204 203/203/203
f 205/205/205 207/207/207 206/206/206
f 205/205/205 208/208/208 207/207/207
f 209/209/209 211/211/211 210/210/210
f 209/209/209 212/212/212 211/211/211
f 213/213/213 215/215/215 214/214/214
f 213/213/213 216/216/216 215/215/215
f 217/217/217 219/219/219 218/218/218
f 217/217/217 220/220/220 219/219/219
