#Box197_675_10.obj

v -0.0460034 -0.1349937 0.1181781
v -0.06858355 0.1231045 0.118199
v 0.06729086 0.1349919 0.1181951
v 0.08987243 -0.1231054 0.1181742
v -0.04600281 -0.1349932 6.432961E-05
v -0.0460034 -0.1349937 0.1181781
v 0.08987243 -0.1231054 0.1181742
v 0.0898716 -0.1231058 6.038747E-05
v 0.0898716 -0.1231058 6.038747E-05
v 0.08987243 -0.1231054 0.1181742
v 0.06729086 0.1349919 0.1181951
v 0.06729145 0.1349924 -2.522199E-05
v 0.06729145 0.1349924 -2.522199E-05
v 0.06729086 0.1349919 0.1181951
v -0.06858355 0.1231045 0.118199
v -0.06858297 0.123105 -2.127985E-05
v -0.06858297 0.123105 -2.127985E-05
v -0.06858355 0.1231045 0.118199
v -0.0460034 -0.1349937 0.1181781
v -0.04600281 -0.1349932 6.432961E-05
v -0.06819695 0.1432691 0.1181923
v -0.06819803 0.4023525 0.1182129
v 0.06819595 0.402353 0.1182129
v 0.06819561 0.1432687 0.1181923
v -0.06819777 0.1432687 -2.796802E-05
v -0.06819695 0.1432691 0.1181923
v 0.06819561 0.1432687 0.1181923
v 0.0681962 0.1432692 -2.796732E-05
v 0.0681962 0.1432692 -2.796732E-05
v 0.06819561 0.1432687 0.1181923
v 0.06819595 0.402353 0.1182129
v 0.06819697 0.4023528 -7.398712E-06
v 0.06819697 0.4023528 -7.398712E-06
v 0.06819595 0.402353 0.1182129
v -0.06819803 0.4023525 0.1182129
v -0.06819744 0.402353 -7.399644E-06
v -0.06819744 0.402353 -7.399644E-06
v -0.06819803 0.4023525 0.1182129
v -0.06819695 0.1432691 0.1181923
v -0.06819777 0.1432687 -2.796802E-05
v -0.06243467 0.1157466 0.2362088
v -0.06243433 0.3748309 0.2362293
v 0.07396008 0.3748306 0.2362293
v 0.07395931 0.115747 0.2362088
v -0.06243549 0.1157462 0.1179885
v -0.06243467 0.1157466 0.2362088
v 0.07395931 0.115747 0.2362088
v 0.07395893 0.1157459 0.1179885
v 0.07395893 0.1157459 0.1179885
v 0.07395931 0.115747 0.2362088
v 0.07396008 0.3748306 0.2362293
v 0.07395926 0.3748302 0.118009
v 0.07395926 0.3748302 0.118009
v 0.07396008 0.3748306 0.2362293
v -0.06243433 0.3748309 0.2362293
v -0.06243516 0.3748305 0.118009
v -0.06243516 0.3748305 0.118009
v -0.06243433 0.3748309 0.2362293
v -0.06243467 0.1157466 0.2362088
v -0.06243549 0.1157462 0.1179885
v -0.06819826 -0.1888479 0.2362033
v -0.06819793 0.0702364 0.2362239
v 0.06819648 0.07023612 0.2362239
v 0.06819615 -0.1888482 0.2362033
v -0.06819768 -0.1888474 0.117983
v -0.06819826 -0.1888479 0.2362033
v 0.06819615 -0.1888482 0.2362033
v 0.06819674 -0.1888477 0.117983
v 0.06819674 -0.1888477 0.117983
v 0.06819615 -0.1888482 0.2362033
v 0.06819648 0.07023612 0.2362239
v 0.06819566 0.07023572 0.1180036
v 0.06819566 0.07023572 0.1180036
v 0.06819648 0.07023612 0.2362239
v -0.06819793 0.0702364 0.2362239
v -0.0681969 0.07023618 0.1180036
v -0.0681969 0.07023618 0.1180036
v -0.06819793 0.0702364 0.2362239
v -0.06819826 -0.1888479 0.2362033
v -0.06819768 -0.1888474 0.117983
v -0.06819738 -0.4023531 0.1181603
v -0.06819705 -0.1432688 0.1181809
v 0.06819692 -0.1432684 0.1181809
v 0.06819659 -0.4023527 0.1181603
v -0.06819821 -0.4023535 4.650619E-05
v -0.06819738 -0.4023531 0.1181603
v 0.06819659 -0.4023527 0.1181603
v 0.06819577 -0.4023531 4.650689E-05
v 0.06819577 -0.4023531 4.650689E-05
v 0.06819659 -0.4023527 0.1181603
v 0.06819692 -0.1432684 0.1181809
v 0.06819654 -0.1432695 6.70755E-05
v 0.06819654 -0.1432695 6.70755E-05
v 0.06819692 -0.1432684 0.1181809
v -0.06819705 -0.1432688 0.1181809
v -0.06819788 -0.1432692 6.707456E-05
v -0.06819788 -0.1432692 6.707456E-05
v -0.06819705 -0.1432688 0.1181809
v -0.06819738 -0.4023531 0.1181603
v -0.06819821 -0.4023535 4.650619E-05
v -0.1190023 -1.09685 0.2011449
v -0.1190033 -0.6447564 0.201208
v 0.1190013 -0.6447562 0.201208
v 0.1190009 -1.096851 0.2011449
v -0.1190033 -1.096851 -0.005048373
v -0.1190023 -1.09685 0.2011449
v 0.1190009 -1.096851 0.2011449
v 0.1190013 -1.096851 -0.005048372
v 0.1190013 -1.096851 -0.005048372
v 0.1190009 -1.096851 0.2011449
v 0.1190013 -0.6447562 0.201208
v 0.1190012 -0.6447558 -0.005091824
v 0.1190012 -0.6447558 -0.005091824
v 0.1190013 -0.6447562 0.201208
v -0.1190033 -0.6447564 0.201208
v -0.1190029 -0.6447567 -0.005091825
v -0.1190029 -0.6447567 -0.005091825
v -0.1190033 -0.6447564 0.201208
v -0.1190023 -1.09685 0.2011449
v -0.1190033 -1.096851 -0.005048373
v -0.06819757 -1.590601 0.1182349
v -0.0681982 -1.331518 0.1182555
v 0.06819577 -1.331518 0.1182555
v 0.06819685 -1.590601 0.1182349
v -0.0681975 -1.590603 1.46208E-05
v -0.06819757 -1.590601 0.1182349
v 0.06819685 -1.590601 0.1182349
v 0.06819602 -1.590602 1.462127E-05
v 0.06819602 -1.590602 1.462127E-05
v 0.06819685 -1.590601 0.1182349
v 0.06819577 -1.331518 0.1182555
v 0.0681968 -1.331518 3.518988E-05
v 0.0681968 -1.331518 3.518988E-05
v 0.06819577 -1.331518 0.1182555
v -0.0681982 -1.331518 0.1182555
v -0.06819762 -1.331518 3.518895E-05
v -0.06819762 -1.331518 3.518895E-05
v -0.0681982 -1.331518 0.1182555
v -0.06819757 -1.590601 0.1182349
v -0.0681975 -1.590603 1.46208E-05
v -0.03209951 -2.022547 0.1181652
v -0.03209839 -1.865015 0.1182195
v 0.1042946 -1.865017 0.1182195
v 0.1042949 -2.022547 0.1181652
v -0.03209893 -2.022546 5.138883E-05
v -0.03209951 -2.022547 0.1181652
v 0.1042949 -2.022547 0.1181652
v 0.1042955 -2.022547 5.138976E-05
v 0.1042955 -2.022547 5.138976E-05
v 0.1042949 -2.022547 0.1181652
v 0.1042946 -1.865017 0.1182195
v 0.1042952 -1.865016 -8.619705E-07
v 0.1042952 -1.865016 -8.619705E-07
v 0.1042946 -1.865017 0.1182195
v -0.03209839 -1.865015 0.1182195
v -0.03209921 -1.865016 -8.629028E-07
v -0.03209921 -1.865016 -8.629028E-07
v -0.03209839 -1.865015 0.1182195
v -0.03209951 -2.022547 0.1181652
v -0.03209893 -2.022546 5.138883E-05
v -0.03103135 -1.865015 0.1159828
v -0.03103107 -2.022546 0.1160351
v -0.005041436 -2.022547 0.1633232
v -0.005041718 -1.865016 0.163271
v 0.02862443 -1.865016 0.198098
v 0.02862472 -2.022546 0.1981503
v 0.02862472 -2.022546 0.1981503
v 0.04762131 -2.022547 0.1935706
v 0.04762102 -1.865016 0.1936248
v 0.02862443 -1.865016 0.198098
v -0.006178153 -2.022546 0.1640688
v -0.03225739 -2.022546 0.1166741
v -0.03225768 -1.865016 0.1167284
v -0.006178435 -1.865015 0.164123
v 0.02817285 -1.865016 0.1996956
v 0.02817314 -2.022547 0.1996414
v 0.0479456 -1.865016 0.1950094
v 0.04794447 -2.022547 0.1949551
v 0.02817314 -2.022547 0.1996414
v 0.02817285 -1.865016 0.1996956
v -0.005041718 -1.865016 0.163271
v -0.006178435 -1.865015 0.164123
v -0.03225768 -1.865016 0.1167284
v -0.03103135 -1.865015 0.1159828
v 0.02862443 -1.865016 0.198098
v 0.02817285 -1.865016 0.1996956
v 0.04762102 -1.865016 0.1936248
v 0.0479456 -1.865016 0.1950094
v -0.03103107 -2.022546 0.1160351
v -0.03225739 -2.022546 0.1166741
v -0.006178153 -2.022546 0.1640688
v -0.005041436 -2.022547 0.1633232
v 0.02817314 -2.022547 0.1996414
v 0.02862472 -2.022546 0.1981503
v 0.04794447 -2.022547 0.1949551
v 0.04762131 -2.022547 0.1935706
v 0.04762131 -2.022547 0.1935706
v 0.04794447 -2.022547 0.1949551
v 0.0479456 -1.865016 0.1950094
v 0.04762102 -1.865016 0.1936248
v -0.03209866 -2.292901 0.1182549
v -0.03209895 -2.13537 0.1182026
v 0.1042955 -2.13537 0.1182026
v 0.1042958 -2.292901 0.1182549
v -0.03209949 -2.292901 3.455874E-05
v -0.03209866 -2.292901 0.1182549
v 0.1042958 -2.292901 0.1182549
v 0.1042949 -2.292901 3.455967E-05
v 0.1042949 -2.292901 3.455967E-05
v 0.1042958 -2.292901 0.1182549
v 0.1042955 -2.13537 0.1182026
v 0.1042947 -2.135371 -1.769207E-05
v 0.1042947 -2.135371 -1.769207E-05
v 0.1042955 -2.13537 0.1182026
v -0.03209895 -2.13537 0.1182026
v -0.03209836 -2.13537 -1.769329E-05
v -0.03209836 -2.13537 -1.769329E-05
v -0.03209895 -2.13537 0.1182026
v -0.03209866 -2.292901 0.1182549
v -0.03209949 -2.292901 3.455874E-05

vn -0.0001766086 1 0.000280738
vn -0.0001766086 1 0.000280738
vn -0.0001766086 1 0.000280738
vn -0.0001766086 1 0.000280738
vn -0.4567877 -0.000330381 0.8895761
vn -0.4567877 -0.000330381 0.8895761
vn -0.4567877 -0.000330381 0.8895761
vn -0.4567877 -0.000330381 0.8895761
vn 0.889576 2.887468E-05 0.4567873
vn 0.889576 2.887468E-05 0.4567873
vn 0.889576 2.887468E-05 0.4567873
vn 0.889576 2.887468E-05 0.4567873
vn 0.4567877 0.000330381 -0.8895761
vn 0.4567877 0.000330381 -0.8895761
vn 0.4567877 0.000330381 -0.8895761
vn 0.4567877 0.000330381 -0.8895761
vn -0.889576 -2.887467E-05 -0.4567873
vn -0.889576 -2.887467E-05 -0.4567873
vn -0.889576 -2.887467E-05 -0.4567873
vn -0.889576 -2.887467E-05 -0.4567873
vn -0.0001766086 1 0.000280738
vn -0.0001766086 1 0.000280738
vn -0.0001766086 1 0.000280738
vn -0.0001766086 1 0.000280738
vn -0.532581 -0.0003316404 0.8463795
vn -0.532581 -0.0003316404 0.8463795
vn -0.532581 -0.0003316404 0.8463795
vn -0.532581 -0.0003316404 0.8463795
vn 0.8463792 -2.980232E-08 0.5325808
vn 0.8463792 -2.980232E-08 0.5325808
vn 0.8463792 -2.980232E-08 0.5325808
vn 0.8463792 -2.980232E-08 0.5325808
vn 0.532581 0.0003316404 -0.8463795
vn 0.532581 0.0003316404 -0.8463795
vn 0.532581 0.0003316404 -0.8463795
vn 0.532581 0.0003316404 -0.8463795
vn -0.8463792 2.980232E-08 -0.5325808
vn -0.8463792 2.980232E-08 -0.5325808
vn -0.8463792 2.980232E-08 -0.5325808
vn -0.8463792 2.980232E-08 -0.5325808
vn -0.0001766086 1 0.000280738
vn -0.0001766086 1 0.000280738
vn -0.0001766086 1 0.000280738
vn -0.0001766086 1 0.000280738
vn -0.532581 -0.0003316404 0.8463795
vn -0.532581 -0.0003316404 0.8463795
vn -0.532581 -0.0003316404 0.8463795
vn -0.532581 -0.0003316404 0.8463795
vn 0.8463792 -2.980232E-08 0.5325808
vn 0.8463792 -2.980232E-08 0.5325808
vn 0.8463792 -2.980232E-08 0.5325808
vn 0.8463792 -2.980232E-08 0.5325808
vn 0.532581 0.0003316404 -0.8463795
vn 0.532581 0.0003316404 -0.8463795
vn 0.532581 0.0003316404 -0.8463795
vn 0.532581 0.0003316404 -0.8463795
vn -0.8463792 2.980232E-08 -0.5325808
vn -0.8463792 2.980232E-08 -0.5325808
vn -0.8463792 2.980232E-08 -0.5325808
vn -0.8463792 2.980232E-08 -0.5325808
vn -0.0001766086 1 0.000280738
vn -0.0001766086 1 0.000280738
vn -0.0001766086 1 0.000280738
vn -0.0001766086 1 0.000280738
vn -0.532581 -0.0003316404 0.8463795
vn -0.532581 -0.0003316404 0.8463795
vn -0.532581 -0.0003316404 0.8463795
vn -0.532581 -0.0003316404 0.8463795
vn 0.8463792 -2.980232E-08 0.5325808
vn 0.8463792 -2.980232E-08 0.5325808
vn 0.8463792 -2.980232E-08 0.5325808
vn 0.8463792 -2.980232E-08 0.5325808
vn 0.532581 0.0003316404 -0.8463795
vn 0.532581 0.0003316404 -0.8463795
vn 0.532581 0.0003316404 -0.8463795
vn 0.532581 0.0003316404 -0.8463795
vn -0.8463792 2.980232E-08 -0.5325808
vn -0.8463792 2.980232E-08 -0.5325808
vn -0.8463792 2.980232E-08 -0.5325808
vn -0.8463792 2.980232E-08 -0.5325808
vn -0.0001766086 1 0.000280738
vn -0.0001766086 1 0.000280738
vn -0.0001766086 1 0.000280738
vn -0.0001766086 1 0.000280738
vn -0.532581 -0.0003316404 0.8463795
vn -0.532581 -0.0003316404 0.8463795
vn -0.532581 -0.0003316404 0.8463795
vn -0.532581 -0.0003316404 0.8463795
vn 0.8463792 -2.980232E-08 0.5325808
vn 0.8463792 -2.980232E-08 0.5325808
vn 0.8463792 -2.980232E-08 0.5325808
vn 0.8463792 -2.980232E-08 0.5325808
vn 0.532581 0.0003316404 -0.8463795
vn 0.532581 0.0003316404 -0.8463795
vn 0.532581 0.0003316404 -0.8463795
vn 0.532581 0.0003316404 -0.8463795
vn -0.8463792 2.980232E-08 -0.5325808
vn -0.8463792 2.980232E-08 -0.5325808
vn -0.8463792 2.980232E-08 -0.5325808
vn -0.8463792 2.980232E-08 -0.5325808
vn -0.0001766086 1 0.000280738
vn -0.0001766086 1 0.000280738
vn -0.0001766086 1 0.000280738
vn -0.0001766086 1 0.000280738
vn -0.532581 -0.0003316404 0.8463795
vn -0.532581 -0.0003316404 0.8463795
vn -0.532581 -0.0003316404 0.8463795
vn -0.532581 -0.0003316404 0.8463795
vn 0.8463792 -2.980232E-08 0.5325808
vn 0.8463792 -2.980232E-08 0.5325808
vn 0.8463792 -2.980232E-08 0.5325808
vn 0.8463792 -2.980232E-08 0.5325808
vn 0.532581 0.0003316404 -0.8463795
vn 0.532581 0.0003316404 -0.8463795
vn 0.532581 0.0003316404 -0.8463795
vn 0.532581 0.0003316404 -0.8463795
vn -0.8463792 2.980232E-08 -0.5325808
vn -0.8463792 2.980232E-08 -0.5325808
vn -0.8463792 2.980232E-08 -0.5325808
vn -0.8463792 2.980232E-08 -0.5325808
vn -0.0001766086 1 0.000280738
vn -0.0001766086 1 0.000280738
vn -0.0001766086 1 0.000280738
vn -0.0001766086 1 0.000280738
vn -0.532581 -0.0003316404 0.8463795
vn -0.532581 -0.0003316404 0.8463795
vn -0.532581 -0.0003316404 0.8463795
vn -0.532581 -0.0003316404 0.8463795
vn 0.8463792 -2.980232E-08 0.5325808
vn 0.8463792 -2.980232E-08 0.5325808
vn 0.8463792 -2.980232E-08 0.5325808
vn 0.8463792 -2.980232E-08 0.5325808
vn 0.532581 0.0003316404 -0.8463795
vn 0.532581 0.0003316404 -0.8463795
vn 0.532581 0.0003316404 -0.8463795
vn 0.532581 0.0003316404 -0.8463795
vn -0.8463792 2.980232E-08 -0.5325808
vn -0.8463792 2.980232E-08 -0.5325808
vn -0.8463792 2.980232E-08 -0.5325808
vn -0.8463792 2.980232E-08 -0.5325808
vn -0.0001766086 1 0.000280738
vn -0.0001766086 1 0.000280738
vn -0.0001766086 1 0.000280738
vn -0.0001766086 1 0.000280738
vn -0.532581 -0.0003316404 0.8463795
vn -0.532581 -0.0003316404 0.8463795
vn -0.532581 -0.0003316404 0.8463795
vn -0.532581 -0.0003316404 0.8463795
vn 0.8463792 -2.980232E-08 0.5325808
vn 0.8463792 -2.980232E-08 0.5325808
vn 0.8463792 -2.980232E-08 0.5325808
vn 0.8463792 -2.980232E-08 0.5325808
vn 0.532581 0.0003316404 -0.8463795
vn 0.532581 0.0003316404 -0.8463795
vn 0.532581 0.0003316404 -0.8463795
vn 0.532581 0.0003316404 -0.8463795
vn -0.8463792 2.980232E-08 -0.5325808
vn -0.8463792 2.980232E-08 -0.5325808
vn -0.8463792 2.980232E-08 -0.5325808
vn -0.8463792 2.980232E-08 -0.5325808
vn 0.7417167 -0.4818748 0.4665335
vn 0.7417167 -0.4818748 0.4665335
vn 0.6813306 -0.5934504 0.4284921
vn 0.6813306 -0.5934504 0.4284921
vn 0.6089922 -0.6946154 0.3829338
vn 0.6089922 -0.6946154 0.3829338
vn -0.1959764 -0.9727758 -0.1236985
vn -0.1959764 -0.9727758 -0.1236985
vn -0.1959764 -0.9727758 -0.1236985
vn -0.1959764 -0.9727758 -0.1236985
vn -0.6813307 0.5934504 -0.4284921
vn -0.7417167 0.4818745 -0.4665335
vn -0.7417167 0.4818745 -0.4665335
vn -0.6813307 0.5934504 -0.4284921
vn -0.6089922 0.6946154 -0.3829337
vn -0.6089922 0.6946154 -0.3829337
vn 0.195976 0.9727759 0.1236983
vn 0.195976 0.9727759 0.1236983
vn 0.195976 0.9727759 0.1236983
vn 0.195976 0.9727759 0.1236983
vn 0.532581 0.0003316404 -0.8463795
vn 0.532581 0.0003316404 -0.8463795
vn 0.532581 0.0003316404 -0.8463795
vn 0.532581 0.0003316404 -0.8463795
vn 0.532581 0.0003316404 -0.8463795
vn 0.532581 0.0003316404 -0.8463795
vn 0.532581 0.0003316404 -0.8463795
vn 0.532581 0.0003316404 -0.8463795
vn -0.532581 -0.0003316404 0.8463795
vn -0.532581 -0.0003316404 0.8463795
vn -0.532581 -0.0003316404 0.8463795
vn -0.532581 -0.0003316404 0.8463795
vn -0.532581 -0.0003316404 0.8463795
vn -0.532581 -0.0003316404 0.8463795
vn -0.532581 -0.0003316404 0.8463795
vn -0.532581 -0.0003316404 0.8463795
vn 0.8233778 -0.2317499 0.5180164
vn 0.8233778 -0.2317499 0.5180164
vn 0.8233778 -0.2317499 0.5180164
vn 0.8233778 -0.2317499 0.5180164
vn -0.0001766086 1 0.000280738
vn -0.0001766086 1 0.000280738
vn -0.0001766086 1 0.000280738
vn -0.0001766086 1 0.000280738
vn -0.532581 -0.0003316404 0.8463795
vn -0.532581 -0.0003316404 0.8463795
vn -0.532581 -0.0003316404 0.8463795
vn -0.532581 -0.0003316404 0.8463795
vn 0.8463792 -2.980232E-08 0.5325808
vn 0.8463792 -2.980232E-08 0.5325808
vn 0.8463792 -2.980232E-08 0.5325808
vn 0.8463792 -2.980232E-08 0.5325808
vn 0.532581 0.0003316404 -0.8463795
vn 0.532581 0.0003316404 -0.8463795
vn 0.532581 0.0003316404 -0.8463795
vn 0.532581 0.0003316404 -0.8463795
vn -0.8463792 2.980232E-08 -0.5325808
vn -0.8463792 2.980232E-08 -0.5325808
vn -0.8463792 2.980232E-08 -0.5325808
vn -0.8463792 2.980232E-08 -0.5325808

vt 0.2744551 0.9965576
vt 0.7284741 0.9965577
vt 0.7284743 0.736495
vt 0.2744552 0.736495
vt 0.272052 0.7315817
vt 0.272052 0.9965931
vt 0.7320969 0.9965931
vt 0.7320969 0.7315817
vt 0.272052 0.7315817
vt 0.272052 0.9965931
vt 0.7320969 0.9965931
vt 0.7320969 0.7315817
vt 0.272052 0.7315817
vt 0.272052 0.9965931
vt 0.7320969 0.9965931
vt 0.7320969 0.7315817
vt 0.272052 0.7315817
vt 0.272052 0.9965931
vt 0.7320969 0.9965931
vt 0.7320969 0.7315817
vt 0.2744551 0.9965576
vt 0.7284741 0.9965577
vt 0.7284743 0.736495
vt 0.2744552 0.736495
vt 0.272052 0.7315817
vt 0.272052 0.9965931
vt 0.7320969 0.9965931
vt 0.7320969 0.7315817
vt 0.272052 0.7315817
vt 0.272052 0.9965931
vt 0.7320969 0.9965931
vt 0.7320969 0.7315817
vt 0.272052 0.7315817
vt 0.272052 0.9965931
vt 0.7320969 0.9965931
vt 0.7320969 0.7315817
vt 0.272052 0.7315817
vt 0.272052 0.9965931
vt 0.7320969 0.9965931
vt 0.7320969 0.7315817
vt 0.2744551 0.9965576
vt 0.7284741 0.9965577
vt 0.7284743 0.736495
vt 0.2744552 0.736495
vt 0.272052 0.7315817
vt 0.272052 0.9965931
vt 0.7320969 0.9965931
vt 0.7320969 0.7315817
vt 0.272052 0.7315817
vt 0.272052 0.9965931
vt 0.7320969 0.9965931
vt 0.7320969 0.7315817
vt 0.272052 0.7315817
vt 0.272052 0.9965931
vt 0.7320969 0.9965931
vt 0.7320969 0.7315817
vt 0.272052 0.7315817
vt 0.272052 0.9965931
vt 0.7320969 0.9965931
vt 0.7320969 0.7315817
vt 0.2744551 0.9965576
vt 0.7284741 0.9965577
vt 0.7284743 0.736495
vt 0.2744552 0.736495
vt 0.272052 0.7315817
vt 0.272052 0.9965931
vt 0.7320969 0.9965931
vt 0.7320969 0.7315817
vt 0.272052 0.7315817
vt 0.272052 0.9965931
vt 0.7320969 0.9965931
vt 0.7320969 0.7315817
vt 0.272052 0.7315817
vt 0.272052 0.9965931
vt 0.7320969 0.9965931
vt 0.7320969 0.7315817
vt 0.272052 0.7315817
vt 0.272052 0.9965931
vt 0.7320969 0.9965931
vt 0.7320969 0.7315817
vt 0.2744551 0.9965576
vt 0.7284741 0.9965577
vt 0.7284743 0.736495
vt 0.2744552 0.736495
vt 0.272052 0.7315817
vt 0.272052 0.9965931
vt 0.7320969 0.9965931
vt 0.7320969 0.7315817
vt 0.272052 0.7315817
vt 0.272052 0.9965931
vt 0.7320969 0.9965931
vt 0.7320969 0.7315817
vt 0.272052 0.7315817
vt 0.272052 0.9965931
vt 0.7320969 0.9965931
vt 0.7320969 0.7315817
vt 0.272052 0.7315817
vt 0.272052 0.9965931
vt 0.7320969 0.9965931
vt 0.7320969 0.7315817
vt 0.9839258 0.5124164
vt 0.9839258 0.008037224
vt 0.6242143 0.008037142
vt 0.6242142 0.5124163
vt 0.6228747 0.5191139
vt 0.9933024 0.519114
vt 0.9933024 0.01205579
vt 0.6228747 0.01205571
vt 0.6228747 0.5191139
vt 0.9933024 0.519114
vt 0.9933024 0.01205579
vt 0.6228747 0.01205571
vt 0.6228747 0.5191139
vt 0.9933024 0.519114
vt 0.9933024 0.01205579
vt 0.6228747 0.01205571
vt 0.6228747 0.5191139
vt 0.9933024 0.519114
vt 0.9933024 0.01205579
vt 0.6228747 0.01205571
vt 0.2744551 0.9965576
vt 0.7284741 0.9965577
vt 0.7284743 0.736495
vt 0.2744552 0.736495
vt 0.272052 0.7315817
vt 0.272052 0.9965931
vt 0.7320969 0.9965931
vt 0.7320969 0.7315817
vt 0.272052 0.7315817
vt 0.272052 0.9965931
vt 0.7320969 0.9965931
vt 0.7320969 0.7315817
vt 0.272052 0.7315817
vt 0.272052 0.9965931
vt 0.7320969 0.9965931
vt 0.7320969 0.7315817
vt 0.272052 0.7315817
vt 0.272052 0.9965931
vt 0.7320969 0.9965931
vt 0.7320969 0.7315817
vt 0.002231017 0.7321999
vt 0.002231017 0.996276
vt 0.2743946 0.996276
vt 0.2743946 0.7321999
vt 0.03183265 0.4640754
vt 0.03183265 0.7266642
vt 0.4623517 0.7266642
vt 0.4623517 0.4640754
vt 0.2720892 0.7641938
vt 0.2720892 0.9934698
vt 0.7295852 0.9934698
vt 0.7295852 0.7641938
vt 0.03183265 0.4640754
vt 0.03183265 0.7266642
vt 0.4623517 0.7266642
vt 0.4623517 0.4640754
vt 0.03183265 0.4640754
vt 0.03183265 0.7266642
vt 0.4623517 0.7266642
vt 0.4623517 0.4640754
vt 0.4623517 0.4640754
vt 0.03183265 0.4640754
vt 0.03183265 0.5953698
vt 0.4623517 0.5953698
vt 0.4623517 0.7266642
vt 0.03183265 0.7266642
vt 0.03183265 0.7266642
vt 0.03183265 0.7266642
vt 0.4623517 0.7266642
vt 0.4623517 0.7266642
vt 0.03183265 0.5953698
vt 0.03183265 0.4640754
vt 0.4623517 0.4640754
vt 0.4623517 0.5953698
vt 0.4623517 0.7266642
vt 0.03183265 0.7266642
vt 0.4623517 0.7266642
vt 0.03183265 0.7266642
vt 0.03183265 0.7266642
vt 0.4623517 0.7266642
vt 0.4623517 0.5953698
vt 0.4623517 0.5953698
vt 0.4623517 0.4640754
vt 0.4623517 0.4640754
vt 0.4623517 0.7266642
vt 0.4623517 0.7266642
vt 0.4623517 0.7266642
vt 0.4623517 0.7266642
vt 0.03183265 0.4640754
vt 0.03183265 0.4640754
vt 0.03183265 0.5953698
vt 0.03183265 0.5953698
vt 0.03183265 0.7266642
vt 0.03183265 0.7266642
vt 0.03183265 0.7266642
vt 0.03183265 0.7266642
vt 0.03183265 0.7266642
vt 0.03183265 0.7266642
vt 0.4623517 0.7266642
vt 0.4623517 0.7266642
vt 0.4855008 1.002759
vt 0.7276276 1.002759
vt 0.7276276 0.730595
vt 0.4855008 0.7305949
vt 0.03183265 0.4640754
vt 0.03183265 0.7266642
vt 0.4623517 0.7266642
vt 0.4623517 0.4640754
vt 0.2720892 0.7641938
vt 0.2720892 0.9934698
vt 0.7295852 0.9934698
vt 0.7295852 0.7641938
vt 0.03183265 0.4640754
vt 0.03183265 0.7266642
vt 0.4623517 0.7266642
vt 0.4623517 0.4640754
vt 0.03183265 0.4640754
vt 0.03183265 0.7266642
vt 0.4623517 0.7266642
vt 0.4623517 0.4640754

g Box197_675_10
usemtl Box197_675_10
usemap Box197_675_10
f 1/1/1 3/3/3 2/2/2
f 1/1/1 4/4/4 3/3/3
f 5/5/5 7/7/7 6/6/6
f 5/5/5 8/8/8 7/7/7
f 9/9/9 11/11/11 10/10/10
f 9/9/9 12/12/12 11/11/11
f 13/13/13 15/15/15 14/14/14
f 13/13/13 16/16/16 15/15/15
f 17/17/17 19/19/19 18/18/18
f 17/17/17 20/20/20 19/19/19
f 21/21/21 23/23/23 22/22/22
f 21/21/21 24/24/24 23/23/23
f 25/25/25 27/27/27 26/26/26
f 25/25/25 28/28/28 27/27/27
f 29/29/29 31/31/31 30/30/30
f 29/29/29 32/32/32 31/31/31
f 33/33/33 35/35/35 34/34/34
f 33/33/33 36/36/36 35/35/35
f 37/37/37 39/39/39 38/38/38
f 37/37/37 40/40/40 39/39/39
f 41/41/41 43/43/43 42/42/42
f 41/41/41 44/44/44 43/43/43
f 45/45/45 47/47/47 46/46/46
f 45/45/45 48/48/48 47/47/47
f 49/49/49 51/51/51 50/50/50
f 49/49/49 52/52/52 51/51/51
f 53/53/53 55/55/55 54/54/54
f 53/53/53 56/56/56 55/55/55
f 57/57/57 59/59/59 58/58/58
f 57/57/57 60/60/60 59/59/59
f 61/61/61 63/63/63 62/62/62
f 61/61/61 64/64/64 63/63/63
f 65/65/65 67/67/67 66/66/66
f 65/65/65 68/68/68 67/67/67
f 69/69/69 71/71/71 70/70/70
f 69/69/69 72/72/72 71/71/71
f 73/73/73 75/75/75 74/74/74
f 73/73/73 76/76/76 75/75/75
f 77/77/77 79/79/79 78/78/78
f 77/77/77 80/80/80 79/79/79
f 81/81/81 83/83/83 82/82/82
f 81/81/81 84/84/84 83/83/83
f 85/85/85 87/87/87 86/86/86
f 85/85/85 88/88/88 87/87/87
f 89/89/89 91/91/91 90/90/90
f 89/89/89 92/92/92 91/91/91
f 93/93/93 95/95/95 94/94/94
f 93/93/93 96/96/96 95/95/95
f 97/97/97 99/99/99 98/98/98
f 97/97/97 100/100/100 99/99/99
f 101/101/101 103/103/103 102/102/102
f 101/101/101 104/104/104 103/103/103
f 105/105/105 107/107/107 106/106/106
f 105/105/105 108/108/108 107/107/107
f 109/109/109 111/111/111 110/110/110
f 109/109/109 112/112/112 111/111/111
f 113/113/113 115/115/115 114/114/114
f 113/113/113 116/116/116 115/115/115
f 117/117/117 119/119/119 118/118/118
f 117/117/117 120/120/120 119/119/119
f 121/121/121 123/123/123 122/122/122
f 121/121/121 124/124/124 123/123/123
f 125/125/125 127/127/127 126/126/126
f 125/125/125 128/128/128 127/127/127
f 129/129/129 131/131/131 130/130/130
f 129/129/129 132/132/132 131/131/131
f 133/133/133 135/135/135 134/134/134
f 133/133/133 136/136/136 135/135/135
f 137/137/137 139/139/139 138/138/138
f 137/137/137 140/140/140 139/139/139
f 141/141/141 143/143/143 142/142/142
f 141/141/141 144/144/144 143/143/143
f 145/145/145 147/147/147 146/146/146
f 145/145/145 148/148/148 147/147/147
f 149/149/149 151/151/151 150/150/150
f 149/149/149 152/152/152 151/151/151
f 153/153/153 155/155/155 154/154/154
f 153/153/153 156/156/156 155/155/155
f 157/157/157 159/159/159 158/158/158
f 157/157/157 160/160/160 159/159/159
f 161/161/161 163/163/163 162/162/162
f 161/161/161 164/164/164 163/163/163
f 165/165/165 163/163/163 164/164/164
f 165/165/165 166/166/166 163/163/163
f 167/167/167 169/169/169 168/168/168
f 167/167/167 170/170/170 169/169/169
f 171/171/171 173/173/173 172/172/172
f 171/171/171 174/174/174 173/173/173
f 171/171/171 175/175/175 174/174/174
f 171/171/171 176/176/176 175/175/175
f 177/177/177 179/179/179 178/178/178
f 177/177/177 180/180/180 179/179/179
f 181/181/181 183/183/183 182/182/182
f 181/181/181 184/184/184 183/183/183
f 185/185/185 181/181/181 182/182/182
f 185/185/185 182/182/182 186/186/186
f 187/187/187 185/185/185 186/186/186
f 187/187/187 186/186/186 188/188/188
f 189/189/189 191/191/191 190/190/190
f 189/189/189 192/192/192 191/191/191
f 192/192/192 193/193/193 191/191/191
f 192/192/192 194/194/194 193/193/193
f 194/194/194 195/195/195 193/193/193
f 194/194/194 196/196/196 195/195/195
f 197/197/197 199/199/199 198/198/198
f 197/197/197 200/200/200 199/199/199
f 201/201/201 203/203/203 202/202/202
f 201/201/201 204/204/204 203/203/203
f 205/205/205 207/207/207 206/206/206
f 205/205/205 208/208/208 207/207/207
f 209/209/209 211/211/211 210/210/210
f 209/209/209 212/212/212 211/211/211
f 213/213/213 215/215/215 214/214/214
f 213/213/213 216/216/216 215/215/215
f 217/217/217 219/219/219 218/218/218
f 217/217/217 220/220/220 219/219/219
