#Building_t4_22361_374.obj

v -0.1473538 0.992797 1.000001
v -0.2362919 1.081735 1.000001
v 1.000003 1.081733 1.000001
v 0.9110549 0.9927952 1.000001
v 0.9999993 -1.00725 1.000001
v 0.9110516 -0.9183118 1.000001
v -0.2362858 -1.007253 1.000001
v -0.1473474 -0.9183148 1.000001

vn 0.003921509 0.9995117 0.003921509
vn 0.003921509 0.9995117 0.003921509
vn 0.003921509 0.9995117 0.003921509
vn 0.003921509 0.9995117 0.003921509
vn 0.003921509 0.9995117 0.003921509
vn 0.003921509 0.9995117 0.003921509
vn 0.003921509 0.9995117 0.003921509
vn 0.003921509 0.9995117 0.003921509

vt -0.355957 1.414063
vt -0.5 1.5
vt 1.5 1.5
vt 1.355469 1.414063
vt 1.5 -0.5
vt 1.355469 -0.4147949
vt -0.5 -0.5
vt -0.355957 -0.4147949

g Building_t4_22361_374
usemtl Building_t4_22361_374
usemap Building_t4_22361_374
f 1/1/1 3/3/3 2/2/2
f 1/1/1 4/4/4 3/3/3
f 4/4/4 5/5/5 3/3/3
f 4/4/4 6/6/6 5/5/5
f 6/6/6 7/7/7 5/5/5
f 6/6/6 8/8/8 7/7/7
f 8/8/8 2/2/2 7/7/7
f 8/8/8 1/1/1 2/2/2
