#Building_t8.004_(1)_26677_441.obj

v -5.112459 7.955643 1.015374
v -0.918018 7.955648 2.393859
v -5.112459 7.955643 0.3849256
v -0.9180179 7.955648 1.763433
v -5.112396 10.77527 1.015373
v -0.9179545 10.77528 2.393858
v -5.112396 10.77527 0.384925
v -0.9179544 10.77528 1.763433
v -5.112457 5.31295 1.015374
v -0.9180153 5.312954 2.393859
v -5.112456 5.31295 0.3849259
v -0.9180152 5.312954 1.763433
v -0.9180179 7.955648 1.763433
v -0.918018 7.955648 2.393859
v -5.112459 7.955643 0.3849256
v -5.112459 7.955643 1.015374
v -0.9179544 10.77528 1.763433
v -0.9179545 10.77528 2.393858
v -5.112396 10.77527 0.384925
v -5.112396 10.77527 1.015373
v -0.9180152 5.312954 1.763433
v -0.9180153 5.312954 2.393859
v -5.112456 5.31295 0.3849259
v -5.112457 5.31295 1.015374

vn 0.003801346 -5.960464E-08 -0.9995117
vn 0.003801346 -5.960464E-08 -0.9995117
vn 0.003801346 -5.960464E-08 -0.9995117
vn 0.003801346 -5.960464E-08 -0.9995117
vn 0.003801346 -5.960464E-08 -0.9995117
vn 0.003801346 -5.960464E-08 -0.9995117
vn 0.003801346 -5.960464E-08 -0.9995117
vn 0.003801346 -5.960464E-08 -0.9995117
vn 0.003801346 -5.960464E-08 -0.9995117
vn 0.003801346 -5.960464E-08 -0.9995117
vn 0.003801346 -5.960464E-08 -0.9995117
vn 0.003801346 -5.960464E-08 -0.9995117
vn 0.003803253 5.960464E-08 0.9995117
vn 0.003803253 5.960464E-08 0.9995117
vn 0.003803253 5.960464E-08 0.9995117
vn 0.003803253 5.960464E-08 0.9995117
vn 0.003803253 5.960464E-08 0.9995117
vn 0.003803253 5.960464E-08 0.9995117
vn 0.003803253 5.960464E-08 0.9995117
vn 0.003803253 5.960464E-08 0.9995117
vn 0.003803253 5.960464E-08 0.9995117
vn 0.003803253 5.960464E-08 0.9995117
vn 0.003803253 5.960464E-08 0.9995117
vn 0.003803253 5.960464E-08 0.9995117

vt -1.499023 1
vt 2.498047 1
vt -1.499023 -2.801418E-06
vt 2.498047 -2.801418E-06
vt -1.499023 1
vt 2.498047 1
vt -1.499023 -2.801418E-06
vt 2.498047 -2.801418E-06
vt -1.499023 1
vt 2.498047 1
vt -1.499023 -2.801418E-06
vt 2.498047 -2.801418E-06
vt 2.498047 -2.801418E-06
vt 2.498047 1
vt -1.499023 -2.801418E-06
vt -1.499023 1
vt 2.498047 -2.801418E-06
vt 2.498047 1
vt -1.499023 -2.801418E-06
vt -1.499023 1
vt 2.498047 -2.801418E-06
vt 2.498047 1
vt -1.499023 -2.801418E-06
vt -1.499023 1

g Building_t8.004_(1)_26677_441
usemtl Building_t8.004_(1)_26677_441
usemap Building_t8.004_(1)_26677_441
f 1/1/1 3/3/3 2/2/2
f 2/2/2 3/3/3 4/4/4
f 5/5/5 7/7/7 6/6/6
f 6/6/6 7/7/7 8/8/8
f 9/9/9 11/11/11 10/10/10
f 10/10/10 11/11/11 12/12/12
f 13/13/13 15/15/15 14/14/14
f 14/14/14 15/15/15 16/16/16
f 17/17/17 19/19/19 18/18/18
f 18/18/18 19/19/19 20/20/20
f 21/21/21 23/23/23 22/22/22
f 22/22/22 23/23/23 24/24/24
