#Building_big_1.001_26539_259.obj

v -20.56456 -28.86836 16.46242
v -20.56454 -15.75447 16.46242
v -6.677607 -15.7545 16.46242
v -6.677598 -28.86833 16.46242

vn 0.003921509 0.9995117 0.003921509
vn 0.003921509 0.9995117 0.003921509
vn 0.003921509 0.9995117 0.003921509
vn 0.003921509 0.9995117 0.003921509

vt -5.364418E-07 1
vt 1 1
vt 1 -5.364418E-07
vt -5.364418E-07 -5.364418E-07

g Building_big_1.001_26539_259
usemtl Building_big_1.001_26539_259
usemap Building_big_1.001_26539_259
f 1/1/1 3/3/3 2/2/2
f 1/1/1 4/4/4 3/3/3
