#Building_big_1.003_22329_243.obj

v -10.70136 -12.32183 -4.123767
v -10.70131 -14.59476 -4.123767
v -10.70131 -14.59475 -0.4885335
v -10.70136 -12.32185 -0.4885329

vn 0.03717041 0 0.9990234
vn 0.03717041 0 0.9990234
vn 0.03717041 0 0.9990234
vn 0.03717041 0 0.9990234

vt 8.320808E-05 8.320808E-05
vt 0.7568359 8.320808E-05
vt 0.7568359 0.9995117
vt 8.320808E-05 0.9995117

g Building_big_1.003_22329_243
usemtl Building_big_1.003_22329_243
usemap Building_big_1.003_22329_243
f 1/1/1 3/3/3 2/2/2
f 1/1/1 4/4/4 3/3/3
