#Building_t8.032_22319_483.obj

v -3.909836 -0.6200036 2.35194
v -3.909836 -0.6200039 -0.1493433
v -3.909832 1.061877 -0.1493435
v -3.909832 1.061877 2.35194
v 1.096223 7.85745 3.972176
v 1.096223 7.85745 1.470892
v 1.096226 9.539327 1.470892
v 1.096226 9.539327 3.972175
v 1.096219 5.816522 3.972175
v 1.096219 5.816522 1.470892
v 1.096222 7.498403 1.470892
v 1.096222 7.498403 3.972176

vn -0.9995117 0 -0.003917694
vn -0.9995117 0 -0.003917694
vn -0.9995117 0 -0.003917694
vn -0.9995117 0 -0.003917694
vn -0.9995117 0 -0.003917694
vn -0.9995117 0 -0.003917694
vn -0.9995117 0 -0.003917694
vn -0.9995117 0 -0.003917694
vn -0.9995117 0 -0.003917694
vn -0.9995117 0 -0.003917694
vn -0.9995117 0 -0.003917694
vn -0.9995117 0 -0.003917694

vt -2.801418E-06 1
vt -2.801418E-06 -2.801418E-06
vt 1 -2.801418E-06
vt 1 1
vt -2.801418E-06 1
vt -2.801418E-06 -2.801418E-06
vt 1 -2.801418E-06
vt 1 1
vt -2.801418E-06 1
vt -2.801418E-06 -2.801418E-06
vt 1 -2.801418E-06
vt 1 1

g Building_t8.032_22319_483
usemtl Building_t8.032_22319_483
usemap Building_t8.032_22319_483
f 1/1/1 3/3/3 2/2/2
f 1/1/1 4/4/4 3/3/3
f 5/5/5 7/7/7 6/6/6
f 5/5/5 8/8/8 7/7/7
f 9/9/9 11/11/11 10/10/10
f 9/9/9 12/12/12 11/11/11
