#Building_t8.031_22446_648.obj

v -3.909853 -0.6200127 2.35194
v -3.909853 -0.6200134 -0.1493432
v -3.909851 1.061867 -0.1493433
v -3.909854 1.061861 2.35194
v 1.096188 7.857449 3.972176
v 1.096188 7.857448 1.470892
v 1.096187 9.539322 1.470892
v 1.096187 9.539322 3.972176
v 1.096184 5.81652 3.972176
v 1.096184 5.816519 1.470892
v 1.096187 7.498399 1.470892
v 1.096187 7.4984 3.972176

vn -0.4455566 0 -0.8950195
vn -0.4455566 0 -0.8950195
vn -0.4455566 0 -0.8950195
vn -0.4455566 0 -0.8950195
vn -0.4455566 0 -0.8950195
vn -0.4455566 0 -0.8950195
vn -0.4455566 0 -0.8950195
vn -0.4455566 0 -0.8950195
vn -0.4455566 0 -0.8950195
vn -0.4455566 0 -0.8950195
vn -0.4455566 0 -0.8950195
vn -0.4455566 0 -0.8950195

vt -2.801418E-06 1
vt -2.801418E-06 -2.801418E-06
vt 1 -2.801418E-06
vt 1 1
vt -2.801418E-06 1
vt -2.801418E-06 -2.801418E-06
vt 1 -2.801418E-06
vt 1 1
vt -2.801418E-06 1
vt -2.801418E-06 -2.801418E-06
vt 1 -2.801418E-06
vt 1 1

g Building_t8.031_22446_648
usemtl Building_t8.031_22446_648
usemap Building_t8.031_22446_648
f 1/1/1 3/3/3 2/2/2
f 1/1/1 4/4/4 3/3/3
f 5/5/5 7/7/7 6/6/6
f 5/5/5 8/8/8 7/7/7
f 9/9/9 11/11/11 10/10/10
f 9/9/9 12/12/12 11/11/11
