#Building_t8.009_23336_424.obj

v 1.096225 7.498414 3.972177
v 1.096225 7.498414 1.470893
v 1.096197 5.816529 3.972177
v 1.096197 5.816529 1.470893
v 1.096222 9.539307 3.972177
v 1.096222 9.539308 1.470893
v 1.096224 7.857422 3.972177
v 1.096224 7.857422 1.470893
v -3.90984 1.061883 2.35194
v -3.90984 1.061884 -0.1493434
v -3.909837 -0.6200013 2.35194
v -3.909837 -0.620001 -0.1493435

vn 0.9995117 0 -0.003921509
vn 0.9995117 0 -0.003921509
vn 0.9995117 0 -0.003921509
vn 0.9995117 0 -0.003921509
vn 0.9995117 0 -0.003921509
vn 0.9995117 0 -0.003921509
vn 0.9995117 0 -0.003921509
vn 0.9995117 0 -0.003921509
vn 0.9995117 0 -0.003921509
vn 0.9995117 0 -0.003921509
vn 0.9995117 0 -0.003921509
vn 0.9995117 0 -0.003921509

vt 1 1
vt 1 -2.801418E-06
vt -2.801418E-06 1
vt -2.801418E-06 -2.801418E-06
vt 1 1
vt 1 -2.801418E-06
vt -2.801418E-06 1
vt -2.801418E-06 -2.801418E-06
vt 1 1
vt 1 -2.801418E-06
vt -2.801418E-06 1
vt -2.801418E-06 -2.801418E-06

g Building_t8.009_23336_424
usemtl Building_t8.009_23336_424
usemap Building_t8.009_23336_424
f 1/1/1 3/3/3 2/2/2
f 2/2/2 3/3/3 4/4/4
f 5/5/5 7/7/7 6/6/6
f 6/6/6 7/7/7 8/8/8
f 9/9/9 11/11/11 10/10/10
f 10/10/10 11/11/11 12/12/12
