#Building_t12.001_26734_21.obj

v 16.33192 13.58985 -48.31504
v 66.161 13.93653 -48.31504
v 16.49523 -11.25264 -48.31487
v 66.40903 -27.76066 -48.31501
v -54.65954 -30.35962 -48.31501
v -53.67548 31.19289 -48.31507
v -28.69459 31.19396 -48.31507
v -28.69447 -11.25272 -48.31502

vn -0.004055023 0.9995117 0.003780365
vn -0.004055023 0.9995117 0.003780365
vn -0.004055023 0.9995117 0.003780365
vn -0.004055023 0.9995117 0.003780365
vn -0.004055023 0.9995117 0.003780365
vn -0.004055023 0.9995117 0.003780365
vn -0.004055023 0.9995117 0.003780365
vn -0.004055023 0.9995117 0.003780365

vt 0.8383789 2.757813
vt 0.8486328 4.5
vt 0.2612305 2.757813
vt -0.2106934 4.503906
vt -0.2849121 0.2675781
vt 1.474609 0.302002
vt 1.474609 1.176758
vt 0.2612305 1.176758

g Building_t12.001_26734_21
usemtl Building_t12.001_26734_21
usemap Building_t12.001_26734_21
f 1/1/1 3/3/3 2/2/2
f 2/2/2 3/3/3 4/4/4
f 4/4/4 3/3/3 5/5/5
f 6/6/6 8/8/8 7/7/7
f 6/6/6 5/5/5 8/8/8
f 8/8/8 5/5/5 3/3/3
