#Building_t8.012_22125_331.obj

v -3.909882 -0.6200175 2.35194
v -3.909882 -0.6200178 -0.1493433
v -3.909879 1.061867 -0.1493435
v -3.909879 1.061867 2.35194
v 1.096174 7.857453 3.972176
v 1.096174 7.857452 1.470892
v 1.096177 9.539307 1.470892
v 1.096177 9.539308 3.972175
v 1.096171 5.816529 3.972175
v 1.096171 5.816528 1.470892
v 1.096173 7.498383 1.470892
v 1.096173 7.498383 3.972176

vn -0.9995117 0 -0.003917694
vn -0.9995117 0 -0.003917694
vn -0.9995117 0 -0.003917694
vn -0.9995117 0 -0.003917694
vn -0.9995117 0 -0.003917694
vn -0.9995117 0 -0.003917694
vn -0.9995117 0 -0.003917694
vn -0.9995117 0 -0.003917694
vn -0.9995117 0 -0.003917694
vn -0.9995117 0 -0.003917694
vn -0.9995117 0 -0.003917694
vn -0.9995117 0 -0.003917694

vt -2.801418E-06 1
vt -2.801418E-06 -2.801418E-06
vt 1 -2.801418E-06
vt 1 1
vt -2.801418E-06 1
vt -2.801418E-06 -2.801418E-06
vt 1 -2.801418E-06
vt 1 1
vt -2.801418E-06 1
vt -2.801418E-06 -2.801418E-06
vt 1 -2.801418E-06
vt 1 1

g Building_t8.012_22125_331
usemtl Building_t8.012_22125_331
usemap Building_t8.012_22125_331
f 1/1/1 3/3/3 2/2/2
f 1/1/1 4/4/4 3/3/3
f 5/5/5 7/7/7 6/6/6
f 5/5/5 8/8/8 7/7/7
f 9/9/9 11/11/11 10/10/10
f 9/9/9 12/12/12 11/11/11
