#Building_t8.012_22125_330.obj

v 11.77554 -3.980211 1.170561
v 11.77554 -3.98021 7.97363
v 11.77556 10.10896 7.973629
v 11.77556 10.10896 1.170561
v 1.34701 -3.980225 1.170561
v 1.34701 -3.980224 7.97363
v 11.77554 -3.98021 7.97363
v 11.77554 -3.980211 1.170561
v 1.102465 10.45248 1.17056
v 1.102465 10.45245 7.973629
v 1.34701 -3.980224 7.97363
v 1.34701 -3.980225 1.170561
v 11.77556 10.10896 1.170561
v 11.77556 10.10896 7.973629
v 1.102465 10.45245 7.973629
v 1.102465 10.45248 1.17056
v 11.44673 -9.599107 1.056238
v 11.44673 -9.599106 7.235771
v 11.49124 -3.726303 7.398611
v 11.49124 -3.726304 1.219078
v 5.289384 -9.599097 1.056238
v 5.289384 -9.599096 7.235771
v 11.44673 -9.599106 7.235771
v 11.44673 -9.599107 1.056238
v 5.296168 -3.726294 1.219078
v 5.296168 -3.726294 7.398611
v 5.289384 -9.599096 7.235771
v 5.289384 -9.599097 1.056238

vn 0.9995117 0 -0.003921509
vn 0.9995117 0 -0.003921509
vn 0.9995117 0 -0.003921509
vn 0.9995117 0 -0.003921509
vn -0.003917694 0 0.9995117
vn -0.003917694 0 0.9995117
vn -0.003917694 0 0.9995117
vn -0.003917694 0 0.9995117
vn -0.9995117 0 0.01959229
vn -0.9995117 0 0.01959229
vn -0.9995117 0 0.01959229
vn -0.9995117 0 0.01959229
vn 0.0352478 0 -0.9990234
vn 0.0352478 0 -0.9990234
vn 0.0352478 0 -0.9990234
vn 0.0352478 0 -0.9990234
vn 0.9995117 0 0.003917694
vn 0.9995117 0 0.003917694
vn 0.9995117 0 0.003917694
vn 0.9995117 0 0.003917694
vn -0.003917694 0 0.9995117
vn -0.003917694 0 0.9995117
vn -0.003917694 0 0.9995117
vn -0.003917694 0 0.9995117
vn -0.9995117 0 -0.003917694
vn -0.9995117 0 -0.003917694
vn -0.9995117 0 -0.003917694
vn -0.9995117 0 -0.003917694

vt 1.123047 -0.239624
vt 1.123047 5.535156
vt 13.08594 5.535156
vt 13.08594 -0.239624
vt -0.06506348 -0.239624
vt -0.06506348 5.535156
vt 8.789063 5.535156
vt 8.789063 -0.239624
vt -0.2072754 -0.239624
vt -0.2072754 5.535156
vt -12.46094 5.535156
vt -12.46094 -0.239624
vt 0.2988281 -0.239624
vt 0.2988281 5.535156
vt -8.757813 5.535156
vt -8.757813 -0.239624
vt 1.446289 -0.3366699
vt 1.446289 4.910156
vt 6.433594 5.046875
vt 6.433594 -0.1984863
vt -0.1140137 -0.3366699
vt -0.1140137 4.910156
vt 5.113281 4.910156
vt 5.113281 -0.3366699
vt 1.338867 -0.1984863
vt 1.338867 5.046875
vt -3.646484 4.910156
vt -3.646484 -0.3366699

g Building_t8.012_22125_330
usemtl Building_t8.012_22125_330
usemap Building_t8.012_22125_330
f 1/1/1 3/3/3 2/2/2
f 1/1/1 4/4/4 3/3/3
f 5/5/5 7/7/7 6/6/6
f 5/5/5 8/8/8 7/7/7
f 9/9/9 11/11/11 10/10/10
f 9/9/9 12/12/12 11/11/11
f 13/13/13 15/15/15 14/14/14
f 13/13/13 16/16/16 15/15/15
f 17/17/17 19/19/19 18/18/18
f 17/17/17 20/20/20 19/19/19
f 21/21/21 23/23/23 22/22/22
f 21/21/21 24/24/24 23/23/23
f 25/25/25 27/27/27 26/26/26
f 25/25/25 28/28/28 27/27/27
