#Building_t13.010_24666_890.obj

v -38.07111 -13.39475 -11.13882
v -39.47307 -2.197029 -11.13885
v -30.16792 -18.43443 -11.13881
v -15.78792 -18.29152 -11.13881
v -1.722736 -2.283611 -11.13865
v -1.408074 -18.14834 -11.13881
v -1.408074 -18.1483 -2.836172
v -1.722736 -2.283573 -2.836011
v 12.97192 -18.00547 -2.836173
v 27.37741 14.80231 -2.836255
v 27.20882 -0.4416301 -2.836318
v 11.93748 14.3905 -2.836255
v -3.50242 13.97891 -2.836253
v -18.94242 13.56696 -2.836253
v -39.47307 -2.196991 -2.836213
v -40.8751 9.000943 -2.836242
v -34.38242 13.15515 -2.836251
v 27.37741 14.80235 5.466381
v 42.81741 15.2143 5.466379
v 27.20882 -0.4415925 5.466317
v 58.2574 15.62611 5.466377
v 64.91425 11.39007 5.46639
v 64.19615 -0.3451043 5.466418

vn -0.00402832 0.9995117 0.003807068
vn -0.00402832 0.9995117 0.003807068
vn -0.00402832 0.9995117 0.003807068
vn -0.00402832 0.9995117 0.003807068
vn 0.003808975 0.9995117 0.00402832
vn 0.003808975 0.9995117 0.00402832
vn 0.003808975 0.9995117 0.00402832
vn -0.00402832 0.9995117 0.003807068
vn -0.00402832 0.9995117 0.003807068
vn -0.00402832 0.9995117 0.003807068
vn -0.00402832 0.9995117 0.003807068
vn -0.00402832 0.9995117 0.003807068
vn -0.00402832 0.9995117 0.003807068
vn -0.00402832 0.9995117 0.003807068
vn -0.00402832 0.9995117 0.003807068
vn -0.00402832 0.9995117 0.003807068
vn -0.00402832 0.9995117 0.003807068
vn -0.00402832 0.9995117 0.003807068
vn -0.00402832 0.9995117 0.003807068
vn -0.00402832 0.9995117 0.003807068
vn -0.00402832 0.9995117 0.003807068
vn -0.00402832 0.9995117 0.003807068
vn -0.00402832 0.9995117 0.003807068

vt 1.484375 0.4316406
vt 1.308594 0.4519043
vt 1.564453 0.3083496
vt 1.564453 0.08288574
vt 1.31543 -0.1402588
vt 1.564453 -0.1427002
vt 0.04272461 0.9580078
vt 0.04443359 0.7089844
vt 0.2683105 0.9619141
vt 0.5078125 0.453125
vt 0.4987793 0.6923828
vt 0.265625 0.453125
vt 0.02333069 0.453125
vt -0.2189941 0.453125
vt -0.5473633 0.6918945
vt -0.5644531 0.515625
vt -0.4611816 0.453125
vt 0.1809082 1.251953
vt 0.4230957 1.251953
vt 0.171875 1.491211
vt 0.6655273 1.251953
vt 0.7680664 1.321289
vt 0.7519531 1.504883

g Building_t13.010_24666_890
usemtl Building_t13.010_24666_890
usemap Building_t13.010_24666_890
f 1/1/1 3/3/3 2/2/2
f 4/4/4 2/2/2 3/3/3
f 5/5/5 4/4/4 6/6/6
f 4/4/4 5/5/5 2/2/2
f 7/7/7 9/9/9 8/8/8
f 10/10/10 12/12/12 11/11/11
f 11/11/11 8/8/8 9/9/9
f 8/8/8 11/11/11 12/12/12
f 13/13/13 8/8/8 12/12/12
f 14/14/14 8/8/8 13/13/13
f 8/8/8 14/14/14 15/15/15
f 16/16/16 15/15/15 17/17/17
f 15/15/15 14/14/14 17/17/17
f 18/18/18 20/20/20 19/19/19
f 21/21/21 23/23/23 22/22/22
f 23/23/23 19/19/19 20/20/20
f 19/19/19 23/23/23 21/21/21
