#Building_t8.014_25317_417.obj

v -5.112387 5.312981 0.3849173
v -5.112387 5.312983 1.015366
v -0.9179592 5.312984 2.393851
v -0.9179592 5.312982 1.763425
v -5.112384 10.77529 0.3849075
v -5.112384 10.77529 1.015356
v -0.917956 10.77529 2.393841
v -0.917956 10.77529 1.763415
v -5.112412 7.955642 0.3849125
v -5.112412 7.955644 1.015361
v -0.9179538 7.955645 2.393846
v -0.9179538 7.955642 1.76342
v -5.112387 5.312981 0.3849173
v -0.9179592 5.312982 1.763425
v -0.9179592 5.312984 2.393851
v -5.112387 5.312983 1.015366
v -5.112384 10.77529 0.3849075
v -0.917956 10.77529 1.763415
v -0.917956 10.77529 2.393841
v -5.112384 10.77529 1.015356
v -5.112412 7.955642 0.3849125
v -0.9179538 7.955642 1.76342
v -0.9179538 7.955645 2.393846
v -5.112412 7.955644 1.015361

vn -0.9995117 -1.609325E-06 0.01896667
vn -0.9995117 -1.609325E-06 0.01896667
vn -0.9995117 -1.609325E-06 0.01896667
vn -0.9995117 -1.609325E-06 0.01896667
vn -0.9995117 -1.609325E-06 0.01896667
vn -0.9995117 -1.609325E-06 0.01896667
vn -0.9995117 -1.609325E-06 0.01896667
vn -0.9995117 -1.609325E-06 0.01896667
vn -0.9995117 -1.609325E-06 0.01896667
vn -0.9995117 -1.609325E-06 0.01896667
vn -0.9995117 -1.609325E-06 0.01896667
vn -0.9995117 -1.609325E-06 0.01896667
vn 0.9995117 1.66893E-06 -0.02680969
vn 0.9995117 1.66893E-06 -0.02680969
vn 0.9995117 1.66893E-06 -0.02680969
vn 0.9995117 1.66893E-06 -0.02680969
vn 0.9995117 1.66893E-06 -0.02680969
vn 0.9995117 1.66893E-06 -0.02680969
vn 0.9995117 1.66893E-06 -0.02680969
vn 0.9995117 1.66893E-06 -0.02680969
vn 0.9995117 1.66893E-06 -0.02680969
vn 0.9995117 1.66893E-06 -0.02680969
vn 0.9995117 1.66893E-06 -0.02680969
vn 0.9995117 1.66893E-06 -0.02680969

vt -1.499023 -2.801418E-06
vt -1.499023 1
vt 2.498047 1
vt 2.498047 -2.801418E-06
vt -1.499023 -2.801418E-06
vt -1.499023 1
vt 2.498047 1
vt 2.498047 -2.801418E-06
vt -1.499023 -2.801418E-06
vt -1.499023 1
vt 2.498047 1
vt 2.498047 -2.801418E-06
vt -1.499023 -2.801418E-06
vt 2.498047 -2.801418E-06
vt 2.498047 1
vt -1.499023 1
vt -1.499023 -2.801418E-06
vt 2.498047 -2.801418E-06
vt 2.498047 1
vt -1.499023 1
vt -1.499023 -2.801418E-06
vt 2.498047 -2.801418E-06
vt 2.498047 1
vt -1.499023 1

g Building_t8.014_25317_417
usemtl Building_t8.014_25317_417
usemap Building_t8.014_25317_417
f 1/1/1 3/3/3 2/2/2
f 1/1/1 4/4/4 3/3/3
f 5/5/5 7/7/7 6/6/6
f 5/5/5 8/8/8 7/7/7
f 9/9/9 11/11/11 10/10/10
f 9/9/9 12/12/12 11/11/11
f 13/13/13 15/15/15 14/14/14
f 13/13/13 16/16/16 15/15/15
f 17/17/17 19/19/19 18/18/18
f 17/17/17 20/20/20 19/19/19
f 21/21/21 23/23/23 22/22/22
f 21/21/21 24/24/24 23/23/23
