#Building_t8.004_(1)_26677_439.obj

v 5.289341 -9.599081 1.056238
v 5.28934 -9.599081 7.23577
v 5.296168 -3.726323 1.219079
v 5.296167 -3.726323 7.398611
v 11.44673 -9.599074 1.056239
v 11.44672 -9.599074 7.235771
v 5.289341 -9.599081 1.056238
v 5.28934 -9.599081 7.23577
v 11.49124 -3.726316 1.219078
v 11.49123 -3.726316 7.398611
v 11.44673 -9.599074 1.056239
v 11.44672 -9.599074 7.235771
v 1.102509 10.45246 1.170559
v 1.102507 10.45246 7.973628
v 11.77557 10.10899 1.17056
v 11.77557 10.10899 7.973629
v 1.346995 -3.980207 1.170562
v 1.346994 -3.980207 7.97363
v 1.102509 10.45246 1.170559
v 1.102507 10.45246 7.973628
v 11.77551 -3.980196 1.170562
v 11.77551 -3.980196 7.97363
v 1.346995 -3.980207 1.170562
v 1.346994 -3.980207 7.97363
v 11.77557 10.10899 1.17056
v 11.77557 10.10899 7.973629
v 11.77551 -3.980196 1.170562
v 11.77551 -3.980196 7.97363

vn 0.9995117 1.788139E-07 -0.004043579
vn 0.9995117 1.788139E-07 -0.004043579
vn 0.9995117 1.788139E-07 -0.004043579
vn 0.9995117 1.788139E-07 -0.004043579
vn 0.003803253 5.960464E-08 0.9995117
vn 0.003803253 5.960464E-08 0.9995117
vn 0.003803253 5.960464E-08 0.9995117
vn 0.003803253 5.960464E-08 0.9995117
vn -0.9995117 -1.788139E-07 0.004043579
vn -0.9995117 -1.788139E-07 0.004043579
vn -0.9995117 -1.788139E-07 0.004043579
vn -0.9995117 -1.788139E-07 0.004043579
vn -0.03421021 -5.960464E-08 -0.9990234
vn -0.03421021 -5.960464E-08 -0.9990234
vn -0.03421021 -5.960464E-08 -0.9990234
vn -0.03421021 -5.960464E-08 -0.9990234
vn 0.9995117 1.788139E-07 0.02020264
vn 0.9995117 1.788139E-07 0.02020264
vn 0.9995117 1.788139E-07 0.02020264
vn 0.9995117 1.788139E-07 0.02020264
vn 0.003803253 5.960464E-08 0.9995117
vn 0.003803253 5.960464E-08 0.9995117
vn 0.003803253 5.960464E-08 0.9995117
vn 0.003803253 5.960464E-08 0.9995117
vn -0.9995117 -1.788139E-07 -0.004039764
vn -0.9995117 -1.788139E-07 -0.004039764
vn -0.9995117 -1.788139E-07 -0.004039764
vn -0.9995117 -1.788139E-07 -0.004039764

vt -3.646484 -0.3366699
vt -3.646484 4.910156
vt 1.338867 -0.1984863
vt 1.338867 5.046875
vt 5.113281 -0.3366699
vt 5.113281 4.910156
vt -0.1140137 -0.3366699
vt -0.1140137 4.910156
vt 6.433594 -0.1984863
vt 6.433594 5.046875
vt 1.446289 -0.3366699
vt 1.446289 4.910156
vt -8.757813 -0.239624
vt -8.757813 5.535156
vt 0.2988281 -0.239624
vt 0.2988281 5.535156
vt -12.46094 -0.239624
vt -12.46094 5.535156
vt -0.2072754 -0.239624
vt -0.2072754 5.535156
vt 8.789063 -0.239624
vt 8.789063 5.535156
vt -0.06506348 -0.239624
vt -0.06506348 5.535156
vt 13.08594 -0.239624
vt 13.08594 5.535156
vt 1.123047 -0.239624
vt 1.123047 5.535156

g Building_t8.004_(1)_26677_439
usemtl Building_t8.004_(1)_26677_439
usemap Building_t8.004_(1)_26677_439
f 1/1/1 3/3/3 2/2/2
f 2/2/2 3/3/3 4/4/4
f 5/5/5 7/7/7 6/6/6
f 6/6/6 7/7/7 8/8/8
f 9/9/9 11/11/11 10/10/10
f 10/10/10 11/11/11 12/12/12
f 13/13/13 15/15/15 14/14/14
f 14/14/14 15/15/15 16/16/16
f 17/17/17 19/19/19 18/18/18
f 18/18/18 19/19/19 20/20/20
f 21/21/21 23/23/23 22/22/22
f 22/22/22 23/23/23 24/24/24
f 25/25/25 27/27/27 26/26/26
f 26/26/26 27/27/27 28/28/28
