#Building_t4.001_25304_448.obj

v -0.236284 0.8817369 -0.08602656
v -0.236284 0.881737 0.8516184
v -1.472574 0.8817389 0.8516184
v -1.472574 0.8817388 -0.08602656
v -0.2362867 -0.8072513 -0.08602649
v -1.472572 -0.8072494 -0.08602649
v -1.472572 -0.8072492 0.8516186
v -0.2362867 -0.8072512 0.8516186
v -0.1473438 -0.9183156 1.000001
v -0.1473438 -0.9183156 1.528208
v 0.91106 -0.9183173 1.528208
v 0.91106 -0.9183173 1.000001
v 0.91106 -0.9183173 1.000001
v 0.91106 -0.9183173 1.528208
v 0.9110582 0.9927996 1.528208
v 0.9110582 0.9927996 1.000001
v -0.1473456 0.9927916 1.000001
v -0.1473456 0.9927917 1.528208
v -0.1473438 -0.9183156 1.528208
v -0.1473438 -0.9183156 1.000001
v 0.9110582 0.9927996 1.000001
v 0.9110582 0.9927996 1.528208
v -0.1473456 0.9927917 1.528208
v -0.1473456 0.9927916 1.000001

vn -0.003921509 0 -0.9995117
vn -0.003921509 0 -0.9995117
vn -0.003921509 0 -0.9995117
vn -0.003921509 0 -0.9995117
vn -0.003917694 0 0.9995117
vn -0.003917694 0 0.9995117
vn -0.003917694 0 0.9995117
vn -0.003917694 0 0.9995117
vn -0.003917694 0 0.9995117
vn -0.003917694 0 0.9995117
vn -0.003917694 0 0.9995117
vn -0.003917694 0 0.9995117
vn 0.9995117 0 -0.003921509
vn 0.9995117 0 -0.003921509
vn 0.9995117 0 -0.003921509
vn 0.9995117 0 -0.003921509
vn -0.9995117 0 -0.003917694
vn -0.9995117 0 -0.003917694
vn -0.9995117 0 -0.003917694
vn -0.9995117 0 -0.003917694
vn -0.003921509 0 -0.9995117
vn -0.003921509 0 -0.9995117
vn -0.003921509 0 -0.9995117
vn -0.003921509 0 -0.9995117

vt -3.576279E-06 1
vt 1 1
vt 1 -3.576279E-06
vt -3.576279E-06 -3.576279E-06
vt -3.576279E-06 -3.576279E-06
vt -3.576279E-06 1
vt 1 1
vt 1 -3.576279E-06
vt -3.576279E-06 1.407227
vt 1 1.407227
vt 1 -0.407959
vt -3.576279E-06 -0.407959
vt -3.576279E-06 -0.407959
vt 1 -0.407959
vt 1 1.407227
vt -3.576279E-06 1.407227
vt -3.576279E-06 -0.407959
vt 1 -0.407959
vt 1 1.407227
vt -3.576279E-06 1.407227
vt -3.576279E-06 1.407227
vt 1 1.407227
vt 1 -0.407959
vt -3.576279E-06 -0.407959

g Building_t4.001_25304_448
usemtl Building_t4.001_25304_448
usemap Building_t4.001_25304_448
f 1/1/1 3/3/3 2/2/2
f 1/1/1 4/4/4 3/3/3
f 5/5/5 7/7/7 6/6/6
f 5/5/5 8/8/8 7/7/7
f 9/9/9 11/11/11 10/10/10
f 9/9/9 12/12/12 11/11/11
f 13/13/13 15/15/15 14/14/14
f 13/13/13 16/16/16 15/15/15
f 17/17/17 19/19/19 18/18/18
f 17/17/17 20/20/20 19/19/19
f 21/21/21 23/23/23 22/22/22
f 21/21/21 24/24/24 23/23/23
