#Building_small_t1.111_(1)_23807_627.obj

v 0.1552656 0.2575411 0.4531844
v 0.1552653 0.3155938 -1.816344
v 0.1552662 -1.078481 -1.852003
v 0.1552665 -1.136534 0.4175251

vn 0.003917694 5.960464E-08 0.9995117
vn 0.003917694 5.960464E-08 0.9995117
vn 0.003917694 5.960464E-08 0.9995117
vn 0.003917694 5.960464E-08 0.9995117

vt -4.768372E-07 -4.768372E-07
vt -4.768372E-07 1
vt 1 1
vt 1 -4.768372E-07

g Building_small_t1.111_(1)_23807_627
usemtl Building_small_t1.111_(1)_23807_627
usemap Building_small_t1.111_(1)_23807_627
f 1/1/1 3/3/3 2/2/2
f 1/1/1 4/4/4 3/3/3
