#Building_2parts_22877_556.obj

v 0.9999993 0.8959967 -0.7266286
v 1.098678 0.8959966 -0.7266286
v 1.098678 -0.8959982 -0.7266287
v 0.9999994 -0.8959981 -0.7266287
v -0.5269669 -1.395923 -0.6861711
v -0.1737905 -1.395922 -0.6861711
v -0.1737905 -1.774237 -0.6861711
v -0.5269668 -1.774237 -0.6861711
v -0.800912 0.8009106 -0.5653772
v -0.9999999 0.9999985 -0.5653772
v 0.9999995 0.9999986 -0.5653772
v 0.8009112 0.8009114 -0.5653772
v 0.9999992 -0.9999999 -0.5653773
v 0.8009113 -0.8701394 -0.5653772
v 0.7003247 -1.131973 -0.5653772
v 0.6116421 -0.9534938 -0.5653772
v -0.800912 -1.196835 -0.5653772
v -0.9999999 -1.395922 -0.5653772
v 0.2289968 -1.196834 -0.5653772
v 0.2992426 -1.395922 -0.5653772
v 0.3513194 -1.098239 -0.5653772
v 0.462977 -1.26395 -0.5653773
v -0.8214515 -1.855566 -0.5653773
v -1 -1.752018 -0.5653772
v 0.2992426 -1.752017 -0.5653772
v 0.1206944 -1.855566 -0.5653773
v 0.2992428 -3.527505 -0.5653773
v 0.1206942 -2.977828 -0.5653773
v -0.9999999 -3.527505 -0.5653773
v -0.8214514 -2.977828 -0.5653773
v -0.6706319 -2.410054 -0.3415614
v -0.8214515 -1.855566 -0.3415614
v 0.1206944 -1.855566 -0.3415614
v -0.0301254 -2.410054 -0.3415614
v 0.1206942 -2.977828 -0.3415614
v -0.03012534 -2.88817 -0.3415614
v -0.8214514 -2.977828 -0.3415614
v -0.6706318 -2.888169 -0.3415614
v -0.0301254 -2.410054 0.2242175
v -0.03012534 -2.88817 0.2242174
v -0.6706318 -2.888169 0.2242174
v -0.6706319 -2.410054 0.2242175
v -0.7215859 0.7215846 0.463232
v 0.7215853 0.7215844 0.463232
v 0.7215853 -0.8183945 0.4632319
v 0.5763053 -0.8823761 0.4632319
v 0.3068291 -1.032215 0.4632319
v 0.2010092 -1.117508 0.4632319
v -0.7215858 -1.117508 0.4632319

vn 0.003921509 0.9995117 0.003921509
vn 0.003921509 0.9995117 0.003921509
vn 0.003921509 0.9995117 0.003921509
vn 0.003921509 0.9995117 0.003921509
vn 0.003921509 0.9995117 0.003921509
vn 0.003921509 0.9995117 0.003921509
vn 0.003921509 0.9995117 0.003921509
vn 0.003921509 0.9995117 0.003921509
vn 0.003921509 0.9995117 0.003921509
vn 0.003921509 0.9995117 0.003921509
vn 0.003921509 0.9995117 0.003921509
vn 0.003921509 0.9995117 0.003921509
vn 0.003921509 0.9995117 0.003921509
vn 0.003921509 0.9995117 0.003921509
vn 0.003921509 0.9995117 0.003921509
vn 0.003921509 0.9995117 0.003921509
vn 0.003921509 0.9995117 0.003921509
vn 0.003921509 0.9995117 0.003921509
vn 0.003921509 0.9995117 0.003921509
vn 0.003921509 0.9995117 0.003921509
vn 0.003921509 0.9995117 0.003921509
vn 0.003921509 0.9995117 0.003921509
vn 0.003921509 0.9995117 0.003921509
vn 0.003921509 0.9995117 0.003921509
vn 0.003921509 0.9995117 0.003921509
vn 0.003921509 0.9995117 0.003921509
vn 0.003921509 0.9995117 0.003921509
vn 0.003921509 0.9995117 0.003921509
vn 0.003921509 0.9995117 0.003921509
vn 0.003921509 0.9995117 0.003921509
vn 0.003921509 0.9995117 0.003921509
vn 0.003921509 0.9995117 0.003921509
vn 0.003921509 0.9995117 0.003921509
vn 0.003921509 0.9995117 0.003921509
vn 0.003921509 0.9995117 0.003921509
vn 0.003921509 0.9995117 0.003921509
vn 0.003921509 0.9995117 0.003921509
vn 0.003921509 0.9995117 0.003921509
vn 0.003921509 0.9995117 0.003921509
vn 0.003921509 0.9995117 0.003921509
vn 0.003921509 0.9995117 0.003921509
vn 0.003921509 0.9995117 0.003921509
vn 0.003921509 0.9995117 0.003921509
vn 0.003921509 0.9995117 0.003921509
vn 0.003921509 0.9995117 0.003921509
vn 0.003921509 0.9995117 0.003921509
vn 0.003921509 0.9995117 0.003921509
vn 0.003921509 0.9995117 0.003921509
vn 0.003921509 0.9995117 0.003921509

vt 1.734375 -0.8901367
vt 1.578125 -0.8901367
vt 1.578125 1.554688
vt 1.734375 1.554688
vt 0.4697266 0.7431641
vt 0.6606445 0.7431641
vt 0.6606445 0.9594727
vt 0.4697266 0.9594727
vt -0.7363281 1.65918
vt -0.8901367 1.889648
vt 0.6533203 1.889648
vt 0.5 1.65918
vt 0.6533203 -0.4306641
vt 0.5 -0.2800293
vt 0.4221191 -0.5839844
vt 0.3537598 -0.376709
vt -0.7363281 -0.6591797
vt -0.8901367 -0.8901367
vt 0.05844116 -0.6591797
vt 0.1126709 -0.8901367
vt 0.152832 -0.5444336
vt 0.2390137 -0.7368164
vt -0.668457 1.703125
vt -0.8901367 1.867188
vt 0.7211914 1.867188
vt 0.5 1.703125
vt 0.7211914 -0.8901367
vt 0.5 -0.06634521
vt -0.8901367 -0.8901367
vt -0.668457 -0.06634521
vt 0.9082031 0.005275726
vt 0.7211914 0.8798828
vt 1.889648 0.8798828
vt 1.703125 0.005275726
vt 1.889648 -0.8901367
vt 1.703125 -0.7485352
vt 0.7211914 -0.8901367
vt 0.9082031 -0.7485352
vt 1.314453 0.8798828
vt 0.7211914 0.8798828
vt 0.7211914 1.889648
vt 1.314453 1.889648
vt 0.7148438 1.335938
vt 1.829102 1.335938
vt 1.829102 -0.4509277
vt 1.716797 -0.5253906
vt 1.508789 -0.6992188
vt 1.426758 -0.7978516
vt 0.7148438 -0.7978516

g Building_2parts_22877_556
usemtl Building_2parts_22877_556
usemap Building_2parts_22877_556
f 1/1/1 3/3/3 2/2/2
f 1/1/1 4/4/4 3/3/3
f 5/5/5 7/7/7 6/6/6
f 5/5/5 8/8/8 7/7/7
f 9/9/9 11/11/11 10/10/10
f 9/9/9 12/12/12 11/11/11
f 12/12/12 13/13/13 11/11/11
f 12/12/12 14/14/14 13/13/13
f 14/14/14 15/15/15 13/13/13
f 14/14/14 16/16/16 15/15/15
f 17/17/17 9/9/9 10/10/10
f 17/17/17 10/10/10 18/18/18
f 19/19/19 17/17/17 18/18/18
f 19/19/19 18/18/18 20/20/20
f 21/21/21 19/19/19 20/20/20
f 21/21/21 20/20/20 22/22/22
f 16/16/16 22/22/22 15/15/15
f 16/16/16 21/21/21 22/22/22
f 23/23/23 25/25/25 24/24/24
f 23/23/23 26/26/26 25/25/25
f 26/26/26 27/27/27 25/25/25
f 26/26/26 28/28/28 27/27/27
f 28/28/28 29/29/29 27/27/27
f 28/28/28 30/30/30 29/29/29
f 30/30/30 24/24/24 29/29/29
f 30/30/30 23/23/23 24/24/24
f 31/31/31 33/33/33 32/32/32
f 31/31/31 34/34/34 33/33/33
f 34/34/34 35/35/35 33/33/33
f 34/34/34 36/36/36 35/35/35
f 36/36/36 37/37/37 35/35/35
f 36/36/36 38/38/38 37/37/37
f 38/38/38 32/32/32 37/37/37
f 38/38/38 31/31/31 32/32/32
f 39/39/39 41/41/41 40/40/40
f 39/39/39 42/42/42 41/41/41
f 43/43/43 45/45/45 44/44/44
f 45/45/45 43/43/43 46/46/46
f 46/46/46 43/43/43 47/47/47
f 47/47/47 43/43/43 48/48/48
f 48/48/48 43/43/43 49/49/49
