#Building_big_1.002_22826_1039.obj

v 11.30192 -8.094263 3.727041
v 20.03171 -8.094235 3.727041
v 20.03171 -8.094235 -0.07119346
v 11.30192 -8.094263 -0.07119349
v -20.54043 -8.094279 3.727041
v -11.63509 -8.094265 3.727041
v -11.63509 -8.094265 -0.07119362
v -20.54043 -8.094279 -0.07119364

vn 0.5751953 5.960464E-08 -0.8173828
vn 0.5751953 5.960464E-08 -0.8173828
vn 0.5751953 5.960464E-08 -0.8173828
vn 0.5751953 5.960464E-08 -0.8173828
vn 0.5751953 5.960464E-08 -0.8173828
vn 0.5751953 5.960464E-08 -0.8173828
vn 0.5751953 5.960464E-08 -0.8173828
vn 0.5751953 5.960464E-08 -0.8173828

vt 3.397465E-06 1
vt 1.999023 1
vt 1.999023 3.397465E-06
vt 3.397465E-06 3.397465E-06
vt 3.397465E-06 1
vt 1.999023 1
vt 1.999023 3.397465E-06
vt 3.397465E-06 3.397465E-06

g Building_big_1.002_22826_1039
usemtl Building_big_1.002_22826_1039
usemap Building_big_1.002_22826_1039
f 1/1/1 3/3/3 2/2/2
f 1/1/1 4/4/4 3/3/3
f 5/5/5 7/7/7 6/6/6
f 5/5/5 8/8/8 7/7/7
