#Building_t13_25849_924.obj

v -38.07114 -13.39476 -11.13885
v -39.47303 -2.196945 -11.13886
v -30.1679 -18.43445 -11.13885
v -15.7879 -18.29151 -11.13885
v -1.722806 -2.283544 -11.13865
v -1.408053 -18.14829 -11.13885
v -1.408053 -18.14829 -2.836211
v -1.722806 -2.283545 -2.836016
v 12.97195 -18.00549 -2.836211
v 27.37745 14.80229 -2.836225
v 27.20883 -0.4416382 -2.83632
v 11.93751 14.39044 -2.836225
v -3.502448 13.97888 -2.836224
v -18.94239 13.5669 -2.836226
v -39.47303 -2.196947 -2.83622
v -40.87507 9.001003 -2.836225
v -34.38248 13.15519 -2.836226
v 27.37745 14.80229 5.466412
v 42.81739 15.21427 5.466411
v 27.20883 -0.4416393 5.466316
v 58.25748 15.62612 5.466411
v 64.91426 11.39003 5.466415
v 64.19611 -0.3451663 5.46642

vn -0.004081726 0.9995117 0.003751755
vn -0.004081726 0.9995117 0.003751755
vn -0.004081726 0.9995117 0.003751755
vn -0.004081726 0.9995117 0.003751755
vn 0.003751755 0.9995117 0.004081726
vn 0.003751755 0.9995117 0.004081726
vn 0.003751755 0.9995117 0.004081726
vn -0.004081726 0.9995117 0.003751755
vn -0.004081726 0.9995117 0.003751755
vn -0.004081726 0.9995117 0.003751755
vn -0.004081726 0.9995117 0.003751755
vn -0.004081726 0.9995117 0.003751755
vn -0.004081726 0.9995117 0.003751755
vn -0.004081726 0.9995117 0.003751755
vn -0.004081726 0.9995117 0.003751755
vn -0.004081726 0.9995117 0.003751755
vn -0.004081726 0.9995117 0.003751755
vn -0.004081726 0.9995117 0.003751755
vn -0.004081726 0.9995117 0.003751755
vn -0.004081726 0.9995117 0.003751755
vn -0.004081726 0.9995117 0.003751755
vn -0.004081726 0.9995117 0.003751755
vn -0.004081726 0.9995117 0.003751755

vt 1.484375 0.4316406
vt 1.308594 0.4519043
vt 1.564453 0.3083496
vt 1.564453 0.08288574
vt 1.31543 -0.1402588
vt 1.564453 -0.1427002
vt 0.04272461 0.9580078
vt 0.04443359 0.7089844
vt 0.2683105 0.9619141
vt 0.5078125 0.453125
vt 0.4987793 0.6923828
vt 0.265625 0.453125
vt 0.02333069 0.453125
vt -0.2189941 0.453125
vt -0.5473633 0.6918945
vt -0.5644531 0.515625
vt -0.4611816 0.453125
vt 0.1809082 1.251953
vt 0.4230957 1.251953
vt 0.171875 1.491211
vt 0.6655273 1.251953
vt 0.7680664 1.321289
vt 0.7519531 1.504883

g Building_t13_25849_924
usemtl Building_t13_25849_924
usemap Building_t13_25849_924
f 1/1/1 3/3/3 2/2/2
f 4/4/4 2/2/2 3/3/3
f 5/5/5 4/4/4 6/6/6
f 4/4/4 5/5/5 2/2/2
f 7/7/7 9/9/9 8/8/8
f 10/10/10 12/12/12 11/11/11
f 11/11/11 8/8/8 9/9/9
f 8/8/8 11/11/11 12/12/12
f 13/13/13 8/8/8 12/12/12
f 14/14/14 8/8/8 13/13/13
f 8/8/8 14/14/14 15/15/15
f 16/16/16 15/15/15 17/17/17
f 15/15/15 14/14/14 17/17/17
f 18/18/18 20/20/20 19/19/19
f 21/21/21 23/23/23 22/22/22
f 23/23/23 19/19/19 20/20/20
f 19/19/19 23/23/23 21/21/21
