#Building_t15_22574_1055.obj

v 14.0228 14.23379 -33.10359
v 13.9351 -14.23382 -33.10359
v -13.97913 14.23381 -33.10359
v -13.97912 -14.2338 -33.10359

vn 0.003955841 0.9995117 0.003883362
vn 0.003955841 0.9995117 0.003883362
vn 0.003955841 0.9995117 0.003883362
vn 0.003955841 0.9995117 0.003883362

vt -0.1368408 3.583984
vt -0.1466064 6.625
vt -3.236328 3.583984
vt -3.236328 6.625

g Building_t15_22574_1055
usemtl Building_t15_22574_1055
usemap Building_t15_22574_1055
f 1/1/1 3/3/3 2/2/2
f 2/2/2 3/3/3 4/4/4
