#Building_t4_22361_368.obj

v -1.995807 -0.6572044 1.606976
v -2.555101 -0.6572034 1.606976
v -2.555099 0.5200063 1.606976
v -1.995805 0.5200053 1.606976

vn 0.003921509 0.9995117 0.003921509
vn 0.003921509 0.9995117 0.003921509
vn 0.003921509 0.9995117 0.003921509
vn 0.003921509 0.9995117 0.003921509

vt 1.337891 0.06298828
vt 0.8754883 0.06298828
vt 0.8754883 1.036133
vt 1.337891 1.036133

g Building_t4_22361_368
usemtl Building_t4_22361_368
usemap Building_t4_22361_368
f 1/1/1 3/3/3 2/2/2
f 1/1/1 4/4/4 3/3/3
