#Building_t12_25460_23.obj

v 16.33197 13.58983 -48.31503
v 66.16099 13.93659 -48.31503
v 16.49522 -11.25267 -48.31489
v 66.40899 -27.76067 -48.31503
v -54.65955 -30.3596 -48.31503
v -53.67547 31.1929 -48.31505
v -28.69459 31.19402 -48.31505
v -28.69441 -11.25265 -48.31504

vn 0.003780365 0.9995117 0.004055023
vn 0.003780365 0.9995117 0.004055023
vn 0.003780365 0.9995117 0.004055023
vn 0.003780365 0.9995117 0.004055023
vn 0.003780365 0.9995117 0.004055023
vn 0.003780365 0.9995117 0.004055023
vn 0.003780365 0.9995117 0.004055023
vn 0.003780365 0.9995117 0.004055023

vt 0.8383789 2.757813
vt 0.8486328 4.5
vt 0.2612305 2.757813
vt -0.2106934 4.503906
vt -0.2849121 0.2675781
vt 1.474609 0.302002
vt 1.474609 1.176758
vt 0.2612305 1.176758

g Building_t12_25460_23
usemtl Building_t12_25460_23
usemap Building_t12_25460_23
f 1/1/1 3/3/3 2/2/2
f 2/2/2 3/3/3 4/4/4
f 4/4/4 3/3/3 5/5/5
f 6/6/6 8/8/8 7/7/7
f 6/6/6 5/5/5 8/8/8
f 8/8/8 5/5/5 3/3/3
