#Entrance_Module_(2)_23720_276.obj

v -1.00002 -0.9999999 1.876082E-06
v -1.000019 0.5950969 2.062537E-06
v 1.000019 0.5950967 -1.923412E-06
v 1.000019 -0.9999999 -2.109867E-06

vn 0.9995117 1.788139E-07 0.01957703
vn 0.9995117 1.788139E-07 0.01957703
vn 0.9995117 1.788139E-07 0.01957703
vn 0.9995117 1.788139E-07 0.01957703

vt 8.171797E-05 8.183718E-05
vt 8.195639E-05 1
vt 0.9995117 1
vt 0.9995117 8.171797E-05

g Entrance_Module_(2)_23720_276
usemtl Entrance_Module_(2)_23720_276
usemap Entrance_Module_(2)_23720_276
f 1/1/1 3/3/3 2/2/2
f 1/1/1 4/4/4 3/3/3
