#Entrance_Module_(7)_22867_286.obj

v -0.9999935 -0.9999999 1.521512E-06
v -0.9999935 0.5950969 1.643337E-06
v 0.9999935 0.5950969 -1.552436E-06
v 0.9999935 -0.9999999 -1.674261E-06

vn 1 5.960464E-08 2.384186E-06
vn 1 5.960464E-08 2.384186E-06
vn 1 5.960464E-08 2.384186E-06
vn 1 5.960464E-08 2.384186E-06

vt 8.171797E-05 8.183718E-05
vt 8.195639E-05 1
vt 0.9995117 1
vt 0.9995117 8.171797E-05

g Entrance_Module_(7)_22867_286
usemtl Entrance_Module_(7)_22867_286
usemap Entrance_Module_(7)_22867_286
f 1/1/1 3/3/3 2/2/2
f 1/1/1 4/4/4 3/3/3
