#Entrance_Module_(3)_24281_268.obj

v -1.000026 -0.9999999 1.211553E-06
v -1.000026 0.5950969 1.517039E-06
v 1.000026 0.5950967 -1.289099E-06
v 1.000026 -0.9999999 -1.594585E-06

vn 1 1.788139E-07 2.145767E-06
vn 1 1.788139E-07 2.145767E-06
vn 1 1.788139E-07 2.145767E-06
vn 1 1.788139E-07 2.145767E-06

vt 8.171797E-05 8.183718E-05
vt 8.195639E-05 1
vt 0.9995117 1
vt 0.9995117 8.171797E-05

g Entrance_Module_(3)_24281_268
usemtl Entrance_Module_(3)_24281_268
usemap Entrance_Module_(3)_24281_268
f 1/1/1 3/3/3 2/2/2
f 1/1/1 4/4/4 3/3/3
