#Epic_Door_Top_25178_17.obj

v 0.4366436 3.591902 5.091794
v -0.02008523 3.591902 5.091794
v -0.02007955 6.879457 5.091795
v 0.4366492 6.879457 5.091795
v 0.4366338 -2.034777 5.091793
v -0.02009495 -2.034777 5.091793
v -0.02008927 1.252696 5.091794
v 0.4366395 1.252778 5.091794
v 0.4366241 -7.693288 5.049014
v -0.02010473 -7.693288 5.049014
v -0.02009905 -4.405815 5.049015
v 0.4366297 -4.405816 5.049015

vn 0.003921509 0.9995117 0.003921509
vn 0.003921509 0.9995117 0.003921509
vn 0.003921509 0.9995117 0.003921509
vn 0.003921509 0.9995117 0.003921509
vn 0.003921509 0.9995117 0.003921509
vn 0.003921509 0.9995117 0.003921509
vn 0.003921509 0.9995117 0.003921509
vn 0.003921509 0.9995117 0.003921509
vn 0.003921509 0.9995117 0.003921509
vn 0.003921509 0.9995117 0.003921509
vn 0.003921509 0.9995117 0.003921509
vn 0.003921509 0.9995117 0.003921509

vt 0 0
vt 0 0
vt 0 0
vt 0 0
vt 0 0
vt 0 0
vt 0 0
vt 0 0
vt 0 0
vt 0 0
vt 0 0
vt 0 0

g Epic_Door_Top_25178_17
usemtl Epic_Door_Top_25178_17
usemap Epic_Door_Top_25178_17
f 1/1/1 3/3/3 2/2/2
f 1/1/1 4/4/4 3/3/3
f 5/5/5 7/7/7 6/6/6
f 5/5/5 8/8/8 7/7/7
f 9/9/9 11/11/11 10/10/10
f 9/9/9 12/12/12 11/11/11
