#Light_01_(1)_673_40.obj

v 1.331319 2.797648 -2.214545
v 1.331319 -2.991945 -2.214547
v 1.347059 -2.991945 -2.235307
v 1.347059 2.797648 -2.235307
v 1.331319 2.797648 -3.645462
v 1.331319 -2.991945 -3.645462
v 1.347059 -2.991945 -3.666224
v 1.347059 2.797648 -3.666223
v -1.376253 2.797648 -2.214546
v -1.376253 -2.991945 -2.214546
v -1.360512 -2.991945 -2.235307
v -1.360512 2.797648 -2.235307
v -1.376253 2.797648 -3.645462
v -1.376253 -2.991945 -3.645462
v -1.360512 -2.991945 -3.666223
v -1.360512 2.797648 -3.666223

vn 0.5 0 -0.8657227
vn 0.5 0 -0.8657227
vn 0.5 0 -0.8657227
vn 0.5 0 -0.8657227
vn 0.5 0 -0.8657227
vn 0.5 0 -0.8657227
vn 0.5 0 -0.8657227
vn 0.5 0 -0.8657227
vn 0.5 0 -0.8657227
vn 0.5 0 -0.8657227
vn 0.5 0 -0.8657227
vn 0.5 0 -0.8657227
vn 0.5 0 -0.8657227
vn 0.5 0 -0.8657227
vn 0.5 0 -0.8657227
vn 0.5 0 -0.8657227

vt 0.4355469 0.4592285
vt 0.4960938 0.4592285
vt 0.4960938 0.4592285
vt 0.4355469 0.4592285
vt 0.4355469 0.4445801
vt 0.4960938 0.4445801
vt 0.4960938 0.4443359
vt 0.4355469 0.4443359
vt 0.4355469 0.4592285
vt 0.4960938 0.4592285
vt 0.4960938 0.4592285
vt 0.4355469 0.4592285
vt 0.4355469 0.4445801
vt 0.4960938 0.4445801
vt 0.4960938 0.4443359
vt 0.4355469 0.4443359

g Light_01_(1)_673_40
usemtl Light_01_(1)_673_40
usemap Light_01_(1)_673_40
f 1/1/1 3/3/3 2/2/2
f 1/1/1 4/4/4 3/3/3
f 5/5/5 7/7/7 6/6/6
f 5/5/5 8/8/8 7/7/7
f 9/9/9 11/11/11 10/10/10
f 9/9/9 12/12/12 11/11/11
f 13/13/13 15/15/15 14/14/14
f 13/13/13 16/16/16 15/15/15
