#lod1_24672_77.obj

v 0.3306817 -1.241307E-06 4.313994
v 1.423908E-06 0.3306838 4.313994
v 1.403205E-06 0.5532534 4.313994
v 0.5532511 -1.626027E-06 4.313994
v 1.496982E-06 -0.3306819 4.313994
v 1.517686E-06 -0.5532507 4.313994
v -0.3306841 -1.719802E-06 4.313994
v -0.5532535 -1.335083E-06 4.313994
v 1.423908E-06 0.3306838 4.343631
v 0.3306817 -1.245254E-06 4.343631
v 1.496982E-06 -0.3306819 4.343631
v -0.3306841 -1.723749E-06 4.343631

vn 0.003845215 0.9995117 0.003845215
vn 0.003845215 0.9995117 0.003845215
vn 0.003845215 0.9995117 0.003845215
vn 0.003845215 0.9995117 0.003845215
vn 0.003845215 0.9995117 0.003845215
vn 0.003845215 0.9995117 0.003845215
vn 0.003845215 0.9995117 0.003845215
vn 0.003845215 0.9995117 0.003845215
vn 0.003845215 0.9995117 0.003845215
vn 0.003845215 0.9995117 0.003845215
vn 0.003845215 0.9995117 0.003845215
vn 0.003845215 0.9995117 0.003845215

vt -1.890625 2.890625
vt 2.890625 2.890625
vt 4.5 4.5
vt -3.5 4.5
vt -1.890625 -1.890625
vt -3.5 -3.5
vt 2.890625 -1.890625
vt 4.5 -3.5
vt -1.499023 -1.499023
vt 2.498047 -1.499023
vt 2.498047 2.498047
vt -1.499023 2.498047

g lod1_24672_77
usemtl lod1_24672_77
usemap lod1_24672_77
f 1/1/1 3/3/3 2/2/2
f 1/1/1 4/4/4 3/3/3
f 5/5/5 4/4/4 1/1/1
f 5/5/5 6/6/6 4/4/4
f 7/7/7 6/6/6 5/5/5
f 7/7/7 8/8/8 6/6/6
f 2/2/2 8/8/8 7/7/7
f 2/2/2 3/3/3 8/8/8
f 9/9/9 11/11/11 10/10/10
f 9/9/9 12/12/12 11/11/11
