#lod1_24672_78.obj

v 1.250595E-06 0.2304179 4.345037
v 0.2304204 -1.072136E-06 4.345037
v 1.264864E-06 -0.2304209 4.345037
v -0.2304179 -1.086405E-06 4.345037

vn 0.003845215 0.9995117 0.003845215
vn 0.003845215 0.9995117 0.003845215
vn 0.003845215 0.9995117 0.003845215
vn 0.003845215 0.9995117 0.003845215

vt 0.9995117 0.9995117
vt 6.67572E-06 0.9995117
vt 6.67572E-06 6.67572E-06
vt 0.9995117 6.67572E-06

g lod1_24672_78
usemtl lod1_24672_78
usemap lod1_24672_78
f 1/1/1 3/3/3 2/2/2
f 1/1/1 4/4/4 3/3/3
