#pavement4.001_24349_899.obj

v -38.07112 -13.39474 -18.19639
v -39.47307 -2.197008 -18.19642
v -30.16781 -18.43444 -18.19638
v -15.78794 -18.29148 -18.19638
v -1.722753 -2.283572 -18.19612
v -1.408078 -18.14832 -18.19638
v -1.408078 -18.1483 -8.11629
v -1.722752 -2.28356 -8.116124
v 12.97189 -18.00555 -8.116293
v 27.37738 14.80234 -8.116361
v 27.2088 -0.4416362 -8.11653
v 11.93747 14.39051 -8.116363
v -3.502421 13.97889 -8.116361
v -18.94242 13.56696 -8.11636
v -39.47307 -2.196998 -8.116326
v -40.87513 9.000938 -8.116352
v -34.38242 13.15513 -8.116358
v 27.37738 14.80235 1.963628
v 42.81738 15.21428 1.963628
v 27.2088 -0.4416237 1.96346
v 58.25738 15.62611 1.963627
v 64.91423 11.39009 1.963637
v 64.1961 -0.3450738 1.963662

vn -0.002843857 0.9995117 0.002803802
vn -0.002843857 0.9995117 0.002803802
vn -0.002843857 0.9995117 0.002803802
vn 0.002819061 0.9995117 0.002857208
vn 0.002819061 0.9995117 0.002857208
vn 0.002819061 0.9995117 0.002857208
vn 0.002819061 0.9995117 0.002857208
vn -0.002843857 0.9995117 0.002803802
vn -0.002843857 0.9995117 0.002803802
vn -0.002843857 0.9995117 0.002803802
vn -0.002843857 0.9995117 0.002803802
vn -0.002843857 0.9995117 0.002803802
vn -0.002843857 0.9995117 0.002803802
vn -0.002843857 0.9995117 0.002803802
vn -0.002843857 0.9995117 0.002803802
vn -0.002843857 0.9995117 0.002803802
vn -0.002843857 0.9995117 0.002803802
vn -0.002843857 0.9995117 0.002803802
vn -0.002843857 0.9995117 0.002803802
vn -0.002843857 0.9995117 0.002803802
vn -0.002843857 0.9995117 0.002803802
vn -0.002843857 0.9995117 0.002803802
vn -0.002843857 0.9995117 0.002803802

vt 1.484375 0.4316406
vt 1.308594 0.4519043
vt 1.564453 0.3083496
vt 1.564453 0.08288574
vt 1.31543 -0.1402588
vt 1.564453 -0.1427002
vt 0.04272461 0.9580078
vt 0.04443359 0.7089844
vt 0.2683105 0.9619141
vt 0.5078125 0.453125
vt 0.4987793 0.6923828
vt 0.265625 0.453125
vt 0.02333069 0.453125
vt -0.2189941 0.453125
vt -0.5473633 0.6918945
vt -0.5644531 0.515625
vt -0.4611816 0.453125
vt 0.1809082 1.251953
vt 0.4230957 1.251953
vt 0.171875 1.491211
vt 0.6655273 1.251953
vt 0.7680664 1.321289
vt 0.7519531 1.504883

g pavement4.001_24349_899
usemtl pavement4.001_24349_899
usemap pavement4.001_24349_899
f 1/1/1 3/3/3 2/2/2
f 4/4/4 2/2/2 3/3/3
f 5/5/5 4/4/4 6/6/6
f 4/4/4 5/5/5 2/2/2
f 7/7/7 9/9/9 8/8/8
f 10/10/10 12/12/12 11/11/11
f 11/11/11 8/8/8 9/9/9
f 8/8/8 11/11/11 12/12/12
f 13/13/13 8/8/8 12/12/12
f 14/14/14 8/8/8 13/13/13
f 8/8/8 14/14/14 15/15/15
f 16/16/16 15/15/15 17/17/17
f 15/15/15 14/14/14 17/17/17
f 18/18/18 20/20/20 19/19/19
f 21/21/21 23/23/23 22/22/22
f 23/23/23 19/19/19 20/20/20
f 19/19/19 23/23/23 21/21/21
