#Plane.000_23450_441.obj

v 17.51414 31.00307 -44.23458
v 30.9626 31.00304 -44.23458
v 17.51412 -0.5598943 -44.23457
v 30.9627 -0.4226501 -44.23457
v -47.13377 -27.76899 -20.94477
v -48.40715 -19.20343 -20.94477
v -47.29066 -8.534055 -20.94477
v -45.79385 -37.14861 -20.94477
v -39.20939 -40.0371 -20.94477
v -26.88799 -39.34321 -20.94476
v -14.56669 -38.64956 -20.94477
v -14.56553 -8.372788 -20.94477
v 22.39742 -36.5679 -20.94477
v 10.07604 -37.26167 -20.94476
v 9.888815 -7.517568 -20.94468
v 34.71864 -35.87391 -20.94477
v 40.00102 -4.314605 -20.94477
v 40.21959 -16.89363 -20.94477
v 40.43825 -29.4723 -20.94477
v 9.888816 -7.517559 -10.86464
v 10.07601 -37.26167 -10.86472
v -14.56553 -8.372779 -10.86473
v -14.56669 -38.64955 -10.86472
v -33.35141 30.56939 -10.86474
v -29.83869 38.96043 -10.86474
v -25.10975 42.0499 -10.86474
v -37.8018 20.66339 -10.86473
v -12.09004 44.16307 -10.86474
v -0.6064781 43.20589 -10.86474
v 9.711766 20.59236 -10.86456
v 10.87719 42.24883 -10.86474
v 9.888816 -7.517559 -10.86464
v 22.36077 41.29187 -10.86474
v 33.84451 40.33458 -10.86474
v 39.34509 33.42234 -10.86474
v 39.56368 20.84344 -10.86473
v 39.78234 8.264306 -10.86473
v 40.00102 -4.314596 -10.86473

vn -0.004169464 0.9995117 0.00356102
vn -0.004169464 0.9995117 0.00356102
vn -0.004169464 0.9995117 0.00356102
vn -0.004169464 0.9995117 0.00356102
vn -0.004169464 0.9995117 0.00356102
vn -0.004169464 0.9995117 0.00356102
vn -0.004169464 0.9995117 0.00356102
vn -0.004169464 0.9995117 0.00356102
vn -0.004169464 0.9995117 0.00356102
vn -0.004169464 0.9995117 0.00356102
vn -0.004169464 0.9995117 0.00356102
vn -0.004169464 0.9995117 0.00356102
vn -0.004169464 0.9995117 0.00356102
vn -0.004169464 0.9995117 0.00356102
vn -0.004169464 0.9995117 0.00356102
vn -0.004169464 0.9995117 0.00356102
vn -0.004169464 0.9995117 0.00356102
vn -0.004169464 0.9995117 0.00356102
vn -0.004169464 0.9995117 0.00356102
vn -0.004169464 0.9995117 0.00356102
vn -0.004169464 0.9995117 0.00356102
vn -0.004169464 0.9995117 0.00356102
vn -0.004169464 0.9995117 0.00356102
vn -0.004169464 0.9995117 0.00356102
vn -0.004169464 0.9995117 0.00356102
vn -0.004169464 0.9995117 0.00356102
vn -0.004169464 0.9995117 0.00356102
vn -0.004169464 0.9995117 0.00356102
vn -0.004169464 0.9995117 0.00356102
vn -0.004169464 0.9995117 0.00356102
vn -0.004169464 0.9995117 0.00356102
vn -0.004169464 0.9995117 0.00356102
vn -0.004169464 0.9995117 0.00356102
vn -0.004169464 0.9995117 0.00356102
vn -0.004169464 0.9995117 0.00356102
vn -0.004169464 0.9995117 0.00356102
vn -0.004169464 0.9995117 0.00356102
vn -0.004169464 0.9995117 0.00356102

vt 4.179688 -1.958008
vt 3.679688 -1.958008
vt 4.179688 -3.912109
vt 3.679688 -3.904297
vt 0.01928711 5.484375
vt 0.425293 5.386719
vt 0.9301758 5.480469
vt -0.4250488 5.589844
vt -0.5634766 6.121094
vt -0.5332031 7.113281
vt -0.503418 8.109375
vt 0.9301758 8.117188
vt -3.943359 8.351563
vt -4.527344 8.390625
vt -4.511719 5.992188
vt -3.359375 8.3125
vt -3.083984 5.773438
vt -3.083984 6.789063
vt -3.083984 7.804688
vt 4.863281 6.015625
vt 4.863281 8.414063
vt 3.707031 6.074219
vt 3.697266 8.515625
vt 1.063477 -0.7387695
vt 1.473633 -0.5126953
vt 1.637695 -0.1534424
vt 0.5786133 -1.029297
vt 1.789063 0.878418
vt 1.789063 1.806641
vt 0.762207 2.787109
vt 1.789063 2.736328
vt -0.5634766 2.990234
vt 1.789063 3.664063
vt 1.789063 4.59375
vt 1.484375 5.082031
vt 0.8916016 5.183594
vt 0.2988281 5.285156
vt -0.2939453 5.386719

g Plane.000_23450_441
usemtl Plane.000_23450_441
usemap Plane.000_23450_441
f 1/1/1 3/3/3 2/2/2
f 2/2/2 3/3/3 4/4/4
f 5/5/5 7/7/7 6/6/6
f 8/8/8 7/7/7 5/5/5
f 9/9/9 7/7/7 8/8/8
f 10/10/10 7/7/7 9/9/9
f 11/11/11 7/7/7 10/10/10
f 7/7/7 11/11/11 12/12/12
f 13/13/13 15/15/15 14/14/14
f 16/16/16 15/15/15 13/13/13
f 16/16/16 17/17/17 15/15/15
f 16/16/16 18/18/18 17/17/17
f 18/18/18 16/16/16 19/19/19
f 20/20/20 22/22/22 21/21/21
f 21/21/21 22/22/22 23/23/23
f 24/24/24 26/26/26 25/25/25
f 27/27/27 26/26/26 24/24/24
f 27/27/27 28/28/28 26/26/26
f 27/27/27 29/29/29 28/28/28
f 30/30/30 29/29/29 27/27/27
f 30/30/30 31/31/31 29/29/29
f 32/32/32 31/31/31 30/30/30
f 32/32/32 33/33/33 31/31/31
f 32/32/32 34/34/34 33/33/33
f 32/32/32 35/35/35 34/34/34
f 32/32/32 36/36/36 35/35/35
f 32/32/32 37/37/37 36/36/36
f 37/37/37 32/32/32 38/38/38
