#Platform_House.106_24735_871.obj

v -4.993898 -3.049818 0.2307408
v -4.99395 3.843246 0.2307408
v 3.67211 3.84323 0.2307406
v 3.672162 -3.049834 0.2307406

vn -0.003921509 0.9995117 0.003921509
vn -0.003921509 0.9995117 0.003921509
vn -0.003921509 0.9995117 0.003921509
vn -0.003921509 0.9995117 0.003921509

vt 9.906292E-05 9.906292E-05
vt 0.9995117 9.906292E-05
vt 0.9995117 0.9995117
vt 9.906292E-05 0.9995117

g Platform_House.106_24735_871
usemtl Platform_House.106_24735_871
usemap Platform_House.106_24735_871
f 1/1/1 3/3/3 2/2/2
f 1/1/1 4/4/4 3/3/3
