#Platform_House.119_22965_769.obj

v 3.672115 -3.049853 0.2307404
v 3.672099 3.843211 0.2307408
v -4.99388 -3.049873 0.2307404
v -4.993896 3.843191 0.2307408

vn 0.003921509 0.9995117 -0.003921509
vn 0.003921509 0.9995117 -0.003921509
vn 0.003921509 0.9995117 -0.003921509
vn 0.003921509 0.9995117 -0.003921509

vt 9.906292E-05 0.9995117
vt 0.9995117 0.9995117
vt 9.906292E-05 9.906292E-05
vt 0.9995117 9.906292E-05

g Platform_House.119_22965_769
usemtl Platform_House.119_22965_769
usemap Platform_House.119_22965_769
f 1/1/1 3/3/3 2/2/2
f 2/2/2 3/3/3 4/4/4
