#Platform_House.078_23061_793.obj

v -4.99391 -3.049853 0.2307366
v -4.993912 3.843244 0.2307458
v 3.672128 3.84314 0.2307458
v 3.672132 -3.049828 0.2307366

vn -0.003858566 0.9995117 0.003978729
vn -0.003858566 0.9995117 0.003978729
vn -0.003858566 0.9995117 0.003978729
vn -0.003858566 0.9995117 0.003978729

vt 9.906292E-05 9.906292E-05
vt 0.9995117 9.906292E-05
vt 0.9995117 0.9995117
vt 9.906292E-05 0.9995117

g Platform_House.078_23061_793
usemtl Platform_House.078_23061_793
usemap Platform_House.078_23061_793
f 1/1/1 3/3/3 2/2/2
f 1/1/1 4/4/4 3/3/3
