#Platform_House.099_23547_705.obj

v -4.993941 -3.049837 0.2307408
v -4.993928 3.843211 0.2307408
v 3.672132 3.843194 0.2307406
v 3.672119 -3.049837 0.2307406

vn -0.003921509 0.9995117 0.003921509
vn -0.003921509 0.9995117 0.003921509
vn -0.003921509 0.9995117 0.003921509
vn -0.003921509 0.9995117 0.003921509

vt 9.906292E-05 9.906292E-05
vt 0.9995117 9.906292E-05
vt 0.9995117 0.9995117
vt 9.906292E-05 0.9995117

g Platform_House.099_23547_705
usemtl Platform_House.099_23547_705
usemap Platform_House.099_23547_705
f 1/1/1 3/3/3 2/2/2
f 1/1/1 4/4/4 3/3/3
