#Platform_House.076_22529_821.obj

v 3.672081 -3.052087 0.1985887
v 3.672054 3.840523 0.2712274
v -4.993912 -3.052122 0.1985874
v -4.99394 3.840554 0.2712285

vn -0.03092957 0.9995117 -0.003917694
vn -0.03092957 0.9995117 -0.003917694
vn -0.03092957 0.9995117 -0.003917694
vn -0.03092957 0.9995117 -0.003917694

vt 9.906292E-05 0.9995117
vt 0.9995117 0.9995117
vt 9.906292E-05 9.906292E-05
vt 0.9995117 9.906292E-05

g Platform_House.076_22529_821
usemtl Platform_House.076_22529_821
usemap Platform_House.076_22529_821
f 1/1/1 3/3/3 2/2/2
f 2/2/2 3/3/3 4/4/4
