#Platform_House.005_22289_835.obj

v -4.993916 -3.049841 0.2307408
v -4.993968 3.843223 0.2307408
v 3.672092 3.843207 0.2307406
v 3.672144 -3.049857 0.2307406

vn -0.003921509 0.9995117 0.003921509
vn -0.003921509 0.9995117 0.003921509
vn -0.003921509 0.9995117 0.003921509
vn -0.003921509 0.9995117 0.003921509

vt 9.906292E-05 9.906292E-05
vt 0.9995117 9.906292E-05
vt 0.9995117 0.9995117
vt 9.906292E-05 0.9995117

g Platform_House.005_22289_835
usemtl Platform_House.005_22289_835
usemap Platform_House.005_22289_835
f 1/1/1 3/3/3 2/2/2
f 1/1/1 4/4/4 3/3/3
