#Platform_House.071_26676_779.obj

v -4.993889 -3.049871 0.2307406
v -4.993879 3.84316 0.2307405
v 3.672116 3.84318 0.2307405
v 3.672106 -3.049851 0.2307406

vn 0.003921509 0.9995117 0.003921509
vn 0.003921509 0.9995117 0.003921509
vn 0.003921509 0.9995117 0.003921509
vn 0.003921509 0.9995117 0.003921509

vt 9.906292E-05 9.906292E-05
vt 0.9995117 9.906292E-05
vt 0.9995117 0.9995117
vt 9.906292E-05 0.9995117

g Platform_House.071_26676_779
usemtl Platform_House.071_26676_779
usemap Platform_House.071_26676_779
f 1/1/1 3/3/3 2/2/2
f 1/1/1 4/4/4 3/3/3
