#Platform_House.069_22966_783.obj

v -4.993946 -3.049839 0.2307406
v -4.993956 3.843231 0.2307406
v 3.672109 3.843256 0.2307406
v 3.672118 -3.049814 0.2307406

vn -0.00343895 0.9995117 0.004348755
vn -0.00343895 0.9995117 0.004348755
vn -0.00343895 0.9995117 0.004348755
vn -0.00343895 0.9995117 0.004348755

vt 9.906292E-05 9.906292E-05
vt 0.9995117 9.906292E-05
vt 0.9995117 0.9995117
vt 9.906292E-05 0.9995117

g Platform_House.069_22966_783
usemtl Platform_House.069_22966_783
usemap Platform_House.069_22966_783
f 1/1/1 3/3/3 2/2/2
f 1/1/1 4/4/4 3/3/3
