#Platform_House.096_22137_860.obj

v -4.993931 -3.049848 0.2307409
v 3.672144 -3.049863 0.2307402
v 5.531859 -3.049867 -0.2307351
v -4.993931 -3.049848 -0.2307341
v 3.672144 -3.049863 0.2307402
v 3.67214 3.8432 0.2307405
v 5.531855 3.843196 -0.2307347
v 5.531859 -3.049867 -0.2307351
v -4.993919 3.843215 0.2307413
v -4.993931 -3.049848 0.2307409
v -4.993931 -3.049848 -0.2307341
v -4.993919 3.843215 -0.2307337
v 3.67214 3.8432 0.2307405
v -4.993919 3.843215 0.2307413
v -4.993919 3.843215 -0.2307337
v 5.531855 3.843196 -0.2307347

vn -0.003917694 -1.192093E-07 0.9995117
vn -0.003917694 -1.192093E-07 0.9995117
vn -0.003917694 -1.192093E-07 0.9995117
vn -0.003917694 -1.192093E-07 0.9995117
vn 0.2391357 0.9707031 -0.003921509
vn 0.2391357 0.9707031 -0.003921509
vn 0.2391357 0.9707031 -0.003921509
vn 0.2391357 0.9707031 -0.003921509
vn -0.9995117 5.960464E-08 -0.003917694
vn -0.9995117 5.960464E-08 -0.003917694
vn -0.9995117 5.960464E-08 -0.003917694
vn -0.9995117 5.960464E-08 -0.003917694
vn -0.003921509 1.788139E-07 -0.9995117
vn -0.003921509 1.788139E-07 -0.9995117
vn -0.003921509 1.788139E-07 -0.9995117
vn -0.003921509 1.788139E-07 -0.9995117

vt 1 1
vt -1.192093E-07 1
vt -1.192093E-07 -1.192093E-07
vt 1 -1.192093E-07
vt 1 1
vt -1.192093E-07 1
vt -1.192093E-07 -1.192093E-07
vt 1 -1.192093E-07
vt 1 1
vt -1.192093E-07 1
vt -1.192093E-07 -1.192093E-07
vt 1 -1.192093E-07
vt 1 1
vt -1.192093E-07 1
vt -1.192093E-07 -1.192093E-07
vt 1 -1.192093E-07

g Platform_House.096_22137_860
usemtl Platform_House.096_22137_860
usemap Platform_House.096_22137_860
f 1/1/1 3/3/3 2/2/2
f 1/1/1 4/4/4 3/3/3
f 5/5/5 7/7/7 6/6/6
f 5/5/5 8/8/8 7/7/7
f 9/9/9 11/11/11 10/10/10
f 9/9/9 12/12/12 11/11/11
f 13/13/13 15/15/15 14/14/14
f 13/13/13 16/16/16 15/15/15
