#Platform_House.141_25755_751.obj

v -4.993893 -3.049824 0.2307406
v -4.993941 3.843239 0.2307405
v 3.672118 3.843218 0.2307405
v 3.672166 -3.049845 0.2307406

vn 0.003921509 0.9995117 0.003921509
vn 0.003921509 0.9995117 0.003921509
vn 0.003921509 0.9995117 0.003921509
vn 0.003921509 0.9995117 0.003921509

vt 9.906292E-05 9.906292E-05
vt 0.9995117 9.906292E-05
vt 0.9995117 0.9995117
vt 9.906292E-05 0.9995117

g Platform_House.141_25755_751
usemtl Platform_House.141_25755_751
usemap Platform_House.141_25755_751
f 1/1/1 3/3/3 2/2/2
f 1/1/1 4/4/4 3/3/3
