#Platform_House.074_26384_829.obj

v -4.993922 -3.049843 0.2307406
v -4.993974 3.84322 0.2307405
v 3.672086 3.843204 0.2307405
v 3.672137 -3.04986 0.2307406

vn 0.003921509 0.9995117 0.003921509
vn 0.003921509 0.9995117 0.003921509
vn 0.003921509 0.9995117 0.003921509
vn 0.003921509 0.9995117 0.003921509

vt 9.906292E-05 9.906292E-05
vt 0.9995117 9.906292E-05
vt 0.9995117 0.9995117
vt 9.906292E-05 0.9995117

g Platform_House.074_26384_829
usemtl Platform_House.074_26384_829
usemap Platform_House.074_26384_829
f 1/1/1 3/3/3 2/2/2
f 1/1/1 4/4/4 3/3/3
