#Platform_House_26227_875.obj

v -4.993886 -3.049852 0.2307406
v -4.993875 3.843211 0.2307405
v 3.67212 3.843196 0.2307405
v 3.672108 -3.049867 0.2307406

vn 0.003921509 0.9995117 0.003921509
vn 0.003921509 0.9995117 0.003921509
vn 0.003921509 0.9995117 0.003921509
vn 0.003921509 0.9995117 0.003921509

vt 9.906292E-05 9.906292E-05
vt 0.9995117 9.906292E-05
vt 0.9995117 0.9995117
vt 9.906292E-05 0.9995117

g Platform_House_26227_875
usemtl Platform_House_26227_875
usemap Platform_House_26227_875
f 1/1/1 3/3/3 2/2/2
f 1/1/1 4/4/4 3/3/3
