#Platform.002_25595_723.obj

v -10.32282 -10.32286 0.9371608
v -10.32285 10.32284 0.9371611
v 10.32285 10.32287 0.9371611
v 10.32287 -10.32283 0.9371608

vn 0.003921509 0.9995117 0.003616333
vn 0.003921509 0.9995117 0.003616333
vn 0.003921509 0.9995117 0.003616333
vn 0.003921509 0.9995117 0.003616333

vt 9.906292E-05 9.906292E-05
vt 0.9995117 9.906292E-05
vt 0.9995117 0.9995117
vt 9.906292E-05 0.9995117

g Platform.002_25595_723
usemtl Platform.002_25595_723
usemap Platform.002_25595_723
f 1/1/1 3/3/3 2/2/2
f 1/1/1 4/4/4 3/3/3
