#Platform_House.123_25211_795.obj

v 3.672172 -3.049837 0.2307408
v 3.672158 3.843227 0.2307403
v -4.993952 -3.049854 0.2307408
v -4.993901 3.84321 0.2307403

vn -0.003921509 0.9995117 -0.003921509
vn -0.003921509 0.9995117 -0.003921509
vn -0.003921509 0.9995117 -0.003921509
vn -0.003921509 0.9995117 -0.003921509

vt 9.906292E-05 0.9995117
vt 0.9995117 0.9995117
vt 9.906292E-05 9.906292E-05
vt 0.9995117 9.906292E-05

g Platform_House.123_25211_795
usemtl Platform_House.123_25211_795
usemap Platform_House.123_25211_795
f 1/1/1 3/3/3 2/2/2
f 2/2/2 3/3/3 4/4/4
