#Platform_House.095_23772_717.obj

v -4.993905 -3.049882 0.2307408
v -4.993892 3.843182 0.2307408
v 3.672103 3.843166 0.2307406
v 3.67209 -3.049898 0.2307406

vn -0.003921509 0.9995117 0.003921509
vn -0.003921509 0.9995117 0.003921509
vn -0.003921509 0.9995117 0.003921509
vn -0.003921509 0.9995117 0.003921509

vt 9.906292E-05 9.906292E-05
vt 0.9995117 9.906292E-05
vt 0.9995117 0.9995117
vt 9.906292E-05 0.9995117

g Platform_House.095_23772_717
usemtl Platform_House.095_23772_717
usemap Platform_House.095_23772_717
f 1/1/1 3/3/3 2/2/2
f 1/1/1 4/4/4 3/3/3
