#Platform_House.028_26371_773.obj

v 3.672098 -3.049877 0.2307408
v 3.67208 3.843187 0.2307403
v -4.993897 -3.049899 0.2307408
v -4.993915 3.843165 0.2307403

vn -0.003921509 0.9995117 -0.003921509
vn -0.003921509 0.9995117 -0.003921509
vn -0.003921509 0.9995117 -0.003921509
vn -0.003921509 0.9995117 -0.003921509

vt 9.906292E-05 0.9995117
vt 0.9995117 0.9995117
vt 9.906292E-05 9.906292E-05
vt 0.9995117 9.906292E-05

g Platform_House.028_26371_773
usemtl Platform_House.028_26371_773
usemap Platform_House.028_26371_773
f 1/1/1 3/3/3 2/2/2
f 2/2/2 3/3/3 4/4/4
