#Platform_House.151_25836_715.obj

v 3.672069 -3.049847 0.2307408
v 3.672055 3.843217 0.2307403
v -4.993926 -3.049864 0.2307408
v -4.993939 3.8432 0.2307403

vn -0.003921509 0.9995117 -0.003921509
vn -0.003921509 0.9995117 -0.003921509
vn -0.003921509 0.9995117 -0.003921509
vn -0.003921509 0.9995117 -0.003921509

vt 9.906292E-05 0.9995117
vt 0.9995117 0.9995117
vt 9.906292E-05 9.906292E-05
vt 0.9995117 9.906292E-05

g Platform_House.151_25836_715
usemtl Platform_House.151_25836_715
usemap Platform_House.151_25836_715
f 1/1/1 3/3/3 2/2/2
f 2/2/2 3/3/3 4/4/4
