#Platform_House.121_24763_878.obj

v 5.53185 3.843225 -0.2307345
v -4.993924 3.843207 -0.2307345
v 3.672136 3.843222 0.2307406
v -4.993924 3.843207 0.2307406
v -4.993924 3.843207 -0.2307345
v -4.993977 -3.049857 -0.2307345
v -4.993924 3.843207 0.2307406
v -4.993977 -3.049857 0.2307406
v 5.531798 -3.049839 -0.2307345
v 5.53185 3.843225 -0.2307345
v 3.672148 -3.049842 0.2307406
v 3.672136 3.843222 0.2307406
v -4.993977 -3.049857 -0.2307345
v 5.531798 -3.049839 -0.2307345
v -4.993977 -3.049857 0.2307406
v 3.672148 -3.049842 0.2307406

vn 0.9995117 0 0.003917694
vn 0.9995117 0 0.003917694
vn 0.9995117 0 0.003917694
vn 0.9995117 0 0.003917694
vn 0.003921509 0 0.9995117
vn 0.003921509 0 0.9995117
vn 0.003921509 0 0.9995117
vn 0.003921509 0 0.9995117
vn 0.003917694 0.9707031 -0.2391357
vn 0.003917694 0.9707031 -0.2391357
vn 0.003917694 0.9707031 -0.2391357
vn 0.003917694 0.9707031 -0.2391357
vn -0.9995117 0 0.003921509
vn -0.9995117 0 0.003921509
vn -0.9995117 0 0.003921509
vn -0.9995117 0 0.003921509

vt 1 -1.192093E-07
vt -1.192093E-07 -1.192093E-07
vt 1 1
vt -1.192093E-07 1
vt 1 -1.192093E-07
vt -1.192093E-07 -1.192093E-07
vt 1 1
vt -1.192093E-07 1
vt 1 -1.192093E-07
vt -1.192093E-07 -1.192093E-07
vt 1 1
vt -1.192093E-07 1
vt 1 -1.192093E-07
vt -1.192093E-07 -1.192093E-07
vt 1 1
vt -1.192093E-07 1

g Platform_House.121_24763_878
usemtl Platform_House.121_24763_878
usemap Platform_House.121_24763_878
f 1/1/1 3/3/3 2/2/2
f 2/2/2 3/3/3 4/4/4
f 5/5/5 7/7/7 6/6/6
f 6/6/6 7/7/7 8/8/8
f 9/9/9 11/11/11 10/10/10
f 10/10/10 11/11/11 12/12/12
f 13/13/13 15/15/15 14/14/14
f 14/14/14 15/15/15 16/16/16
