#Platform_House.014_25120_811.obj

v -4.993845 -3.049826 0.2307406
v -4.993956 3.843202 0.2307406
v 3.672202 3.843196 0.2307406
v 3.672184 -3.049823 0.2307406

vn 0.004165649 0.9995117 0.003656387
vn 0.004165649 0.9995117 0.003656387
vn 0.004165649 0.9995117 0.003656387
vn 0.004165649 0.9995117 0.003656387

vt 9.906292E-05 9.906292E-05
vt 0.9995117 9.906292E-05
vt 0.9995117 0.9995117
vt 9.906292E-05 0.9995117

g Platform_House.014_25120_811
usemtl Platform_House.014_25120_811
usemap Platform_House.014_25120_811
f 1/1/1 3/3/3 2/2/2
f 1/1/1 4/4/4 3/3/3
