#Rock_single_t1(Clone)_23593_182.obj

v -5.014308 1.794512 2.027984
v -5.024611 5.024643 -0.3001872
v -1.794521 5.014307 2.027987
v -1.900197 6.545351 -0.1940544
v 1.900205 6.545358 -0.1940527
v 1.794522 5.014283 2.027983
v 1.9019 1.901901 3.177641
v -1.901902 1.901912 3.177643
v 1.901922 -1.90189 3.177643
v -1.901928 -1.901919 3.177638
v 1.794532 -5.014301 2.027987
v -1.794511 -5.014277 2.027991
v 5.014272 -1.794547 2.027982
v 5.024618 -5.024624 -0.3001894
v 5.014296 1.794535 2.027988
v 5.024606 5.024609 -0.3001903
v -5.014286 -1.794528 2.027986
v -6.545337 1.900203 -0.1940513
v -6.545351 -1.900185 -0.1940558
v -7.740147 2.142236 -2.693374
v -7.74016 -2.142207 -2.693378
v -5.024638 -5.024642 -0.3001891
v -5.771435 -5.771437 -2.722209
v 6.545353 -1.900199 -0.1940544
v 6.545357 1.9002 -0.1940544
v 7.740185 -2.142218 -2.693375
v 7.740188 2.142236 -2.693375
v 5.771435 5.771444 -2.722215
v -1.900189 -6.545354 -0.1940533
v 1.900212 -6.545347 -0.194051
v -2.142198 -7.740152 -2.693374
v 2.142234 -7.740157 -2.693378
v 5.771451 -5.771448 -2.722212
v 2.142227 7.740181 -2.69338
v -2.142205 7.740186 -2.693376
v -5.77145 5.771455 -2.722212

vn -0.2687988 0.9208984 -0.2814941
vn 0.0003728867 0.7553711 -0.6547852
vn 0.3972168 0.8413086 -0.3662109
vn 0.4882813 0.6293945 -0.6035156
vn 0.8144531 0.4492188 -0.3659668
vn 0.7617188 0.6396484 -0.1008301
vn 0.4980469 0.784668 0.3681641
vn 0.1358643 0.9848633 0.1043701
vn 0.18396 0.6738281 0.7148438
vn -0.1781006 0.8740234 0.4511719
vn -0.1755371 0.309082 0.9345703
vn -0.5395508 0.5102539 0.6689453
vn 0.4885254 0.2185059 0.8442383
vn 0.1296387 -0.08099365 0.987793
vn 0.8017578 0.3288574 0.4985352
vn 0.9741211 0.217041 0.05490112
vn -0.5820313 0.8105469 0.06420898
vn -0.4645996 0.7446289 -0.4782715
vn -0.7431641 0.6464844 -0.1705322
vn -0.4819336 0.7036133 -0.5209961
vn -0.7739258 0.6005859 -0.1988525
vn -0.8442383 0.4575195 0.2783203
vn -0.8852539 0.392334 0.2478027
vn 0.5908203 -0.09069824 0.8012695
vn 0.8691406 0.007572174 0.4936523
vn 0.5883789 -0.1522217 0.7939453
vn 0.8803711 -0.04925537 0.4714355
vn 0.9892578 0.1446533 0.01754761
vn -0.6865234 0.2150879 0.6943359
vn -0.3603516 0.03475952 0.9321289
vn -0.7172852 0.1629639 0.6767578
vn -0.3752441 -0.02610779 0.9262695
vn 0.1184082 -0.1624756 0.9794922
vn 0.8251953 0.3974609 -0.4001465
vn 0.4833984 0.5864258 -0.6494141
vn -0.01486206 0.699707 -0.7138672

vt 0.1590576 0.6088867
vt 0.02641296 0.9555664
vt 0.3752441 0.831543
vt 0.3171387 1.116211
vt 0.6601563 1.119141
vt 0.6054688 0.8398438
vt 0.6069336 0.612793
vt 0.3837891 0.6098633
vt 0.6157227 0.3896484
vt 0.3925781 0.3867188
vt 0.6245117 0.168335
vt 0.394043 0.1600342
vt 0.840332 0.3908691
vt 0.9731445 0.04434204
vt 0.8305664 0.6206055
vt 0.9545898 0.972168
vt 0.1691895 0.3789063
vt -0.1202393 0.6621094
vt -0.1161499 0.3190918
vt -0.5874023 0.7973633
vt -0.5874023 0.2025146
vt 0.04528809 0.02760315
vt -0.2856445 -0.2885742
vt 1.120117 0.3374023
vt 1.115234 0.6806641
vt 1.586914 0.2022705
vt 1.586914 0.7973633
vt 1.285156 1.288086
vt 0.3393555 -0.119812
vt 0.6826172 -0.116394
vt 0.2034912 -0.5869141
vt 0.7983398 -0.5874023
vt 1.289063 -0.2861328
vt 0.7963867 1.586914
vt 0.2012939 1.586914
vt -0.2893066 1.286133

g Rock_single_t1(Clone)_23593_182
usemtl Rock_single_t1(Clone)_23593_182
usemap Rock_single_t1(Clone)_23593_182
f 1/1/1 3/3/3 2/2/2
f 4/4/4 2/2/2 3/3/3
f 3/3/3 5/5/5 4/4/4
f 3/3/3 6/6/6 5/5/5
f 7/7/7 6/6/6 3/3/3
f 7/7/7 3/3/3 8/8/8
f 8/8/8 3/3/3 1/1/1
f 9/9/9 7/7/7 8/8/8
f 9/9/9 8/8/8 10/10/10
f 10/10/10 8/8/8 1/1/1
f 11/11/11 9/9/9 10/10/10
f 11/11/11 10/10/10 12/12/12
f 13/13/13 7/7/7 9/9/9
f 9/9/9 11/11/11 13/13/13
f 13/13/13 11/11/11 14/14/14
f 13/13/13 15/15/15 7/7/7
f 7/7/7 15/15/15 6/6/6
f 6/6/6 15/15/15 16/16/16
f 5/5/5 6/6/6 16/16/16
f 10/10/10 17/17/17 12/12/12
f 10/10/10 1/1/1 17/17/17
f 17/17/17 1/1/1 18/18/18
f 17/17/17 18/18/18 19/19/19
f 19/19/19 18/18/18 20/20/20
f 19/19/19 20/20/20 21/21/21
f 22/22/22 12/12/12 17/17/17
f 22/22/22 19/19/19 21/21/21
f 19/19/19 22/22/22 17/17/17
f 22/22/22 21/21/21 23/23/23
f 15/15/15 13/13/13 24/24/24
f 24/24/24 13/13/13 14/14/14
f 15/15/15 24/24/24 25/25/25
f 25/25/25 16/16/16 15/15/15
f 25/25/25 24/24/24 26/26/26
f 25/25/25 26/26/26 27/27/27
f 16/16/16 25/25/25 27/27/27
f 16/16/16 27/27/27 28/28/28
f 29/29/29 22/22/22 23/23/23
f 29/29/29 12/12/12 22/22/22
f 11/11/11 12/12/12 29/29/29
f 11/11/11 29/29/29 30/30/30
f 30/30/30 29/29/29 31/31/31
f 29/29/29 23/23/23 31/31/31
f 30/30/30 31/31/31 32/32/32
f 30/30/30 14/14/14 11/11/11
f 14/14/14 30/30/30 32/32/32
f 14/14/14 32/32/32 33/33/33
f 24/24/24 33/33/33 26/26/26
f 24/24/24 14/14/14 33/33/33
f 5/5/5 28/28/28 34/34/34
f 4/4/4 5/5/5 34/34/34
f 4/4/4 34/34/34 35/35/35
f 2/2/2 4/4/4 35/35/35
f 2/2/2 35/35/35 36/36/36
f 5/5/5 16/16/16 28/28/28
f 18/18/18 2/2/2 36/36/36
f 18/18/18 36/36/36 20/20/20
f 18/18/18 1/1/1 2/2/2
