#Rock_single_t1(Clone)_26000_140.obj

v -5.014282 1.794524 2.027989
v -5.024597 5.024614 -0.3001855
v -1.794556 5.01429 2.027986
v -1.900208 6.545358 -0.1940559
v 1.900208 6.545358 -0.1940559
v 1.794556 5.01429 2.027986
v 1.901917 1.901912 3.177641
v -1.901917 1.901912 3.177641
v 1.901917 -1.901921 3.177645
v -1.901917 -1.901921 3.177645
v 1.794556 -5.014279 2.027983
v -1.794556 -5.014279 2.027983
v 5.014282 -1.794543 2.027988
v 5.024597 -5.024611 -0.3001913
v 5.014282 1.794524 2.027989
v 5.024597 5.024614 -0.3001855
v -5.014282 -1.794543 2.027988
v -6.545349 1.900185 -0.1940525
v -6.545349 -1.900186 -0.1940576
v -7.740173 2.142237 -2.693382
v -7.740173 -2.142231 -2.693377
v -5.024597 -5.024611 -0.3001913
v -5.771423 -5.771459 -2.72221
v 6.545349 -1.900186 -0.1940576
v 6.545349 1.900185 -0.1940525
v 7.740173 -2.142231 -2.693377
v 7.740173 2.142237 -2.693382
v 5.771423 5.771463 -2.722215
v -1.900208 -6.545358 -0.1940542
v 1.900208 -6.545358 -0.1940542
v -2.142212 -7.740172 -2.693378
v 2.142212 -7.740172 -2.693378
v 5.771423 -5.771459 -2.72221
v 2.142212 7.740179 -2.693381
v -2.142212 7.740179 -2.693381
v -5.771423 5.771463 -2.722215

vn -0.6020508 0.7983398 -0.006713867
vn -0.6088867 0.6420898 -0.4650879
vn -0.2030029 0.8964844 -0.3935547
vn -0.2030029 0.6899414 -0.6943359
vn 0.2030029 0.6899414 -0.6943359
vn 0.2030029 0.8964844 -0.3935547
vn 0.175415 0.9819336 0.06829834
vn -0.175415 0.9819336 0.06829834
vn 0.175415 0.8955078 0.4084473
vn -0.175415 0.8955078 0.4084473
vn 0.2030029 0.6000977 0.7734375
vn -0.2030029 0.6000977 0.7734375
vn 0.6020508 0.6982422 0.3867188
vn 0.6088867 0.3425293 0.715332
vn 0.6020508 0.7983398 -0.006713867
vn 0.6088867 0.6420898 -0.4650879
vn -0.6020508 0.6982422 0.3867188
vn -0.8427734 0.5327148 -0.07409668
vn -0.8427734 0.4328613 0.3193359
vn -0.8769531 0.4680176 -0.1047363
vn -0.8769531 0.3613281 0.3154297
vn -0.6088867 0.3425293 0.715332
vn -0.6430664 0.2436523 0.7255859
vn 0.8427734 0.4328613 0.3193359
vn 0.8427734 0.5327148 -0.07409668
vn 0.8769531 0.3613281 0.3154297
vn 0.8769531 0.4680176 -0.1047363
vn 0.6430664 0.5600586 -0.5214844
vn -0.2030029 0.2751465 0.9394531
vn 0.2030029 0.2751465 0.9394531
vn -0.2166748 0.1988525 0.9555664
vn 0.2166748 0.1988525 0.9555664
vn 0.6430664 0.2436523 0.7255859
vn 0.2166748 0.6303711 -0.7446289
vn -0.2166748 0.6303711 -0.7446289
vn -0.6430664 0.5600586 -0.5214844

vt 0.1590576 0.6088867
vt 0.02641296 0.9555664
vt 0.3752441 0.831543
vt 0.3171387 1.116211
vt 0.6601563 1.119141
vt 0.6054688 0.8398438
vt 0.6069336 0.612793
vt 0.3837891 0.6098633
vt 0.6157227 0.3896484
vt 0.3925781 0.3867188
vt 0.6245117 0.168335
vt 0.394043 0.1600342
vt 0.840332 0.3908691
vt 0.9731445 0.04434204
vt 0.8305664 0.6206055
vt 0.9545898 0.972168
vt 0.1691895 0.3789063
vt -0.1202393 0.6621094
vt -0.1161499 0.3190918
vt -0.5874023 0.7973633
vt -0.5874023 0.2025146
vt 0.04528809 0.02760315
vt -0.2856445 -0.2885742
vt 1.120117 0.3374023
vt 1.115234 0.6806641
vt 1.586914 0.2022705
vt 1.586914 0.7973633
vt 1.285156 1.288086
vt 0.3393555 -0.119812
vt 0.6826172 -0.116394
vt 0.2034912 -0.5869141
vt 0.7983398 -0.5874023
vt 1.289063 -0.2861328
vt 0.7963867 1.586914
vt 0.2012939 1.586914
vt -0.2893066 1.286133

g Rock_single_t1(Clone)_26000_140
usemtl Rock_single_t1(Clone)_26000_140
usemap Rock_single_t1(Clone)_26000_140
f 1/1/1 3/3/3 2/2/2
f 4/4/4 2/2/2 3/3/3
f 3/3/3 5/5/5 4/4/4
f 3/3/3 6/6/6 5/5/5
f 7/7/7 6/6/6 3/3/3
f 7/7/7 3/3/3 8/8/8
f 8/8/8 3/3/3 1/1/1
f 9/9/9 7/7/7 8/8/8
f 9/9/9 8/8/8 10/10/10
f 10/10/10 8/8/8 1/1/1
f 11/11/11 9/9/9 10/10/10
f 11/11/11 10/10/10 12/12/12
f 13/13/13 7/7/7 9/9/9
f 9/9/9 11/11/11 13/13/13
f 13/13/13 11/11/11 14/14/14
f 13/13/13 15/15/15 7/7/7
f 7/7/7 15/15/15 6/6/6
f 6/6/6 15/15/15 16/16/16
f 5/5/5 6/6/6 16/16/16
f 10/10/10 17/17/17 12/12/12
f 10/10/10 1/1/1 17/17/17
f 17/17/17 1/1/1 18/18/18
f 17/17/17 18/18/18 19/19/19
f 19/19/19 18/18/18 20/20/20
f 19/19/19 20/20/20 21/21/21
f 22/22/22 12/12/12 17/17/17
f 22/22/22 19/19/19 21/21/21
f 19/19/19 22/22/22 17/17/17
f 22/22/22 21/21/21 23/23/23
f 15/15/15 13/13/13 24/24/24
f 24/24/24 13/13/13 14/14/14
f 15/15/15 24/24/24 25/25/25
f 25/25/25 16/16/16 15/15/15
f 25/25/25 24/24/24 26/26/26
f 25/25/25 26/26/26 27/27/27
f 16/16/16 25/25/25 27/27/27
f 16/16/16 27/27/27 28/28/28
f 29/29/29 22/22/22 23/23/23
f 29/29/29 12/12/12 22/22/22
f 11/11/11 12/12/12 29/29/29
f 11/11/11 29/29/29 30/30/30
f 30/30/30 29/29/29 31/31/31
f 29/29/29 23/23/23 31/31/31
f 30/30/30 31/31/31 32/32/32
f 30/30/30 14/14/14 11/11/11
f 14/14/14 30/30/30 32/32/32
f 14/14/14 32/32/32 33/33/33
f 24/24/24 33/33/33 26/26/26
f 24/24/24 14/14/14 33/33/33
f 5/5/5 28/28/28 34/34/34
f 4/4/4 5/5/5 34/34/34
f 4/4/4 34/34/34 35/35/35
f 2/2/2 4/4/4 35/35/35
f 2/2/2 35/35/35 36/36/36
f 5/5/5 16/16/16 28/28/28
f 18/18/18 2/2/2 36/36/36
f 18/18/18 36/36/36 20/20/20
f 18/18/18 1/1/1 2/2/2
