#Rock_single_t1(Clone)_24869_360.obj

v -5.0143 1.794504 2.027992
v -5.024621 5.02463 -0.3001905
v -1.794526 5.014319 2.027979
v -1.900192 6.545364 -0.1940565
v 1.900195 6.54535 -0.1940539
v 1.794521 5.014248 2.027993
v 1.901907 1.901907 3.177641
v -1.9019 1.901933 3.177637
v 1.901909 -1.901907 3.177642
v -1.901899 -1.901881 3.177638
v 1.794546 -5.01426 2.027981
v -1.794533 -5.014284 2.027985
v 5.014288 -1.794539 2.027986
v 5.024623 -5.024624 -0.300187
v 5.014276 1.794496 2.027993
v 5.024618 5.02461 -0.3001861
v -5.014288 -1.794531 2.027986
v -6.545354 1.900193 -0.1940538
v -6.545355 -1.900201 -0.1940533
v -7.740161 2.142248 -2.693384
v -7.740156 -2.142186 -2.693386
v -5.024617 -5.024604 -0.3001913
v -5.77145 -5.771448 -2.722212
v 6.545343 -1.900226 -0.19405
v 6.545343 1.900168 -0.1940504
v 7.74018 -2.142194 -2.693384
v 7.740175 2.14224 -2.693383
v 5.771435 5.771404 -2.722202
v -1.900206 -6.545383 -0.1940499
v 1.90018 -6.545397 -0.1940473
v -2.142217 -7.740149 -2.693383
v 2.142218 -7.740188 -2.693374
v 5.771459 -5.771429 -2.722215
v 2.142236 7.740203 -2.693385
v -2.142231 7.740148 -2.693376
v -5.771441 5.771478 -2.722217

vn -0.8818359 0.4375 0.1745605
vn -0.9140625 0.2739258 -0.2978516
vn -0.6318359 0.6489258 -0.4228516
vn -0.6147461 0.4287109 -0.6611328
vn -0.2352295 0.5532227 -0.7988281
vn -0.2020264 0.7900391 -0.5786133
vn -0.07836914 0.9946289 -0.06256104
vn -0.5146484 0.8515625 0.09533691
vn 0.1139526 0.9116211 0.3937988
vn -0.3222656 0.769043 0.5517578
vn 0.3598633 0.5478516 0.7548828
vn -0.06988525 0.4069824 0.9106445
vn 0.6054688 0.7788086 0.1625977
vn 0.753418 0.4333496 0.4938965
vn 0.4130859 0.8618164 -0.2939453
vn 0.2432861 0.652832 -0.7167969
vn -0.6894531 0.3544922 0.6313477
vn -0.9746094 0.1221313 0.1861572
vn -0.8027344 0.0480957 0.59375
vn -0.9833984 0.06329346 0.1673584
vn -0.8037109 -0.01426697 0.5947266
vn -0.4040527 0.05410767 0.9130859
vn -0.3972168 -0.02708435 0.9169922
vn 0.8154297 0.578125 0.00806427
vn 0.6435547 0.6523438 -0.3996582
vn 0.8496094 0.5273438 -0.003671646
vn 0.6694336 0.6044922 -0.4309082
vn 0.2692871 0.5898438 -0.7612305
vn 0.08013916 0.1292725 0.9882813
vn 0.4599609 0.2536621 0.8505859
vn 0.09057617 0.06945801 0.9931641
vn 0.4880371 0.199707 0.8491211
vn 0.7949219 0.3632813 0.4855957
vn -0.2211914 0.5053711 -0.8339844
vn -0.6186523 0.375 -0.6899414
vn -0.9223633 0.1992188 -0.3295898

vt 0.1590576 0.6088867
vt 0.02641296 0.9555664
vt 0.3752441 0.831543
vt 0.3171387 1.116211
vt 0.6601563 1.119141
vt 0.6054688 0.8398438
vt 0.6069336 0.612793
vt 0.3837891 0.6098633
vt 0.6157227 0.3896484
vt 0.3925781 0.3867188
vt 0.6245117 0.168335
vt 0.394043 0.1600342
vt 0.840332 0.3908691
vt 0.9731445 0.04434204
vt 0.8305664 0.6206055
vt 0.9545898 0.972168
vt 0.1691895 0.3789063
vt -0.1202393 0.6621094
vt -0.1161499 0.3190918
vt -0.5874023 0.7973633
vt -0.5874023 0.2025146
vt 0.04528809 0.02760315
vt -0.2856445 -0.2885742
vt 1.120117 0.3374023
vt 1.115234 0.6806641
vt 1.586914 0.2022705
vt 1.586914 0.7973633
vt 1.285156 1.288086
vt 0.3393555 -0.119812
vt 0.6826172 -0.116394
vt 0.2034912 -0.5869141
vt 0.7983398 -0.5874023
vt 1.289063 -0.2861328
vt 0.7963867 1.586914
vt 0.2012939 1.586914
vt -0.2893066 1.286133

g Rock_single_t1(Clone)_24869_360
usemtl Rock_single_t1(Clone)_24869_360
usemap Rock_single_t1(Clone)_24869_360
f 1/1/1 3/3/3 2/2/2
f 4/4/4 2/2/2 3/3/3
f 3/3/3 5/5/5 4/4/4
f 3/3/3 6/6/6 5/5/5
f 7/7/7 6/6/6 3/3/3
f 7/7/7 3/3/3 8/8/8
f 8/8/8 3/3/3 1/1/1
f 9/9/9 7/7/7 8/8/8
f 9/9/9 8/8/8 10/10/10
f 10/10/10 8/8/8 1/1/1
f 11/11/11 9/9/9 10/10/10
f 11/11/11 10/10/10 12/12/12
f 13/13/13 7/7/7 9/9/9
f 9/9/9 11/11/11 13/13/13
f 13/13/13 11/11/11 14/14/14
f 13/13/13 15/15/15 7/7/7
f 7/7/7 15/15/15 6/6/6
f 6/6/6 15/15/15 16/16/16
f 5/5/5 6/6/6 16/16/16
f 10/10/10 17/17/17 12/12/12
f 10/10/10 1/1/1 17/17/17
f 17/17/17 1/1/1 18/18/18
f 17/17/17 18/18/18 19/19/19
f 19/19/19 18/18/18 20/20/20
f 19/19/19 20/20/20 21/21/21
f 22/22/22 12/12/12 17/17/17
f 22/22/22 19/19/19 21/21/21
f 19/19/19 22/22/22 17/17/17
f 22/22/22 21/21/21 23/23/23
f 15/15/15 13/13/13 24/24/24
f 24/24/24 13/13/13 14/14/14
f 15/15/15 24/24/24 25/25/25
f 25/25/25 16/16/16 15/15/15
f 25/25/25 24/24/24 26/26/26
f 25/25/25 26/26/26 27/27/27
f 16/16/16 25/25/25 27/27/27
f 16/16/16 27/27/27 28/28/28
f 29/29/29 22/22/22 23/23/23
f 29/29/29 12/12/12 22/22/22
f 11/11/11 12/12/12 29/29/29
f 11/11/11 29/29/29 30/30/30
f 30/30/30 29/29/29 31/31/31
f 29/29/29 23/23/23 31/31/31
f 30/30/30 31/31/31 32/32/32
f 30/30/30 14/14/14 11/11/11
f 14/14/14 30/30/30 32/32/32
f 14/14/14 32/32/32 33/33/33
f 24/24/24 33/33/33 26/26/26
f 24/24/24 14/14/14 33/33/33
f 5/5/5 28/28/28 34/34/34
f 4/4/4 5/5/5 34/34/34
f 4/4/4 34/34/34 35/35/35
f 2/2/2 4/4/4 35/35/35
f 2/2/2 35/35/35 36/36/36
f 5/5/5 16/16/16 28/28/28
f 18/18/18 2/2/2 36/36/36
f 18/18/18 36/36/36 20/20/20
f 18/18/18 1/1/1 2/2/2
