#Rock_single_t1(Clone)_23006_171.obj

v -5.014285 1.79455 2.027994
v -5.024626 5.024615 -0.3001917
v -1.794542 5.014255 2.02798
v -1.9002 6.545332 -0.1940496
v 1.9002 6.545372 -0.1940484
v 1.794527 5.014258 2.027987
v 1.901914 1.901936 3.177642
v -1.90191 1.9019 3.177645
v 1.901913 -1.901893 3.177647
v -1.901915 -1.901928 3.177649
v 1.794539 -5.014272 2.027978
v -1.794532 -5.014273 2.027988
v 5.014282 -1.794566 2.027981
v 5.024614 -5.024662 -0.3001984
v 5.014282 1.794507 2.027988
v 5.024615 5.024584 -0.3001862
v -5.014287 -1.794522 2.027987
v -6.545361 1.900157 -0.1940596
v -6.545356 -1.900208 -0.1940596
v -7.74017 2.142222 -2.693383
v -7.740164 -2.142194 -2.693376
v -5.024623 -5.02463 -0.3001716
v -5.771444 -5.771417 -2.722199
v 6.54536 -1.900168 -0.1940583
v 6.545353 1.900197 -0.1940583
v 7.740174 -2.142209 -2.693393
v 7.740166 2.142211 -2.693368
v 5.771452 5.771449 -2.722227
v -1.900204 -6.545381 -0.1940533
v 1.900198 -6.545341 -0.1940522
v -2.142216 -7.740131 -2.693395
v 2.142231 -7.740141 -2.693384
v 5.771443 -5.771476 -2.722224
v 2.142218 7.740144 -2.693381
v -2.142227 7.740153 -2.693392
v -5.771454 5.77143 -2.722202

vn 0.07403564 0.8417969 0.5336914
vn 0.5483398 0.7866211 0.2822266
vn 0.7441406 0.4724121 0.4716797
vn 0.8505859 0.4570313 0.2595215
vn 0.9570313 0.1276855 0.2600098
vn 0.8793945 0.05371094 0.4724121
vn 0.4394531 -0.1711426 0.8813477
vn 0.2553711 0.3991699 0.8803711
vn -0.3210449 -0.416748 0.8500977
vn -0.5053711 0.1534424 0.8486328
vn -0.7773438 -0.4814453 0.4040527
vn -0.9125977 -0.06268311 0.4030762
vn -0.1137085 -0.8525391 0.5092773
vn -0.5673828 -0.7919922 0.2237549
vn 0.5517578 -0.6376953 0.5366211
vn 0.9047852 -0.3166504 0.284668
vn -0.5913086 0.6269531 0.5063477
vn -0.01215363 0.9560547 0.2919922
vn -0.5703125 0.7758789 0.2687988
vn -0.003082275 0.9692383 0.2456055
vn -0.581543 0.7822266 0.2216797
vn -0.9238281 0.3112793 0.2215576
vn -0.9335938 0.3161621 0.1661377
vn -0.009300232 -0.9619141 0.2724609
vn 0.5488281 -0.7817383 0.2954102
vn -0.01482391 -0.9741211 0.2253418
vn 0.5639648 -0.7871094 0.2492676
vn 0.9189453 -0.3200684 0.2301025
vn -0.9736328 -0.1322021 0.184082
vn -0.8671875 -0.4614258 0.1846924
vn -0.9804688 -0.128418 0.1463623
vn -0.8706055 -0.46875 0.1469727
vn -0.5727539 -0.8017578 0.168335
vn 0.9667969 0.1246948 0.2230225
vn 0.8564453 0.4648438 0.22229
vn 0.5576172 0.7978516 0.2277832

vt 0.1590576 0.6088867
vt 0.02641296 0.9555664
vt 0.3752441 0.831543
vt 0.3171387 1.116211
vt 0.6601563 1.119141
vt 0.6054688 0.8398438
vt 0.6069336 0.612793
vt 0.3837891 0.6098633
vt 0.6157227 0.3896484
vt 0.3925781 0.3867188
vt 0.6245117 0.168335
vt 0.394043 0.1600342
vt 0.840332 0.3908691
vt 0.9731445 0.04434204
vt 0.8305664 0.6206055
vt 0.9545898 0.972168
vt 0.1691895 0.3789063
vt -0.1202393 0.6621094
vt -0.1161499 0.3190918
vt -0.5874023 0.7973633
vt -0.5874023 0.2025146
vt 0.04528809 0.02760315
vt -0.2856445 -0.2885742
vt 1.120117 0.3374023
vt 1.115234 0.6806641
vt 1.586914 0.2022705
vt 1.586914 0.7973633
vt 1.285156 1.288086
vt 0.3393555 -0.119812
vt 0.6826172 -0.116394
vt 0.2034912 -0.5869141
vt 0.7983398 -0.5874023
vt 1.289063 -0.2861328
vt 0.7963867 1.586914
vt 0.2012939 1.586914
vt -0.2893066 1.286133

g Rock_single_t1(Clone)_23006_171
usemtl Rock_single_t1(Clone)_23006_171
usemap Rock_single_t1(Clone)_23006_171
f 1/1/1 3/3/3 2/2/2
f 4/4/4 2/2/2 3/3/3
f 3/3/3 5/5/5 4/4/4
f 3/3/3 6/6/6 5/5/5
f 7/7/7 6/6/6 3/3/3
f 7/7/7 3/3/3 8/8/8
f 8/8/8 3/3/3 1/1/1
f 9/9/9 7/7/7 8/8/8
f 9/9/9 8/8/8 10/10/10
f 10/10/10 8/8/8 1/1/1
f 11/11/11 9/9/9 10/10/10
f 11/11/11 10/10/10 12/12/12
f 13/13/13 7/7/7 9/9/9
f 9/9/9 11/11/11 13/13/13
f 13/13/13 11/11/11 14/14/14
f 13/13/13 15/15/15 7/7/7
f 7/7/7 15/15/15 6/6/6
f 6/6/6 15/15/15 16/16/16
f 5/5/5 6/6/6 16/16/16
f 10/10/10 17/17/17 12/12/12
f 10/10/10 1/1/1 17/17/17
f 17/17/17 1/1/1 18/18/18
f 17/17/17 18/18/18 19/19/19
f 19/19/19 18/18/18 20/20/20
f 19/19/19 20/20/20 21/21/21
f 22/22/22 12/12/12 17/17/17
f 22/22/22 19/19/19 21/21/21
f 19/19/19 22/22/22 17/17/17
f 22/22/22 21/21/21 23/23/23
f 15/15/15 13/13/13 24/24/24
f 24/24/24 13/13/13 14/14/14
f 15/15/15 24/24/24 25/25/25
f 25/25/25 16/16/16 15/15/15
f 25/25/25 24/24/24 26/26/26
f 25/25/25 26/26/26 27/27/27
f 16/16/16 25/25/25 27/27/27
f 16/16/16 27/27/27 28/28/28
f 29/29/29 22/22/22 23/23/23
f 29/29/29 12/12/12 22/22/22
f 11/11/11 12/12/12 29/29/29
f 11/11/11 29/29/29 30/30/30
f 30/30/30 29/29/29 31/31/31
f 29/29/29 23/23/23 31/31/31
f 30/30/30 31/31/31 32/32/32
f 30/30/30 14/14/14 11/11/11
f 14/14/14 30/30/30 32/32/32
f 14/14/14 32/32/32 33/33/33
f 24/24/24 33/33/33 26/26/26
f 24/24/24 14/14/14 33/33/33
f 5/5/5 28/28/28 34/34/34
f 4/4/4 5/5/5 34/34/34
f 4/4/4 34/34/34 35/35/35
f 2/2/2 4/4/4 35/35/35
f 2/2/2 35/35/35 36/36/36
f 5/5/5 16/16/16 28/28/28
f 18/18/18 2/2/2 36/36/36
f 18/18/18 36/36/36 20/20/20
f 18/18/18 1/1/1 2/2/2
