#Rock_single_t1(Clone)_25114_73.obj

v -5.014299 1.794551 2.027985
v -5.024617 5.02462 -0.3001887
v -1.794523 5.014285 2.027984
v -1.900201 6.545352 -0.1940525
v 1.900209 6.545341 -0.1940564
v 1.794531 5.014307 2.027984
v 1.901912 1.901891 3.177646
v -1.901899 1.901885 3.177646
v 1.901902 -1.901892 3.177639
v -1.901909 -1.901898 3.177639
v 1.794556 -5.0143 2.027983
v -1.794527 -5.014287 2.027983
v 5.014289 -1.794546 2.027989
v 5.024621 -5.024632 -0.3001846
v 5.014288 1.794542 2.027984
v 5.024616 5.024637 -0.3001893
v -5.014299 -1.794537 2.027989
v -6.545345 1.900179 -0.194053
v -6.54535 -1.900191 -0.1940569
v -7.740176 2.142245 -2.693383
v -7.740153 -2.142232 -2.693382
v -5.024642 -5.024614 -0.3001844
v -5.771444 -5.771455 -2.722212
v 6.545352 -1.900188 -0.1940567
v 6.545357 1.900182 -0.1940528
v 7.740163 -2.142204 -2.693382
v 7.740169 2.142238 -2.693383
v 5.77146 5.771445 -2.722213
v -1.900202 -6.54535 -0.1940533
v 1.900208 -6.545361 -0.1940572
v -2.142216 -7.740165 -2.693382
v 2.142228 -7.740166 -2.693381
v 5.771457 -5.771459 -2.722212
v 2.142233 7.740172 -2.693382
v -2.142224 7.740158 -2.693376
v -5.771441 5.771449 -2.722214

vn -0.6948242 0.3398438 0.6333008
vn -0.9316406 0.3200684 0.1705322
vn -0.7109375 0.7021484 0.02897644
vn -0.7998047 0.5561523 -0.2243652
vn -0.5288086 0.7119141 -0.4616699
vn -0.3928223 0.8847656 -0.2496338
vn -0.0184021 0.9780273 0.2061768
vn -0.3640137 0.7797852 0.5087891
vn 0.3925781 0.7529297 0.527832
vn 0.04693604 0.5541992 0.8305664
vn 0.7290039 0.2695313 0.628418
vn 0.4108887 0.08703613 0.9072266
vn 0.7143555 0.6962891 0.06774902
vn 0.9423828 0.253418 0.2175293
vn 0.3110352 0.9169922 -0.2478027
vn -0.07556152 0.8115234 -0.5791016
vn -0.291748 0.1187744 0.9487305
vn -0.7949219 0.03582764 0.6049805
vn -0.4384766 -0.1594238 0.8842773
vn -0.815918 -0.01340485 0.5776367
vn -0.4433594 -0.2176514 0.8691406
vn 0.08624268 -0.237915 0.9672852
vn 0.0871582 -0.3105469 0.9462891
vn 0.8056641 0.5546875 -0.2056885
vn 0.4494629 0.75 -0.4846191
vn 0.8251953 0.5102539 -0.2414551
vn 0.4523926 0.7143555 -0.5332031
vn -0.07867432 0.7646484 -0.6386719
vn 0.5385742 -0.1776123 0.8232422
vn 0.8095703 -0.02198792 0.5859375
vn 0.5429688 -0.2298584 0.8076172
vn 0.8251953 -0.06762695 0.5600586
vn 0.9648438 0.1928711 0.1777344
vn -0.5341797 0.6777344 -0.5043945
vn -0.8168945 0.515625 -0.2568359
vn -0.9560547 0.2612305 0.1295166

vt 0.1590576 0.6088867
vt 0.02641296 0.9555664
vt 0.3752441 0.831543
vt 0.3171387 1.116211
vt 0.6601563 1.119141
vt 0.6054688 0.8398438
vt 0.6069336 0.612793
vt 0.3837891 0.6098633
vt 0.6157227 0.3896484
vt 0.3925781 0.3867188
vt 0.6245117 0.168335
vt 0.394043 0.1600342
vt 0.840332 0.3908691
vt 0.9731445 0.04434204
vt 0.8305664 0.6206055
vt 0.9545898 0.972168
vt 0.1691895 0.3789063
vt -0.1202393 0.6621094
vt -0.1161499 0.3190918
vt -0.5874023 0.7973633
vt -0.5874023 0.2025146
vt 0.04528809 0.02760315
vt -0.2856445 -0.2885742
vt 1.120117 0.3374023
vt 1.115234 0.6806641
vt 1.586914 0.2022705
vt 1.586914 0.7973633
vt 1.285156 1.288086
vt 0.3393555 -0.119812
vt 0.6826172 -0.116394
vt 0.2034912 -0.5869141
vt 0.7983398 -0.5874023
vt 1.289063 -0.2861328
vt 0.7963867 1.586914
vt 0.2012939 1.586914
vt -0.2893066 1.286133

g Rock_single_t1(Clone)_25114_73
usemtl Rock_single_t1(Clone)_25114_73
usemap Rock_single_t1(Clone)_25114_73
f 1/1/1 3/3/3 2/2/2
f 4/4/4 2/2/2 3/3/3
f 3/3/3 5/5/5 4/4/4
f 3/3/3 6/6/6 5/5/5
f 7/7/7 6/6/6 3/3/3
f 7/7/7 3/3/3 8/8/8
f 8/8/8 3/3/3 1/1/1
f 9/9/9 7/7/7 8/8/8
f 9/9/9 8/8/8 10/10/10
f 10/10/10 8/8/8 1/1/1
f 11/11/11 9/9/9 10/10/10
f 11/11/11 10/10/10 12/12/12
f 13/13/13 7/7/7 9/9/9
f 9/9/9 11/11/11 13/13/13
f 13/13/13 11/11/11 14/14/14
f 13/13/13 15/15/15 7/7/7
f 7/7/7 15/15/15 6/6/6
f 6/6/6 15/15/15 16/16/16
f 5/5/5 6/6/6 16/16/16
f 10/10/10 17/17/17 12/12/12
f 10/10/10 1/1/1 17/17/17
f 17/17/17 1/1/1 18/18/18
f 17/17/17 18/18/18 19/19/19
f 19/19/19 18/18/18 20/20/20
f 19/19/19 20/20/20 21/21/21
f 22/22/22 12/12/12 17/17/17
f 22/22/22 19/19/19 21/21/21
f 19/19/19 22/22/22 17/17/17
f 22/22/22 21/21/21 23/23/23
f 15/15/15 13/13/13 24/24/24
f 24/24/24 13/13/13 14/14/14
f 15/15/15 24/24/24 25/25/25
f 25/25/25 16/16/16 15/15/15
f 25/25/25 24/24/24 26/26/26
f 25/25/25 26/26/26 27/27/27
f 16/16/16 25/25/25 27/27/27
f 16/16/16 27/27/27 28/28/28
f 29/29/29 22/22/22 23/23/23
f 29/29/29 12/12/12 22/22/22
f 11/11/11 12/12/12 29/29/29
f 11/11/11 29/29/29 30/30/30
f 30/30/30 29/29/29 31/31/31
f 29/29/29 23/23/23 31/31/31
f 30/30/30 31/31/31 32/32/32
f 30/30/30 14/14/14 11/11/11
f 14/14/14 30/30/30 32/32/32
f 14/14/14 32/32/32 33/33/33
f 24/24/24 33/33/33 26/26/26
f 24/24/24 14/14/14 33/33/33
f 5/5/5 28/28/28 34/34/34
f 4/4/4 5/5/5 34/34/34
f 4/4/4 34/34/34 35/35/35
f 2/2/2 4/4/4 35/35/35
f 2/2/2 35/35/35 36/36/36
f 5/5/5 16/16/16 28/28/28
f 18/18/18 2/2/2 36/36/36
f 18/18/18 36/36/36 20/20/20
f 18/18/18 1/1/1 2/2/2
