#Rock_single_t1(Clone)_26289_36.obj

v -5.014284 1.794537 2.027976
v -5.024619 5.024624 -0.3001958
v -1.794545 5.01429 2.027996
v -1.90021 6.545362 -0.1940558
v 1.900192 6.545348 -0.1940451
v 1.794537 5.014287 2.027988
v 1.901901 1.901906 3.177652
v -1.901917 1.901906 3.177654
v 1.901903 -1.901902 3.177637
v -1.901914 -1.901903 3.177639
v 1.794544 -5.014292 2.027984
v -1.794538 -5.01429 2.027991
v 5.014305 -1.794542 2.027986
v 5.024633 -5.024627 -0.3001914
v 5.014293 1.794529 2.027993
v 5.024632 5.024624 -0.3001952
v -5.014294 -1.794532 2.027986
v -6.545365 1.900201 -0.1940564
v -6.545358 -1.900195 -0.1940488
v -7.740181 2.142231 -2.693382
v -7.740178 -2.142222 -2.693378
v -5.024618 -5.024625 -0.3001913
v -5.771444 -5.771451 -2.722217
v 6.545357 -1.900188 -0.194071
v 6.545364 1.900192 -0.1940596
v 7.74016 -2.142219 -2.693378
v 7.74017 2.142216 -2.693365
v 5.771442 5.771451 -2.722203
v -1.900187 -6.545352 -0.1940641
v 1.900181 -6.545346 -0.1940538
v -2.142214 -7.740176 -2.693375
v 2.142227 -7.740167 -2.693387
v 5.771453 -5.771449 -2.722216
v 2.142229 7.74017 -2.693384
v -2.142226 7.740177 -2.693391
v -5.771455 5.771448 -2.722205

vn -0.9707031 0.2163086 0.1008301
vn -0.847168 0.4243164 -0.3186035
vn -0.7026367 0.7094727 0.04504395
vn -0.5517578 0.7856445 -0.2780762
vn -0.2404785 0.9663086 -0.09020996
vn -0.3913574 0.8901367 0.2329102
vn -0.496582 0.6220703 0.6049805
vn -0.765625 0.4660645 0.442627
vn -0.4631348 0.3439941 0.8164063
vn -0.7324219 0.1881104 0.6538086
vn -0.2768555 -0.06390381 0.9584961
vn -0.5878906 -0.2442627 0.7705078
vn -0.00869751 0.4294434 0.902832
vn 0.2026367 0.000538826 0.9790039
vn -0.04730225 0.7509766 0.6582031
vn 0.08679199 0.965332 0.2451172
vn -0.9321289 -0.1052856 0.345459
vn -0.9819336 -0.005226135 -0.1887207
vn -0.9433594 -0.3269043 0.05593872
vn -0.9648438 -0.03894043 -0.2585449
vn -0.9238281 -0.3823242 0.002729416
vn -0.7314453 -0.5400391 0.4152832
vn -0.6953125 -0.6220703 0.359375
vn 0.3498535 0.421875 0.8359375
vn 0.3110352 0.7436523 0.5913086
vn 0.421875 0.3969727 0.8149414
vn 0.3806152 0.7402344 0.5537109
vn 0.1691895 0.96875 0.1795654
vn -0.3916016 -0.5493164 0.737793
vn -0.08013916 -0.3691406 0.9257813
vn -0.354248 -0.6123047 0.706543
vn -0.02182007 -0.4196777 0.9072266
vn 0.2915039 -0.05047607 0.9550781
vn -0.1887207 0.9702148 -0.1501465
vn -0.5209961 0.777832 -0.3508301
vn -0.8178711 0.3974609 -0.4157715

vt 0.1590576 0.6088867
vt 0.02641296 0.9555664
vt 0.3752441 0.831543
vt 0.3171387 1.116211
vt 0.6601563 1.119141
vt 0.6054688 0.8398438
vt 0.6069336 0.612793
vt 0.3837891 0.6098633
vt 0.6157227 0.3896484
vt 0.3925781 0.3867188
vt 0.6245117 0.168335
vt 0.394043 0.1600342
vt 0.840332 0.3908691
vt 0.9731445 0.04434204
vt 0.8305664 0.6206055
vt 0.9545898 0.972168
vt 0.1691895 0.3789063
vt -0.1202393 0.6621094
vt -0.1161499 0.3190918
vt -0.5874023 0.7973633
vt -0.5874023 0.2025146
vt 0.04528809 0.02760315
vt -0.2856445 -0.2885742
vt 1.120117 0.3374023
vt 1.115234 0.6806641
vt 1.586914 0.2022705
vt 1.586914 0.7973633
vt 1.285156 1.288086
vt 0.3393555 -0.119812
vt 0.6826172 -0.116394
vt 0.2034912 -0.5869141
vt 0.7983398 -0.5874023
vt 1.289063 -0.2861328
vt 0.7963867 1.586914
vt 0.2012939 1.586914
vt -0.2893066 1.286133

g Rock_single_t1(Clone)_26289_36
usemtl Rock_single_t1(Clone)_26289_36
usemap Rock_single_t1(Clone)_26289_36
f 1/1/1 3/3/3 2/2/2
f 4/4/4 2/2/2 3/3/3
f 3/3/3 5/5/5 4/4/4
f 3/3/3 6/6/6 5/5/5
f 7/7/7 6/6/6 3/3/3
f 7/7/7 3/3/3 8/8/8
f 8/8/8 3/3/3 1/1/1
f 9/9/9 7/7/7 8/8/8
f 9/9/9 8/8/8 10/10/10
f 10/10/10 8/8/8 1/1/1
f 11/11/11 9/9/9 10/10/10
f 11/11/11 10/10/10 12/12/12
f 13/13/13 7/7/7 9/9/9
f 9/9/9 11/11/11 13/13/13
f 13/13/13 11/11/11 14/14/14
f 13/13/13 15/15/15 7/7/7
f 7/7/7 15/15/15 6/6/6
f 6/6/6 15/15/15 16/16/16
f 5/5/5 6/6/6 16/16/16
f 10/10/10 17/17/17 12/12/12
f 10/10/10 1/1/1 17/17/17
f 17/17/17 1/1/1 18/18/18
f 17/17/17 18/18/18 19/19/19
f 19/19/19 18/18/18 20/20/20
f 19/19/19 20/20/20 21/21/21
f 22/22/22 12/12/12 17/17/17
f 22/22/22 19/19/19 21/21/21
f 19/19/19 22/22/22 17/17/17
f 22/22/22 21/21/21 23/23/23
f 15/15/15 13/13/13 24/24/24
f 24/24/24 13/13/13 14/14/14
f 15/15/15 24/24/24 25/25/25
f 25/25/25 16/16/16 15/15/15
f 25/25/25 24/24/24 26/26/26
f 25/25/25 26/26/26 27/27/27
f 16/16/16 25/25/25 27/27/27
f 16/16/16 27/27/27 28/28/28
f 29/29/29 22/22/22 23/23/23
f 29/29/29 12/12/12 22/22/22
f 11/11/11 12/12/12 29/29/29
f 11/11/11 29/29/29 30/30/30
f 30/30/30 29/29/29 31/31/31
f 29/29/29 23/23/23 31/31/31
f 30/30/30 31/31/31 32/32/32
f 30/30/30 14/14/14 11/11/11
f 14/14/14 30/30/30 32/32/32
f 14/14/14 32/32/32 33/33/33
f 24/24/24 33/33/33 26/26/26
f 24/24/24 14/14/14 33/33/33
f 5/5/5 28/28/28 34/34/34
f 4/4/4 5/5/5 34/34/34
f 4/4/4 34/34/34 35/35/35
f 2/2/2 4/4/4 35/35/35
f 2/2/2 35/35/35 36/36/36
f 5/5/5 16/16/16 28/28/28
f 18/18/18 2/2/2 36/36/36
f 18/18/18 36/36/36 20/20/20
f 18/18/18 1/1/1 2/2/2
