#Rock_single_t1(Clone)_24576_296.obj

v -5.014281 1.794577 2.027981
v -5.024627 5.024599 -0.3001751
v -1.794534 5.014284 2.027988
v -1.900186 6.545395 -0.1940598
v 1.9002 6.545377 -0.1940642
v 1.794541 5.014307 2.027984
v 1.901905 1.901898 3.177639
v -1.901902 1.901944 3.177635
v 1.901907 -1.901915 3.177638
v -1.901901 -1.90187 3.177635
v 1.794543 -5.01426 2.027987
v -1.794534 -5.014282 2.027992
v 5.014287 -1.794552 2.027995
v 5.024614 -5.024662 -0.3001867
v 5.014297 1.794575 2.027978
v 5.024632 5.024651 -0.3001807
v -5.014294 -1.79455 2.02798
v -6.545352 1.900215 -0.1940721
v -6.545356 -1.900215 -0.194052
v -7.740173 2.142204 -2.69338
v -7.740172 -2.142226 -2.693385
v -5.024629 -5.024626 -0.3002003
v -5.771449 -5.771447 -2.722204
v 6.545355 -1.900187 -0.1940576
v 6.545343 1.900156 -0.1940586
v 7.740174 -2.142204 -2.693375
v 7.740172 2.142227 -2.69337
v 5.771454 5.771459 -2.722204
v -1.900195 -6.545348 -0.1940475
v 1.900194 -6.545367 -0.1940521
v -2.142224 -7.740177 -2.693367
v 2.14222 -7.740187 -2.693375
v 5.771451 -5.771451 -2.722215
v 2.142215 7.740133 -2.693388
v -2.142219 7.740186 -2.69338
v -5.771452 5.771462 -2.722229

vn 0.07403564 0.9047852 0.4189453
vn 0.5483398 0.8168945 0.1768799
vn 0.7441406 0.5302734 0.4055176
vn 0.8505859 0.4870605 0.1973877
vn 0.9570313 0.1606445 0.2412109
vn 0.8793945 0.1151123 0.4614258
vn 0.4394531 -0.05419922 0.8964844
vn 0.2553711 0.5107422 0.8203125
vn -0.3210449 -0.3017578 0.8974609
vn -0.5053711 0.2631836 0.8212891
vn -0.7773438 -0.4243164 0.463623
vn -0.9125977 -0.009338379 0.4077148
vn -0.1137085 -0.7788086 0.6166992
vn -0.5673828 -0.7558594 0.3254395
vn 0.5517578 -0.5620117 0.6157227
vn 0.9047852 -0.2766113 0.3234863
vn -0.5913086 0.6879883 0.4196777
vn -0.01215363 0.9863281 0.1641846
vn -0.5703125 0.8041992 0.1650391
vn -0.003082275 0.9931641 0.1165771
vn -0.581543 0.8041992 0.1173706
vn -0.9238281 0.3376465 0.178833
vn -0.9335938 0.3352051 0.123291
vn -0.009300232 -0.9179688 0.3959961
vn 0.5488281 -0.7358398 0.3952637
vn -0.01482391 -0.9360352 0.3508301
vn 0.5639648 -0.7475586 0.3500977
vn 0.9189453 -0.2873535 0.2700195
vn -0.9736328 -0.1069336 0.1998291
vn -0.8671875 -0.4333496 0.2436523
vn -0.9804688 -0.1081543 0.1618652
vn -0.8706055 -0.4453125 0.2071533
vn -0.5727539 -0.7729492 0.2719727
vn 0.9667969 0.152832 0.2047119
vn 0.8564453 0.4899902 0.1594238
vn 0.5576172 0.8208008 0.1212769

vt 0.1590576 0.6088867
vt 0.02641296 0.9555664
vt 0.3752441 0.831543
vt 0.3171387 1.116211
vt 0.6601563 1.119141
vt 0.6054688 0.8398438
vt 0.6069336 0.612793
vt 0.3837891 0.6098633
vt 0.6157227 0.3896484
vt 0.3925781 0.3867188
vt 0.6245117 0.168335
vt 0.394043 0.1600342
vt 0.840332 0.3908691
vt 0.9731445 0.04434204
vt 0.8305664 0.6206055
vt 0.9545898 0.972168
vt 0.1691895 0.3789063
vt -0.1202393 0.6621094
vt -0.1161499 0.3190918
vt -0.5874023 0.7973633
vt -0.5874023 0.2025146
vt 0.04528809 0.02760315
vt -0.2856445 -0.2885742
vt 1.120117 0.3374023
vt 1.115234 0.6806641
vt 1.586914 0.2022705
vt 1.586914 0.7973633
vt 1.285156 1.288086
vt 0.3393555 -0.119812
vt 0.6826172 -0.116394
vt 0.2034912 -0.5869141
vt 0.7983398 -0.5874023
vt 1.289063 -0.2861328
vt 0.7963867 1.586914
vt 0.2012939 1.586914
vt -0.2893066 1.286133

g Rock_single_t1(Clone)_24576_296
usemtl Rock_single_t1(Clone)_24576_296
usemap Rock_single_t1(Clone)_24576_296
f 1/1/1 3/3/3 2/2/2
f 4/4/4 2/2/2 3/3/3
f 3/3/3 5/5/5 4/4/4
f 3/3/3 6/6/6 5/5/5
f 7/7/7 6/6/6 3/3/3
f 7/7/7 3/3/3 8/8/8
f 8/8/8 3/3/3 1/1/1
f 9/9/9 7/7/7 8/8/8
f 9/9/9 8/8/8 10/10/10
f 10/10/10 8/8/8 1/1/1
f 11/11/11 9/9/9 10/10/10
f 11/11/11 10/10/10 12/12/12
f 13/13/13 7/7/7 9/9/9
f 9/9/9 11/11/11 13/13/13
f 13/13/13 11/11/11 14/14/14
f 13/13/13 15/15/15 7/7/7
f 7/7/7 15/15/15 6/6/6
f 6/6/6 15/15/15 16/16/16
f 5/5/5 6/6/6 16/16/16
f 10/10/10 17/17/17 12/12/12
f 10/10/10 1/1/1 17/17/17
f 17/17/17 1/1/1 18/18/18
f 17/17/17 18/18/18 19/19/19
f 19/19/19 18/18/18 20/20/20
f 19/19/19 20/20/20 21/21/21
f 22/22/22 12/12/12 17/17/17
f 22/22/22 19/19/19 21/21/21
f 19/19/19 22/22/22 17/17/17
f 22/22/22 21/21/21 23/23/23
f 15/15/15 13/13/13 24/24/24
f 24/24/24 13/13/13 14/14/14
f 15/15/15 24/24/24 25/25/25
f 25/25/25 16/16/16 15/15/15
f 25/25/25 24/24/24 26/26/26
f 25/25/25 26/26/26 27/27/27
f 16/16/16 25/25/25 27/27/27
f 16/16/16 27/27/27 28/28/28
f 29/29/29 22/22/22 23/23/23
f 29/29/29 12/12/12 22/22/22
f 11/11/11 12/12/12 29/29/29
f 11/11/11 29/29/29 30/30/30
f 30/30/30 29/29/29 31/31/31
f 29/29/29 23/23/23 31/31/31
f 30/30/30 31/31/31 32/32/32
f 30/30/30 14/14/14 11/11/11
f 14/14/14 30/30/30 32/32/32
f 14/14/14 32/32/32 33/33/33
f 24/24/24 33/33/33 26/26/26
f 24/24/24 14/14/14 33/33/33
f 5/5/5 28/28/28 34/34/34
f 4/4/4 5/5/5 34/34/34
f 4/4/4 34/34/34 35/35/35
f 2/2/2 4/4/4 35/35/35
f 2/2/2 35/35/35 36/36/36
f 5/5/5 16/16/16 28/28/28
f 18/18/18 2/2/2 36/36/36
f 18/18/18 36/36/36 20/20/20
f 18/18/18 1/1/1 2/2/2
