#Rock_single_t1(Clone)_26216_23.obj

v -5.014288 1.794541 2.027982
v -5.02463 5.024603 -0.3001932
v -1.794535 5.014284 2.027989
v -1.900191 6.545371 -0.1940522
v 1.900201 6.545379 -0.1940622
v 1.794537 5.014291 2.02799
v 1.901909 1.901915 3.177631
v -1.901912 1.901892 3.177649
v 1.901909 -1.901903 3.177635
v -1.901911 -1.901918 3.177642
v 1.794535 -5.014294 2.027994
v -1.794537 -5.014301 2.027993
v 5.014289 -1.794534 2.027981
v 5.024621 -5.024639 -0.3001831
v 5.014292 1.794539 2.027993
v 5.024623 5.024618 -0.3001882
v -5.014292 -1.794549 2.02799
v -6.545354 1.900197 -0.194062
v -6.545353 -1.900182 -0.1940627
v -7.740169 2.142228 -2.69338
v -7.740171 -2.14223 -2.693389
v -5.024619 -5.024608 -0.3001812
v -5.771452 -5.771459 -2.722206
v 6.545354 -1.900196 -0.1940463
v 6.545352 1.900183 -0.1940456
v 7.740166 -2.142243 -2.69338
v 7.740169 2.142215 -2.693371
v 5.771449 5.771443 -2.722215
v -1.9002 -6.545361 -0.1940667
v 1.900192 -6.54537 -0.1940561
v -2.142231 -7.7402 -2.693374
v 2.142229 -7.740152 -2.693369
v 5.771445 -5.771468 -2.722219
v 2.142227 7.740185 -2.693386
v -2.142222 7.740184 -2.693384
v -5.77145 5.771453 -2.722203

vn 0.2529297 0.8652344 0.4318848
vn 0.6035156 0.796875 0.02352905
vn 0.8530273 0.4931641 0.1677246
vn 0.8823242 0.463623 -0.07983398
vn 0.9868164 0.1343994 -0.08990479
vn 0.984375 0.07977295 0.1550293
vn 0.7050781 -0.09454346 0.7026367
vn 0.5341797 0.4440918 0.71875
vn 0.02853394 -0.3166504 0.9477539
vn -0.142334 0.2220459 0.9643555
vn -0.5556641 -0.4257813 0.7138672
vn -0.6865234 -0.01237488 0.7260742
vn 0.09893799 -0.7856445 0.6098633
vn -0.4296875 -0.7573242 0.4912109
vn 0.7128906 -0.5839844 0.3874512
vn 0.9526367 -0.3037109 -0.01013184
vn -0.3608398 0.6640625 0.6542969
vn 0.0838623 0.972168 0.2178955
vn -0.4389648 0.800293 0.4074707
vn 0.07470703 0.9829102 0.1676025
vn -0.4685059 0.8041992 0.364502
vn -0.7788086 0.3430176 0.5249023
vn -0.8105469 0.34375 0.4733887
vn 0.109436 -0.9282227 0.3547363
vn 0.6323242 -0.7563477 0.1650391
vn 0.08685303 -0.9462891 0.3110352
vn 0.6298828 -0.7675781 0.1140747
vn 0.9467773 -0.3127441 -0.06970215
vn -0.8334961 -0.09985352 0.5424805
vn -0.7294922 -0.4289551 0.5322266
vn -0.8554688 -0.09942627 0.5073242
vn -0.7475586 -0.4399414 0.4970703
vn -0.4562988 -0.7734375 0.439209
vn 0.9829102 0.1282959 -0.1306152
vn 0.875 0.46875 -0.1202393
vn 0.5922852 0.8041992 -0.03552246

vt 0.1590576 0.6088867
vt 0.02641296 0.9555664
vt 0.3752441 0.831543
vt 0.3171387 1.116211
vt 0.6601563 1.119141
vt 0.6054688 0.8398438
vt 0.6069336 0.612793
vt 0.3837891 0.6098633
vt 0.6157227 0.3896484
vt 0.3925781 0.3867188
vt 0.6245117 0.168335
vt 0.394043 0.1600342
vt 0.840332 0.3908691
vt 0.9731445 0.04434204
vt 0.8305664 0.6206055
vt 0.9545898 0.972168
vt 0.1691895 0.3789063
vt -0.1202393 0.6621094
vt -0.1161499 0.3190918
vt -0.5874023 0.7973633
vt -0.5874023 0.2025146
vt 0.04528809 0.02760315
vt -0.2856445 -0.2885742
vt 1.120117 0.3374023
vt 1.115234 0.6806641
vt 1.586914 0.2022705
vt 1.586914 0.7973633
vt 1.285156 1.288086
vt 0.3393555 -0.119812
vt 0.6826172 -0.116394
vt 0.2034912 -0.5869141
vt 0.7983398 -0.5874023
vt 1.289063 -0.2861328
vt 0.7963867 1.586914
vt 0.2012939 1.586914
vt -0.2893066 1.286133

g Rock_single_t1(Clone)_26216_23
usemtl Rock_single_t1(Clone)_26216_23
usemap Rock_single_t1(Clone)_26216_23
f 1/1/1 3/3/3 2/2/2
f 4/4/4 2/2/2 3/3/3
f 3/3/3 5/5/5 4/4/4
f 3/3/3 6/6/6 5/5/5
f 7/7/7 6/6/6 3/3/3
f 7/7/7 3/3/3 8/8/8
f 8/8/8 3/3/3 1/1/1
f 9/9/9 7/7/7 8/8/8
f 9/9/9 8/8/8 10/10/10
f 10/10/10 8/8/8 1/1/1
f 11/11/11 9/9/9 10/10/10
f 11/11/11 10/10/10 12/12/12
f 13/13/13 7/7/7 9/9/9
f 9/9/9 11/11/11 13/13/13
f 13/13/13 11/11/11 14/14/14
f 13/13/13 15/15/15 7/7/7
f 7/7/7 15/15/15 6/6/6
f 6/6/6 15/15/15 16/16/16
f 5/5/5 6/6/6 16/16/16
f 10/10/10 17/17/17 12/12/12
f 10/10/10 1/1/1 17/17/17
f 17/17/17 1/1/1 18/18/18
f 17/17/17 18/18/18 19/19/19
f 19/19/19 18/18/18 20/20/20
f 19/19/19 20/20/20 21/21/21
f 22/22/22 12/12/12 17/17/17
f 22/22/22 19/19/19 21/21/21
f 19/19/19 22/22/22 17/17/17
f 22/22/22 21/21/21 23/23/23
f 15/15/15 13/13/13 24/24/24
f 24/24/24 13/13/13 14/14/14
f 15/15/15 24/24/24 25/25/25
f 25/25/25 16/16/16 15/15/15
f 25/25/25 24/24/24 26/26/26
f 25/25/25 26/26/26 27/27/27
f 16/16/16 25/25/25 27/27/27
f 16/16/16 27/27/27 28/28/28
f 29/29/29 22/22/22 23/23/23
f 29/29/29 12/12/12 22/22/22
f 11/11/11 12/12/12 29/29/29
f 11/11/11 29/29/29 30/30/30
f 30/30/30 29/29/29 31/31/31
f 29/29/29 23/23/23 31/31/31
f 30/30/30 31/31/31 32/32/32
f 30/30/30 14/14/14 11/11/11
f 14/14/14 30/30/30 32/32/32
f 14/14/14 32/32/32 33/33/33
f 24/24/24 33/33/33 26/26/26
f 24/24/24 14/14/14 33/33/33
f 5/5/5 28/28/28 34/34/34
f 4/4/4 5/5/5 34/34/34
f 4/4/4 34/34/34 35/35/35
f 2/2/2 4/4/4 35/35/35
f 2/2/2 35/35/35 36/36/36
f 5/5/5 16/16/16 28/28/28
f 18/18/18 2/2/2 36/36/36
f 18/18/18 36/36/36 20/20/20
f 18/18/18 1/1/1 2/2/2
