#roof6.010_24138_960.obj

v -15.06678 -14.30281 -50.07612
v -17.85665 11.365 -50.07611
v 17.29859 -11.78345 -50.07612
v 15.62463 14.72135 -50.07611

vn 0.001752853 0.9995117 0.002019882
vn 0.001752853 0.9995117 0.002019882
vn 0.001752853 0.9995117 0.002019882
vn 0.001752853 0.9995117 0.002019882

vt 0.8730469 -0.2401123
vt 1.27832 -0.244873
vt 0.8618164 0.4758301
vt 1.27832 0.4973145

g roof6.010_24138_960
usemtl roof6.010_24138_960
usemap roof6.010_24138_960
f 1/1/1 3/3/3 2/2/2
f 2/2/2 3/3/3 4/4/4
