#roof1.011_25110_936.obj

v 60.19769 -12.35126 -23.14643
v -60.19846 12.3509 -23.14659
v 60.19779 12.35094 -23.14659
v -60.19841 -12.3513 -23.14643
v 64.58077 -15.07963 10.4094
v -64.58155 15.07974 10.4092
v 64.58078 15.07975 10.4092
v -64.58156 -15.07964 10.4094

vn -0.00396347 0.9995117 0.003875732
vn -0.00396347 0.9995117 0.003875732
vn -0.00396347 0.9995117 0.003875732
vn -0.00396347 0.9995117 0.003875732
vn -0.00396347 0.9995117 0.003875732
vn -0.00396347 0.9995117 0.003875732
vn -0.00396347 0.9995117 0.003875732
vn -0.00396347 0.9995117 0.003875732

vt -1.475586 4.0625
vt 0.2819824 -3.621094
vt 0.2819824 4.0625
vt -1.475586 -3.621094
vt -1.475586 -3.621094
vt -3.621094 4.621094
vt -3.621094 -3.621094
vt -1.475586 4.621094

g roof1.011_25110_936
usemtl roof1.011_25110_936
usemap roof1.011_25110_936
f 1/1/1 3/3/3 2/2/2
f 4/4/4 1/1/1 2/2/2
f 5/5/5 7/7/7 6/6/6
f 8/8/8 5/5/5 6/6/6
