#t30.008_24909_894.obj

v -41.13163 25.31615 0.5652328
v -24.8568 22.65313 0.5652388
v -38.40808 -20.21836 0.5653104
v -22.63521 -22.79923 0.5653144
v -9.091847 21.33906 0.5652401
v -7.356418 -24.07261 0.5653176
v 6.673114 20.02537 0.5652432
v 7.922376 -25.34599 0.5653187
v 22.43806 18.71112 0.5652464
v 23.20116 -26.61956 0.5653219

vn -0.003742218 0.9995117 0.004016876
vn -0.003742218 0.9995117 0.004016876
vn -0.003742218 0.9995117 0.004016876
vn -0.003742218 0.9995117 0.004016876
vn -0.003742218 0.9995117 0.004016876
vn -0.003742218 0.9995117 0.004016876
vn -0.003742218 0.9995117 0.004016876
vn -0.003742218 0.9995117 0.004016876
vn -0.003742218 0.9995117 0.004016876
vn -0.003742218 0.9995117 0.004016876

vt 8.046875 14.3125
vt 8.492188 12.32813
vt 13.67188 14.3125
vt 14.10938 12.39063
vt 8.773438 10.39844
vt 14.375 10.51563
vt 9.046875 8.460938
vt 14.64844 8.648438
vt 9.328125 6.535156
vt 14.91406 6.777344

g t30.008_24909_894
usemtl t30.008_24909_894
usemap t30.008_24909_894
f 1/1/1 3/3/3 2/2/2
f 2/2/2 3/3/3 4/4/4
f 2/2/2 4/4/4 5/5/5
f 5/5/5 4/4/4 6/6/6
f 5/5/5 6/6/6 7/7/7
f 7/7/7 6/6/6 8/8/8
f 7/7/7 8/8/8 9/9/9
f 9/9/9 8/8/8 10/10/10
